<?xml version="1.0" encoding="utf-8"?>
<!-- Generator: Adobe Illustrator 21.1.0, SVG Export Plug-In . SVG Version: 6.00 Build 0)  -->
<svg version="1.1" id="Layer_1" xmlns="http://www.w3.org/2000/svg" xmlns:xlink="http://www.w3.org/1999/xlink" x="0px" y="0px"
	 viewBox="0 0 1366 1218" style="enable-background:new 0 0 1366 1218;" xml:space="preserve">
<style type="text/css">
	.st0{fill:#202020;}
</style>
<g>
	<g>
		<g>
			<g>
				<g>
					<path class="st0" d="M1338.9,652.8c1.6-5.3-0.3-16.9-5.6-14.2l-2.5,20.1L1338.9,652.8z"/>
					<path class="st0" d="M1299.8,618.6c-2.3,4.1-4.7,9.3-6.2,15.3l-13.1-4.4c-8.2,4.4-16.2,11.2-21.5,21c2.9-1.7,5.2-2.9,6.8-4.1
						l29.4,9.9c3.9-10,6.1-7.8,10.4-27c5.3-2.7,9.9,5.7,9.5,13c1.6-5.2,8.8,3.8,10.8-8.9c-8.1-14.8-17.2-14.8-25.6-1.5
						C1298,627.6,1299.6,622.3,1299.8,618.6z"/>
					<path class="st0" d="M942.5,591.4c-0.1,1.5-0.3,3.1-0.4,4.6C942.8,594.5,942.9,592.9,942.5,591.4z"/>
					<path class="st0" d="M767.1,548c1.6-2,1.2-4.2,0.1-5.6C766.3,544.8,765.6,547,767.1,548z"/>
					<path class="st0" d="M709.8,567.3c1.3-0.3,2.3-0.7,3.4-1.1C711.1,565.6,709.5,565.6,709.8,567.3z"/>
					<path class="st0" d="M942.5,591.4c0.2-2,0.4-4,0.5-6c0.1-2,0.2-4,0.3-6.1l0.5-11.8l-48.7-0.5l-0.1,0c0.1,0.3,0.3,0.6,0.6,0.7
						l47,12C937.7,582.1,941.7,586.4,942.5,591.4z"/>
					<path class="st0" d="M1222.2,640c1-1.1,2.3-2.7,3.8-4.8c-1,1-1.9,1.8-2.7,2.6C1223,638.4,1222.7,639,1222.2,640z"/>
					<path class="st0" d="M976.1,587l2.6-1.3c-0.3-2.4-0.8-5.2-1.5-8.3C976.8,580.6,976.4,583.8,976.1,587z"/>
					<path class="st0" d="M1055.5,591.2c-2.8,1.2,6.4,15.4,10,21.9c-2.9-6.5-3.2-10.5-1.9-12.9
						C1061.7,597.5,1059.1,594.6,1055.5,591.2z"/>
					<path class="st0" d="M1222.1,599.1c1-1.4,2.1-2.7,3.2-3.9C1224.3,596.3,1223.1,597.6,1222.1,599.1z"/>
					<path class="st0" d="M977.7,670.1c2.5-0.1,4.8-0.5,6.1-1.1C981.7,668.9,979.7,669.4,977.7,670.1z"/>
					<path class="st0" d="M203.4,692.5c-1-0.6-1.8-0.9-2.7-1.4C202,692.4,203,693.1,203.4,692.5z"/>
					<path class="st0" d="M112.6,657l-0.9-1.8c-3.2-0.2-6.3-0.4-9.4-0.4L112.6,657z"/>
					<path class="st0" d="M616.9,616.8c0.3,0,0.3,0,0.6,0C618.3,613.6,617.3,614.8,616.9,616.8z"/>
					<path class="st0" d="M520.2,471.7c18.5,0.8,4.6,25.7,27.7,23.2C541.8,492.1,536.2,467.2,520.2,471.7z"/>
					<path class="st0" d="M1221.6,639.2c-0.7,0.5-1.4,1-2,1.3C1220.4,640.3,1221,640,1221.6,639.2z"/>
					<path class="st0" d="M547.9,494.9l0.1,0.1l2.3-0.3C549.3,494.8,548.7,494.8,547.9,494.9z"/>
					<path class="st0" d="M683.2,673.1c-3-0.5-5.4-0.4-7.8-0.2C677.1,673.4,679.3,673.6,683.2,673.1z"/>
					<path class="st0" d="M592.3,681.9l-4.8,1.1C589.8,683,591.2,682.5,592.3,681.9z"/>
					<path class="st0" d="M687.2,559.2c0.6-1.9,1.4-3.3,1.8-4.8c0.2-0.8,0.3-1.6,0.1-2.5c-0.2-0.9-0.6-2-1.3-3.3
						c-0.8,0.6-1.3,1.1-1.9,1.8c1.3,0.9,2.2,1.9,2.5,3.3C688.8,555.2,688.5,557,687.2,559.2z"/>
					<path class="st0" d="M541.1,576.9c1.3,0.5,2.5,0.7,3.7,1.1c0.5-0.9,1.1-1.9,1.6-2.9C544.6,575.7,542.9,576.3,541.1,576.9z"/>
					<path class="st0" d="M153.2,688.3c4.8-1.5,10.1-2.3,15.4-2.9C156.6,685.9,153,673.5,153.2,688.3z"/>
					<path class="st0" d="M1225.1,633.6c-1.6,3.1-2.6,4.7-3.4,5.7c0.5-0.4,1.1-0.9,1.6-1.4C1224.2,636,1225,634.4,1225.1,633.6z"/>
					<path class="st0" d="M561.7,562.6l0.7-0.1l0.5,0l0.9-0.1c0.6-0.1,1.3-0.2,1.9-0.3l128.3,52.1l-8.1,5.1c2.7-1,5.5-2.5,8.5-4.7
						l-128.7-52.5c-0.5,0.1-1.2,0.2-1.8,0.3c-0.3,0-0.6,0.1-1,0.1l-0.5,0L561.7,562.6z"/>
					<path class="st0" d="M479.9,550.6l-0.9,3.8C480.2,553.7,480.7,552.5,479.9,550.6z"/>
					<path class="st0" d="M656.4,650c-5.9-2.5-10.3-3.1-13.9-2.8c0.5,1.4,0.8,2.6,1.8,4.3L656.4,650z"/>
					<path class="st0" d="M168.8,685.4c-0.1,0-0.2,0-0.2,0S168.7,685.5,168.8,685.4z"/>
					<path class="st0" d="M126.4,600.7c0.5,5.9,6,6.8,13.1,6.3c7.1-0.5,15.6-2.4,22.1-1.7c1.9,3.7,1.9,6.1,0.7,7.6
						c-1.3,1.6-3.8,2.4-6.9,2.9c-6.2,1-14.7,1-20.2,3.9c3.3,4.3,10.1,7.9,16,11.4c5.9,3.5,10.9,7,10.6,10.5c-3.6,0.6-4.9,2-9.5,0.6
						c4.4,2.3,6.8,5.4,8.1,8.8c1.2,3.4,1.5,7.2,1.9,11.1c0.6,7.7,1.7,15.5,12.4,22.2c-2,0.8-3.9,1.1-5.6,1.2
						c11.2-1.2,22.5-0.9,30.5,0c0,3.1,3.3,6.2,4.8,8.7c1.4,2.5,1.1,4.5-6.3,5c0.7-3.7-5.1-4.5-9.4-6.6l5.7,6.9
						c-21.2,3.9-6.4-9.3-21.8-10.3c1.7,3.5,4,7.2,6.5,11c2.4,3.8,4.9,7.7,6.8,11.4L243,825.7l8.7-88.3c0.7-6.8,2.4-12.4,7.1-14.5
						c17.7,10.3-8.5,23.2,14.1,23l-5.6,2.9L67.5,852.5l98.8-143.1l5.9-8.5c-8.3,1.9-12.2,2.3-14,2c-1.8-0.3-1.5-1.4-1.2-2.5
						c0.3-1.1,0.4-2.2-1.7-2.6c-2.1-0.4-6.4-0.2-15.2,1.3c-1.3,2.8-1.9,5.3-2,7.1l-21.4,306.3l173.6-246.8
						c7.8-11.1,2.1-20.9,16.3-32c-6.4-10.5-14.4-8.6-20.8-19.1c0.5-17.9,14.3-15.1,26.8-12.1c12.5,3,23.9,6.4,19.3-10.5
						c-3.9-6.3-10.7-13.6-14.1-19.9c-3.4-6.3-3.3-11.7,6.8-14.2l15.8,17.6c6.9-7.8,1.8-15-1.9-21.2c-3.7-6.3-6-11.7,6.5-16.2
						c5.3,8.3-2.9,17.7,1.1,16.7c11.5-0.6,10.2-4.5,6.8-9.4c-3.4-4.9-8.9-10.6-5.9-15.1l18.1,9.6c3.8-7.8,6.3-17,8.6-26.7
						l-115.8-54.3c1.8,12.5,3.5,26.5,0.6,39.2c-5.1-3.5-9.8-9-17.3-7.1c-0.2,13.6-6.8,25.9-16.4,36.2c-9.5,10.4-21.9,18.7-33.7,25.6
						c3.2,5.8,6.2,11.8,9.2,17.8c-1.4,1.8-8.9-1.1-10.3-5c-5.6,2.1-3.3,3.8,0.6,6c4,2.2,9.7,4.8,11.1,8.7
						c-2.3,5.4-12.6,0.2-14.8-5.8c0.4,4.2,0.4,8.8,0.1,13.7c-0.3,4.9-1.1,9.9-2.2,14.8l95.3,71.2c3.9-18,13.1-34.9,30.4-37.9
						l1.8,6.3c7.6-4.1,3-13-0.6-21.2c-3.6-8.2-6.4-15.6,4.6-16.4l0.7,4.1c3.3-2.8,6.5-5.8,9.5-9.1c3-3.2,5.8-6.6,8.5-10
						c5.5-6.8,10.6-14,16.1-20.4c2.8-3.2,5.6-6.3,8.6-9.2c3-2.8,6.2-5.4,9.6-7.6c3.4-2.2,7-4.1,11-5.4c4-1.3,8.2-2.2,12.8-2.5
						c-8-10.2-0.3-14.7,6.2-19.8c3.3-2.5,6.2-5.2,6.8-8.8c0.6-3.6-1.1-8.1-7.3-14.4c13.1-1.5,19.8-0.1,26.7,0.2
						c6.9,0.3,13.9-0.8,27.5-6.8c6.2-4.2-8.7-23.1-5.1-32.2l13.6,12.6l-5.5-22.3l20.5,10.6l2.5-9.4c-3.1,1.7-11-0.6-14.5-4.7
						c1.7-7.7,9.6-11.3,18.1-12.1c8.5-0.8,17.3,1.2,20.8,4.4l2.8-8.6l-123.4-80.8l2,26.8c-6.7-3.4-7-9.5-9.9-15.2
						c11.2,23.1-19.3-4.1-9,17.2c4.7-0.5,9.9,5.1,13.2,6.7c-13.3,3.4-20,20.8-20.4,35.4l-11-6.9c-5.9,11.2-9,24.4-11.7,38.3
						c-0.3,1.7-0.7,3.5-1,5.2c-0.3,1.8-0.6,3.5-1,5.3c-0.6,3.6-1.3,7.1-2,10.7c-0.7,3.5-1.5,7.1-2.3,10.7c-0.8,3.6-1.8,7.2-2.9,10.7
						c8.7-8.5,29.2,0.3,28.8,8.9c-6.6-0.7-13.2-1.5-19.7-2.2c5.1,4.4,7.5,2.7,9.9,1.8c2.5-0.8,5.1-0.9,10.7,6.6
						c-5,9.7-23.4,1.2-27.8-6.7l3,14.8c-5.8-0.7-8-4.6-15-7.3c2.6,2.1,2.3,4.3,0.7,6.6c-1.5,2.3-4.4,4.8-7,7.4
						c-2.6,2.6-4.9,5.4-5.5,8.4c-0.5,2.9,0.9,6.1,5.5,9.3l-5.8-0.5c-1.7,7.6-2.8,14.3-3.2,20.5c-0.2,3.1-0.4,6.1-0.5,8.9
						c-0.1,2.9-0.2,5.6-0.1,8.4c0.1,5.5,0.3,10.9,0.3,16.4c0,2.8,0.1,5.7,0,8.7c0,3-0.1,6.1-0.3,9.4c8.4,1,11.4,3.9,14,7.6
						c2.7,3.7,4.9,8.3,11.5,12.4c-0.8,2.2-1.7,4.5-2.7,6.9c-0.5,1.2-1,2.3-1.4,3.5c-0.5,1.2-1,2.4-1.5,3.6c-2,4.9-4.1,10-6,15.2
						l-46.6,129.7L432.8,805c8.6-4.7,16.8-10.3,22.2-18.5c1.8-15.9-8.8-11.9-13-22.9c12.7,8.6,23.5-7.6,26.1,7.2
						c12.3-20,15.9-25.4,24.1-56.4c-6.9-1.3-11.3-0.2-14.3-4.9c1.3-5.8,12.6-5.7,17.9-0.5l0.4,2.1c2.1-40.3,82.3-32.8,73.2-73.3
						l0.3,2.1l3.6-31.8c9.8-8.3,4.5,13,17.7,11.5c-2.1-39,31.6-34.5,33-64.2c30.1,8.3,37.5-16.1,48.7-35.5l-129.2-95.2
						c-3.1,6-6.5,11.6-11,16c-4.4,4.4-9.8,7.6-16.9,8.8l9.8,4.6c2.4,5.8,0,6.7-3.7,6.5c-3.6-0.2-8.5-1.4-10.9,0.1
						c7.4,3.9,12.1-1.1,14.6,5.7c-10.6,28-29.5,51.4-50.5,74.8c-20.9,23.3-43.8,46.6-61.4,72.7c-6.1,9.7,5.1,18.4,13.5,26.4
						c4.2,4,7.7,7.9,8,11.7c0.3,3.8-2.7,7.5-11.2,11.4c-5-5-10.1-10.1-15-15.2c1.6,22.5-5,41.5-12.5,60.4l-197.3,497.1l329.6-425.4
						c6.8-8.7,14-17,20.3-26c1.6-2.2,3.1-4.6,4.5-6.9c1.4-2.4,2.8-4.8,4-7.3c2.4-5.1,4.4-10.4,5.8-16.4c2,4.7,6.5,8.6,4.1,11.4
						c4.1,0.8,7.3-0.2,9.8-2.3c2.5-2,4.2-5.1,5.1-8.6c1.9-6.9,0.8-15.2-3.5-19.2c5-3.6,8.9,6,15.7,7.3c5.8-0.2,5.9-7,6.2-13
						c0.3-6,0.9-11.2,7.6-7.9c2.2,1.1,1.8,4.9,1.6,6.7c-0.7-4.3,3.8-8.5,6.6-12.6c2.8-4,3.9-8-3.8-11.9c7.9-2.5,11.5-8.7,15-14.6
						c3.6-5.8,7.1-11.2,14.7-11.7c-3.7-9.3,2.4-12.1,7.3-15.1c5-2.9,8.8-6.1,0.8-16.6c8.3,9.6,16.3,9.9,22.2,5.9
						c5.9-4,9.9-12.2,10.1-19.8l-111.1-40.5c0.9,0,1.6,0,2.3,0c-2,0.1-3.6,0.4-4.9,0.6c-1.4,0.2-2.5,0.4-3.7,0.5
						c-1.3,0.2-2.6,0.3-4.4,0.4c-2.6,0.1-1.8,0.1-1,0.1c-0.7,0-1.4,0.1-2.1,0.1c-0.9,0-1.9,0.1-2.8,0.1l-0.3,0l0,0l0.1,0l0.2,0
						c0.2,0,0.3,0.1,0.5,0.1c0.3,0.1,0.9,0.2,1.4,0.4c0.5,0.2,1.2,0.5,1.9,0.8c2.9,1.2,7.5,2.8,14.4,3.5c-4.2,0.5-7,1-8.8,2
						c-0.5,0.2-0.8,0.4-1.2,0.7c-0.3,0.3-0.6,0.6-0.9,0.9c-0.2,0.3-0.4,0.6-0.6,0.9c-0.1,0.2-0.1,0.3-0.2,0.5
						c-0.1,0.2-0.1,0.4-0.1,0.6c-0.4,2.9,1.3,7.1,2.7,11.5c1.4,4.3,2.3,8.9,0.3,12c-1.1,1.7-2.8,2.9-5.7,3.7
						c-2.9,0.8-6.8,1.1-12.2,0.7c2.6,36.1,1.5,68.3-2.6,98.5c-25.1-10.1,8.6-31.9-18.6-40.3c1,30.4,17.3,53.6,1.7,77.7
						c-5.9,5.6-9.7-7.8-13.2-11.7c0.1,3.6-0.1,7-0.5,10.2l-31,249.6l136.6-175.9c15.5-19.9,39.1-27.8,47.7-52c1.6,2,1.2,5.8,0.6,9.1
						c3.2-3.8,11.4-4.3,3.1-13.4l-1.6,5.7c-17.5-8.6-8.8-41.2-14.2-49c16.2,32.4,24.7-9.1,43,33.6c1-3.9,0.4-11-5.4-16.8
						c5.2-1.3,9.5,1.4,11.7,11.8c9.3-16.5-3.9-22.5,8.6-32.6c3.8,4.6,2.8,8.5,6,14.9c-1.2-14.1-2.4-28.3,11.3-33.1
						c1.7,3.3,5.9,5.9,2.7,8.4c16.7-16.3,10.7-49.2,37.5-57c10.8,24.7,12.1,1,27.6,17.3l6.3-13.9l-11.2-4.8
						c9.5-7.4,7.2-26.8,19.9-27.8l-1,12.8l14.6-17.7L811,606c2-16.7-19.2-20.9-2.9-26.4c-0.7,2.6,3.9-1.8,11-3l-27-9.6
						c-1.3,3-3.4,6.2-7.3,8.6c0,0,0,0-0.1,0c3.9,2,7.9,4.3,10.3,7.2c1.2,1.4,1.9,3,2.1,4.8c0.1,0.9,0.1,1.8-0.2,2.8
						c-0.3,1-0.7,2-1.4,3.1c-3.5,1.2-9.7,1.1-15.6,0.9c-5.9-0.2-11.5-0.4-13.9,0.3c9.5,1.8,11,7.7,12.2,13.8
						c0.3,1.5,0.6,3.1,1.1,4.6c0.4,1.5,0.9,3,1.7,4.5c1.7,2.9,4.2,5.6,9,7.9c-4.4-2.8-16.1-4.1-18.5-3.7c4.9,1.9,9.8,3.9,14.6,6
						c-5.6,4.2-8,4.4-17.1,2.1c-1.2,3.2-0.1,4.9,2.1,5.8c2.2,0.9,5.5,1.1,8.5,1.3c3,0.2,5.7,0.3,6.6,1.4c0.5,0.5,0.5,1.3,0,2.4
						c-0.6,1.1-1.7,2.6-3.7,4.4c-0.4-0.8-1.2-1.2-2.1-1.8c-0.9-0.6-1.9-1.4-2.7-3c-0.6,0.9-1.1,1.9-1.6,2.8
						c-0.5,0.9-0.9,1.9-1.2,2.9c-0.3,1-0.6,1.9-0.8,2.9c-0.3,1-0.5,2-0.7,3c-0.6,4-0.9,8.1-1.1,12.3c-0.6,8.2-1.6,16.7-7.5,22.7
						L662,792.7L809,718.4c0.7-0.3,1.3-0.6,2-0.9c7,4.5,8,7.7,7.2,10.4l-36.8,121.8l-28.6-168.6c-0.7-4.4,4.2-8.9-8.3-10.8
						c-0.5,2-0.8,4.1-1,6.4l-24.9,238.7l106.9-180c6.4-10.8,10.8-23.7,16.2-35.4c5.4-11.7,11.9-22.1,21.8-27.6l-5.1,1.2
						c-9.2-13-3.1-13.3,5.2-12.4c4.2,0.4,8.8,1.1,12.5,0.5c3.6-0.6,6.2-2.5,6.3-7.4c-0.9,3.7,8.1,16.2,6.4,12.9
						c4-1.5,7.3-4.1,10.3-7.1c1.5-1.6,2.9-3.3,4.2-5.2c1.4-1.9,2.7-3.9,4-6.1c5.3-8.6,10.6-19.5,18.6-30.6l1.9,8.6
						c1.8,0.1,3.5,0,5.4-0.5L881.4,613c0.1,4.4,1.6,8.6,2.8,12.7c1.2,4.1,2.2,8.2,1.5,11.7c4.3,0,6.3,1.3,8.7,1.9
						c2.3,0.6,5,0.6,10.5-2.2c-7.1,6.9-11.1,11.7-12.8,15.9c-1.7,4.2-1.2,8,0.1,12.2l27.9,86l34.3-53.6c2.5-3.9,4.5-8.5,6.8-13
						c1.1-2.3,2.3-4.5,3.6-6.7c0.6-1.1,1.3-2.1,2-3.1c0.7-1,1.5-2,2.2-2.9c6.2-7.3,15-11.2,28.9-4.9c-2.9,1.7-3.3,10.2-1,8.9
						c5.5-6.1,11.3-12.1,17.4-18c-4-5.7-5.7-7.2-7.6-8.2c-1.9-1-3.9-1.4-8.8-4.9c-0.5-4.4,0.1-8.8,1.6-12.5c1.5-3.7,3.9-6.7,6.7-8.1
						c-3.2,6.7-0.6,11.7,3.6,15.5c4.2,3.9,10.2,6.8,14,9.2c-2.6-3.5-3.1-8.4-5.3-12.1c11.2,8.3,8.7,1.8,6.4-5.9
						c-1.1-3.9-2.3-8-1.6-10.8c0.7-2.7,3.1-4.1,9-2.1l2,7c1.7-2.2,3-5,4.4-7.8l-9.5-0.8c2.7-0.4,5.4-0.8,7.9-0.5
						c2.4,0.3,4.6,1.2,6,3.2c-1.9,3.6-3.6,5.4-5,6.4c-1.4,1-2.7,1.1-3.9,1.1c-1.3,0-2.5-0.1-4,0.5c-1.5,0.6-3.1,1.8-5.1,4.4
						c1.9,1,4.7,0.6,8-0.1c1.7-0.4,3.5-0.8,5.2-1.3c1.8-0.4,3.6-0.8,5.3-1c1.7-0.2,3.4-0.3,4.9-0.2c1.5,0.1,2.7,0.5,3.7,1.2
						c1,0.7,1.5,1.7,1.6,2.9c0,1.3-0.3,2.9-1.5,4.8c-1.4-0.1-2.7-0.4-3.8-0.8c-1.2-0.4-2.2-0.8-3.4-1.2c-2.2-0.9-4.6-1.6-7.3-1.1
						c-0.9,2.4-1.7,4.4-2.4,6.1c-0.7,1.5-1.3,2.9-1.8,4.1c-0.5,1.1-0.9,2-1.2,2.7c-0.3,0.7-0.5,1.3-0.6,1.7
						c-0.2,0.9-0.3,1.4-0.2,1.9c0,0.2,0,0.5,0,0.8c0,0.3-0.2,0.6-0.4,0.9l0.3-0.3l-0.3,0.4l-0.4,0.4c-0.3,0.2-0.5,0.4-0.8,0.6
						l-0.4,0.2c0.4-0.2,0.8-0.3,1.1-0.4c0.6-0.3,1.3-0.5,2-0.7l59.9,19.7c3-0.5,5.9-1,8.9-1.4c-2-0.6-4.1-1.1-6.1-1.6
						c-2.3-4.9-3.7-8.9-4.5-12.3c-0.8-3.4-0.9-6.1-0.6-8.2c0.3-2.2,1.1-3.9,2.1-5.3c1-1.4,2.3-2.5,3.7-3.5c1.4-1,2.9-1.9,4.3-3
						c1.5-1.1,2.8-2.3,4.1-3.9c1.3-1.6,2.3-3.5,3.1-6.1c0.8-2.6,1.3-5.7,1.4-9.8c-0.3,7.8,0,12.4,0.7,15.5c0.7,3,1.7,4.3,2.9,5.2
						c2.5,1.7,6,1.7,10.2,9.7c3.1,1.1,6.6,2.1,9.5,3.5c2.9,1.4,5.2,3.2,5.7,5.8c-0.5-8.2,3.7-7.2,7.7-7.1c2,0,4-0.1,5.5-1.7
						c0.7-0.8,1.3-2,1.7-3.8c0.4-1.7,0.7-4,0.7-7c1.5,2.5,3.4,1.7,5.5,2c2.1,0.3,4.5,1.8,7,8.8c3.4-4.2,1.8-6.2-1-8.1
						c-2.8-1.9-6.8-3.5-8-7c2-9.3,8.8-10.8,16.9-10.6c2,0.1,4.1,0.2,6.2,0.3c2.1,0.2,4.3,0.3,6.4,0.4c1.1,0,2,0.1,2.6,0.2
						c0.7,0.1,1.3,0.2,1.9,0.3c1.2,0.1,2.3,0,3.3-0.5h0c2.3,1.7,3.8,1.3,5.3-1.8c3.4-0.2,5.6-2,7.8-2.8c1.1-0.4,2.3-0.4,3.4,0.4
						c0.6,0.4,1.2,1,1.7,1.9c0.3,0.5,0.5,1,0.8,1.6c0.1,0.2,0.1,0.3,0.2,0.5c0,0.1,0.1,0.2,0.1,0.2l0.1,0c0.2,0.1,0.3,0.1,0.5,0.2
						l0,0c0.3-1,0.9-2.3,1.5-3.5c0.2,0.6,0.3,1.3,0.3,2c0,0.1,0,0.2,0,0.3c0,0.1,0,0.1,0,0.1c0,0,0,0.1,0.1,0.2c0,0.1,0,0.3,0,0.4
						c0,0.6-0.2,1.5-0.5,2.5c-0.7,2-1.7,4.6-2.5,6.6l0,0c-0.4-0.3-0.7-0.7-0.7-0.7c0.1,1.3,0.2,2.6,0.3,3.7v0c1.7-1.6,3.7-3.2,6-5.5
						c2.3-2.3,5.1-5.3,8.8-9.2c-2.6,4.2-2.2,5.9-2.3,9.3c2.4-1.8,4.8-5.9,7.3-9.3c1.2-1.7,2.5-3.3,3.6-4.2c1.2-0.9,2.4-1.4,3.3-0.6
						c-2,2.7-4.4,6.2-6.8,9.6c-2.4,3.5-4.8,6.9-6.8,9.7c3.1-3,7.2-7.2,11.9-11.5c2.4-2.2,4.9-4.3,7.4-6.4c1.3-1,2.6-2,3.9-3l1-0.7
						c0.2-0.2,0.3-0.1,0.4-0.1l0.4,0c0.6,0,1.1,0,1.7,0c-2.4,4.7-5.6,7-8.7,8.9c-0.1,0.1-0.2,0.1-0.3,0.2l-0.3,0.3
						c-0.2,0.2-0.4,0.4-0.6,0.6c-0.4,0.4-0.8,0.8-1.2,1.2c-0.8,0.8-1.6,1.6-2.4,2.3c-1.6,1.5-3,3-4.3,4.5c1-0.7,2-1.5,3.1-2.2
						c0.6-0.4,1.1-0.8,1.7-1.2c0.5,0,1,0.1,1.6,0.1c1.1,0.1,2.2,0.1,3.4,0.1l0.9,0c0.1,0,0.4,0,0.6,0.1l0.7,0.2
						c0.9,0.2,1.8,0.4,2.6,0.5c7.1,1.2,14.4,0.7,21-4.2l-1.5-9c3.5,2-7.6,11.8-11.7,12.1c-3.8,0.8-6.2,0.4-7.5-0.7
						c-0.6-0.6-1-1.3-1.2-2.2c0-0.7,0.2-1.6,0.5-2.5c1.3-3.8,4.3-9.2,6-11.6c1.1,0.1,2.2,0.2,3.3,0.4l1.7,0.2l0.4,0.1l0.5,0.1l1,0.2
						c1.1-1.9,1.9-3.6,2.6-5.2c0.7-1.5,1.1-2.9,1.4-4.1c0.5-2.5,0.3-4.4-0.5-5.8c-0.4-0.7-0.9-1.4-1.6-1.8c-0.8,0.3-1.7,0.8-2.7,1.3
						c-2,1.1-4.3,2.6-6.7,4.4c-4.8,3.5-9.8,7.8-14,11.4c-4.2,3.6-7.5,6.5-9.8,7.5c3.8-6.4,8-13,12.6-19.8
						c-6.8,7.2-12.6,14.1-17.4,20.8c-0.3-1.3-0.2-3.8,0.6-6.6c0.1-0.4,0.2-0.7,0.4-1.1c0.1-0.3,0.3-0.7,0.5-1.3
						c0.5-1.2,1-2.4,1.6-3.5c1.2-2.3,2.7-4.3,4.5-5.9c-1.1-1.8-2.3-2.2-3.6-1.6c-1.2,0.6-2.5,2.1-3.6,3.7c-1.1,1.6-2.2,3.1-3.1,3.7
						c-0.5,0.3-0.9,0.2-1.4-0.2c-0.4-0.5-0.8-1.4-1.3-3c-0.2-2.2,0.3-4,1.3-5.5c-1.1,1.4-2,2.9-3,4.5c-1,1.6-1.8,3.2-2.7,4.9l0,0
						l-1.4,0.3c0.6-2.5,1.2-8.2,1.7-12.5c0.5-4.3,1-7.2,1.8-4.1l0,0c0.2,0.1,0.4,0.2,0.7,0.4c-0.2-0.3-0.5-0.5-0.6-0.8l0,0
						c-1-8.1-3.4-12-5.6-13.6c-2.3-1.7-4.5-1.2-6.4-0.7c-0.5,0.1-0.9,0.3-1.4,0.3c-0.5,0.1-0.9,0.2-1.3,0.2c-0.4,0-0.8,0-1.2-0.2
						c-0.4-0.1-0.8-0.3-1.2-0.6c-1.6-1.3-3.2-4.4-5.1-10.9l1-1c-1.2-0.3-2.2-0.3-3.1-0.4c-0.9,0-1.6,0.1-2.3,0.3c-1.3,0.4-2,1-2.5,2
						c-0.8,1.9-0.3,4.8,0.4,8.3c0.7,3.5,1.7,7.6,1.9,11.5c0,1.5-0.1,2.9-0.5,4.2c-0.4,1.3-1,2.6-1.8,3.8c-1.6-4.3-3.3-8.6-5.1-13
						l-2.8-6.7c-1-2.3-1.9-4.5-2.9-6.7l0,0c-4-6.1-8.3-12-13.1-17.8c1.1,6.1,2.3,12.2,3.6,18.3c-3,0.5-8.1,1.2-10.1-5.9
						c-2,7.7-0.8,9.3,0.8,10.7c1.6,1.4,3.6,2.5,3.4,9c-4.4-2.6-8.4-2.6-12.1-1.5c-3.6,1.1-7,3.3-10.2,5c-6.4,3.5-12.3,5.2-20.2-7.2
						c1.2,7.2,5.1,8.2,7.7,9.3c2.6,1.1,4,2.2,0.4,9.5c-8.8-13.1-11.7-10.1-14.3-4.7c-1.3,2.7-2.5,5.9-4.4,8.1
						c-1.9,2.2-4.5,3.2-8.8,1.6c-5.3-15.7,8.9-14-8.7-20.5c1.9,6.8,1.5,10.6-0.4,12.7c-0.9,1-2.2,1.6-3.7,1.9
						c-1.5,0.3-3.3,0.4-5.1,0.3c-3.7-0.2-8-0.7-11.7-0.6c-3.7,0.1-6.8,1-8.1,3.5c8.8,13.1-1.6,17.6-11.2,26.3l34.2,9.7
						c-2.3-6.7-6.1-12.7-11.1-16.3c0.7-0.3,1.1-1,1.3-1.9c0.2-1,0.1-2.2-0.3-3.7c-0.6-3-2.3-6.8-4.6-10.9c-2.3-4.1-5.3-8.3-8.6-12.5
						c-3.2-4.1-6.7-8.1-9.9-11.8l-4.2-4.8l-27.8,2.2c-4,0.3-7.8,0.4-11.1,0.3l-1.1-3.5c3.1,10.7,0.7,16.6-3.5,21.1
						c-2.1,2.2-4.6,4.1-7.2,6c-2.5,1.9-5.1,3.8-7.1,6.1c-5.5-12-6-17.6-2.9-25.7c-3.3,1.6-6.6,3.3-9.9,5c0.9,7.5-0.5,12.3-5.5,17.9
						c-1.8-5.3-3.6-10.6-5.3-15.8c-6.4,4-10.7,11.8-15.9,18.8c-5.2,7-11.3,13-22.5,14c3.9,6.6,13.1,13.4,19.7,21
						c3.3,3.8,6.1,7.8,7.4,12c1.4,4.2,1.3,8.6-0.9,13.2c-5.3-6.4-14.2-17.6-12-23.3c-0.8,1.9-0.8,9-5.5,8
						c-0.7-5.3-1.3-10.6-1.8-15.9c-5.3-0.1-4.5,3-3.2,6.4c1.3,3.4,3.2,7.1,0.2,8.6c-7-9.6-9.1-3.7-14-11.7c0.4-1,2.3-1,4.1-1.3
						c1.8-0.3,3.4-1.1,3.1-3.8c-1.7,0.7-3.6,1.2-5.6,1.5c-2,0.4-4.2,0.6-6.4,0.7c-4.4,0.1-8.9-0.4-12.9-2.1l72.8,37.9
						c1-0.9,2.1-1.4,3.1-1.8c-3.4,0.2-7.4-0.1-10.6-1.3c-3.3-1.2-5.8-3.2-6.5-6.5c-0.3-8.5,3-10.1,7.4-11c2.2-0.4,4.6-0.6,6.8-1.4
						c2.2-0.8,4.3-2.2,5.5-5.2c-2.2-1-3.3-2.5-4.1-4.2c-0.8-1.7-1.4-3.6-2.2-5.3c-1.6-3.4-4.5-6-13.2-4.5c-0.4-2.5,1.3-4.4,3.7-6.1
						c2.4-1.7,5.4-3.2,7.5-4.8c-1.2-0.9-2.4-2.3-3.4-3.9c-1.1-1.6-2.2-3.5-3.2-5.4c-1-1.9-2.1-4-3.2-6c-1.1-2-2.3-3.9-3.4-5.6
						c-1.2-1.7-2.4-3.2-3.7-4.4c-1.3-1.2-2.6-2-4-2.3c-2.8-0.7-5.7,0.6-9,4.6l-0.3,2.4c-0.5-0.2-0.7-0.6-1.3-0.9c0,0.1,0,0,0,0.1
						l0-0.1c-5.1-3.3-8.9-6.9-11.8-11.1l-12.1-17.2L904,581c-7.5,6.5-17.9,9.1-27.9,12.5c-5,1.6-9.9,3.5-14.4,6
						c-2.2,1.2-4.2,2.7-6.1,4.3c-1.9,1.6-3.6,3.4-5,5.6l-3.7-4.7c-1.8,3.6-4.1,6.8-6.4,9.9c-2.4,3.1-4.9,6.1-7.1,9.2
						c-1.1,1.5-2.2,3.1-3.2,4.7c-0.9,1.6-1.8,3.2-2.5,4.9c-1.4,3.4-2.1,7-1.9,11c-1.5,1.4-5.2,1-8.8-0.5c-3.7-1.5-7.4-4.1-9.1-7.4
						c-2.5,5.3-2.8,9.4-4.8,12.5c-2,3.2-5.5,5.4-14.5,7.2c0.7-14.9-9-4.1,2.9-13.1c-6.9,2.9-12.5,3.3-16.4,5.6
						c-3.9,2.3-6,6.7-5.6,17.6c-4.5-9.3-11.9-9.3-16.9-6l85.3,61.1c2.1-3.2,3.3-7.1,3-10.3c-4.5,1.9-9,3.7-13.4,5.3l-66.8-47.9
						l1.1,0.1c-0.1,0.2-0.3,0.5-0.4,0.7l65.1,46.6c0.8-4.1,2.3-7.6,3.9-10.9c1.6-3.3,3.6-6.4,5.5-9.6c5.8,3.7,11.4,7.4,17,11.2
						c1.1-0.7,2.2-1.5,3.1-2.3c0.9-0.8,1.8-1.6,2.6-2.5c1.6-1.7,2.8-3.5,3.8-5.4c2-3.8,2.8-8,3.1-12.1c0.1-4.2-0.4-8.5-1.3-12.8
						c-1-4.3-2.2-8.4-3.4-12.5c-1.3-4.1-2.5-7.9-3.3-11.6c-0.9-3.7-1.2-7.2-0.8-10.6c0.4-3.4,1.6-6.6,4.1-9.7
						c2.4-3.1,6.1-6.2,11.4-9.3c-3.4-2.6-5.7-2.6-7.6-1.5c-1.9,1.1-3.4,3.4-4.9,5.7c-1.6,2.3-3.2,4.6-5.4,5.6
						c-2.3,1.1-5.1,0.9-8.9-1.4c1-3.7,3.6-7.3,6.8-10.8c3.2-3.6,7.2-7.1,11-10.5c3.7-3.4,7.4-6.6,10.1-9.3c2.6-2.7,4.3-4.9,4.3-6.2
						c2.3-5.3,1.8-9.3,0-12.4c-0.9-1.6-2.1-2.9-3.6-4.1c-1.5-1.2-3.2-2.2-5-3.2c-3.6-2-7.5-3.7-10.8-5.9c-3.4-2.1-6.1-4.7-7.2-8.4
						l-23.2-78l-47.3,52.9c-1.1,1.2-2.6,2.2-4.8,2.9c6.4,3.9,20.3,17.1,14,31.1c-11.5,6.2-31.3-12.8-28.7-22.4c2-2.4,4.6-1.6,6,0.3
						c1.5-4.6,3.7-10.5-5.1-13.1l3.3,6.5c-9.5-1.5-22.6,10.4-26.9-1.2c-3.1,11.4,4.3,11.6,12.2,9.8c-19.3,2.6-19.9,16.3-37.4,21.8
						c4.6,1.3,11.9,6.1,9.7,7.8c-24.7,9.2,0.3,17.4-10.7,30.6c-14.3-2.2-14-22.1-21.2-4.2c-12.7,1-13.8-13.1-14.4-20.2
						c-3.1,20.4-27.9,11.6-36.3,15.3l2.6-9.6c-1.5,5.7-4.7,8.2-7.8,10.8l12.7,7.9c-5.3,1.2-8.4,3.7-12.1-0.9
						c2.2,10.3,18.1,15.8,18.8,31.8c-9.5-1.5-9.9,18.4-23.7,5.3c19.5-7.9-13.9-13.1-2.8-26.4c-1.1,3.8-4.2,6.3-9.5,7.5
						c-1.9-1.2-2-3.4-1.7-5.1c-25.5-0.7,6.9,22.1-8.6,34.5c-4.9-9.8-16.5-12.5-17.5-8.7c6.3-5,14.3,11.2,13.9,22.1
						c-15.1,1.8-6.7,13.6-12.4,17.2l8.3-1.9c4.8,9.8-0.9,12.8-5.6,21.1c-5.9-5.9,2.5-9.6-2.2-10.3c4.4,20.7-29.5-0.6-32,17.9
						c-9.5-1.4-13.3-15-20.7-15.1c-1.2,8.1-4.9,9.7-9.3,9.9l112.3,78.4c5.6-3.6,14.3-5.1,11.1-16.7c-15-0.4-12,1.5-21.3-13.9
						l0.5,27.1l-95.9-67l0.7-1.2l0,2l94.2,65.8l-12.8-21.4c-2,5,0,11.9,0.3,16.9l-73.2-51.1c1.2-2.3,2.5-3.9,4.2-4.3
						c0.6,6.6,0.5,9.4,1.5,11.1l59.2,41.3c-0.5-0.5-1.1-0.8-1.9-0.7l-56-39.1c1.1,1.3,3.4,2.4,7.4,5c-1.7-0.7-3.2-1.2-4.5-1.5
						l48.8,34.1c15.3-5.3-7.7-24.3,8.9-30.8l33.2,12.3c21.3-12.7-5.7-38.1,11.1-58.5l-8.5,5.4c-12.1-7.9,3.3-15.1,0.7-24.6
						c10.9,4.7,16.7,1.4,24.7,0.7c-8.4-2.6,6.9-16.8-14.6-26.9c6.1-1.7,12.3-3.4,18.4-5.2c3.2-4.2,3.4-8.8,2-13.3
						c-0.7-2.3-1.8-4.5-3.2-6.7c-1.3-2.3-2.9-4.5-4.5-6.7c-3.2-4.4-6.5-8.8-8.5-13.3c-1-2.2-1.7-4.6-1.8-7c-0.1-1.2,0-2.5,0.2-3.7
						c0.1-0.6,0.2-1.3,0.4-1.9c0.2-0.7,0.4-1.4,0.6-2.1c5.7,4.7,11,4.9,15.8,6.1c2.4,0.6,4.6,1.4,6.5,3.3c1,1,1.9,2.2,2.7,3.8
						c0.8,1.6,1.5,3.5,2.1,5.9c0.3-1.1,0.6-2.1,0.9-3.1c0.3-1,0.6-2,0.9-3c0.5-2,0.9-3.8,1-5.4c0.1-3.4-1-5.7-5-6.4
						c2.1-1,2.3-3.4,1.7-6.4c-0.3-1.5-0.9-3.2-1.5-4.9c-0.3-0.9-0.7-1.8-1-2.7c-0.4-0.9-0.8-1.8-1.2-2.8c-0.8-1.9-1.5-3.7-2.2-5.5
						c-0.7-1.8-1.2-3.6-1.5-5.3c-0.3-1.7-0.4-3.3,0-4.9c0.4-1.5,1.1-3,2.4-4.3c-2.8-1.9-7.1-2.8-10.9-4.4l-62.9-26.2l1.4,3.8
						c1.4,3.8,1.9,7.5-1.3,9.6c-2.2-1.2-3.9-4.4-3.9-4.4c3.9,4.4-3.2,13.6,10.3,19.1c-19.8-7-29.9,3.2-39,13.7
						c-4.5,5.3-8.9,10.6-14.3,14c-5.3,3.4-11.8,4.9-20.5,2.4c-7.5,13.1-16.8,28.3-25.1,38.5c-2-3-4.3-4.1-1.7-5
						c-5.1,1.4-6.6,4.1-6.3,7.5c0.3,3.3,2.4,7.2,4.5,11.2c2,3.9,4,7.9,4.1,11.3c0.1,3.4-1.8,6.3-7.5,8c-21.3-4.9-0.5-15-10.3-15
						c-15.5-11.9-18.8-6.3-21.3,1.7c-1.3,4-2.4,8.6-4.8,12c-2.4,3.4-6.1,5.5-12.8,4.5l0.4-4.1c-8.6-0.1-10,7.4-10.8,16.3
						c-0.4,4.5-0.6,9.3-1.6,13.8c-1,4.5-2.6,8.6-5.8,11.6c0,0-2.2-2.8-4.6-3.7c2.1,5.3,3.1,10.6,3.5,15.8c0.4,5.3,0.1,10.4-0.7,15.4
						l51,27.6c-1.5-10-1-20-0.5-28.6c12.3,10.3,4.8,9.6,20.3,12.7c0.3-3.6-5.7-5.5-11.6-8.3c-5.9-2.8-11.7-6.5-11-13.9
						c9.5-1.1,20.2-7.6,35.9-2.3l-4.3,12.4c11.2,1,12.6-2.8,12.1-7.7c-0.6-4.8-3-10.6,0.1-13l8.2,4.6c2.6-9.7-1.3-17-4.5-24.4
						c-1.6-3.7-3.1-7.4-3.5-11.3c-0.3-3.9,0.4-8.1,3.2-12.9l-7.4-1.1c-7.9-10.6-3.7-11.4,1-11.8c4.7-0.5,10.1-0.5,5.1-9.8L561,638
						c-0.7-4.8-2.6-13.5-3.9-22.9c-1.2-9.4-1.9-19.5-0.3-26.9c2.8,3.9,4.9,8,6.6,12.2c1.7,4.2,2.9,8.4,3.9,12.6
						c1,4.2,1.8,8.3,2.6,12.2c0.8,3.9,1.7,7.7,2.9,11.1c0.9-1.7,2.1-4,3.1-6.7c1-2.7,2.1-5.7,2.7-8.8c1.2-6.2,0.9-12.8-3.1-17.4
						c0.4,3.8,3.7,10.1-1,11c-2.9-4.3-5.3-8.5-7-12.7c-1.7-4.1-2.7-8.1-3.1-12c-0.4-3.9-0.2-7.7,0.6-11.3c0.9-3.6,2.3-7.1,4.4-10.5
						c9.5,6.4,16.2,7.8,21.4,6.4c5.2-1.4,9-5.4,12.8-10.1c7.5-9.2,15.1-20.6,33.1-15.5c0.1-4.7,0.9-9,2.3-12.8
						c1.5-3.9,3.5-7.3,5.9-10.6c1.2-1.6,2.5-3.2,3.9-4.7c1.4-1.5,2.9-3,4.5-4.4c3.1-2.9,6.4-5.7,9.8-8.5l-104.8-77.3
						c-10,7.5-20.3,15.4-27.7,26.7c35.4,12.7-5.1,8.2,25.1,29.1c-2.9,7.5-5.1,9.5-7.4,8.5l-31.6,4.9c-11.8-2.2-1.9-10.7-8.8-15.2
						c-12.6,11.6-16.6-4-31.1-1.2c11.8,6.3,11.2,16.2,1.4,20.7l21.7-0.3c1,30.6-36.8-2.9-36.1,27.7l-4.5-13
						c-2.1,13.8-27.7,35.3-11.8,62.8c-4.7-0.9-14.3-4.8-13.1-10.7c-21.3,20.2-15,70.3-43.2,77l-5.7-7.2c-1.3,5.9,7.5,17.8-3.8,17.6
						c-2.7-2.6-5.7-7.2-7.7-5.6c0.7,4.2,3.6,21-5,23.5l-4.2-11c-26.7,15.2-7.3,49.5-17.1,72c-2.9-2.2-5.7-3.9-8.6-5.1l95.3,31.6
						c9.4-2.2,15.9-6.9,20.4-11.7c1.2-1.2,2.1-2.4,3.1-3.7c1-1.3,1.9-2.5,2.7-3.7c1.6-2.4,2.8-4.6,3.8-6.5l3.7,0.5
						c0.5-3.1,0.9-6.3,0.8-9.4c-0.1-3.1-0.6-6.1-1.3-9.1c-0.6-3.1-1.5-6.1-2.6-9.2c-0.5-1.5-1.1-3.1-1.8-4.6
						c-0.6-1.6-1.2-3.2-1.8-4.7c-2.5-6.3-5.6-12.8-7.8-19.7c-1.2-3.4-2.3-6.9-3.3-10.4c-0.9-3.6-1.5-7.2-2-10.9
						c4-1.2,7.4-3,10.3-5.1c3-2.2,5.5-4.7,7.7-7.6c4.3-5.7,7.7-12.8,10.6-20.2c6.2-14.9,11.7-31.8,24.3-42.7
						c-6,2.5-19.1-7.6-19.8-13.5c3.7-2.3,1.1-8.4,0.3-12.7c-0.8-4.3,0.3-6.9,11.5-2.1l-1.3,2.1c12,1.7,17.8-1.3,21.2-6
						c1.7-2.4,2.8-5.1,3.7-8c1-2.9,1.8-5.8,3-8.3l-28.9-13.2c14-2.8,21.6-9.6,25.9-18.1l148.1-288.7L404.6,431.8
						c-5.3,4.4-9.5,10.3-13.2,16.3c-3.7,6.1-6.9,12.4-10.4,17.8c-3.5,5.4-7.3,9.9-12.1,12.2c-4.8,2.4-10.7,2.6-18.4-0.3
						c0.7,10.9-5.8,17.6-4.9,28.4l-12.2-11.8c-8.6,6.2-15.1,10.8-21.2,16.7c-3,2.9-6,6.2-9,10c-3.1,3.9-6.2,8.4-9.7,13.9l-5.6-12
						c-5.2,5.1,0.9,16.6,7.5,28.2c6.5,11.6,13.4,23.1,9.5,28.4l-21.9-13.4c-4,4.9-9.1,8.9-14.5,12.6c-5.4,3.8-11,7.4-16,11.5
						c-5.1,4-9.5,8.6-12.6,14.3c-1.5,2.8-2.7,5.9-3.5,9.4c-0.7,3.5-1,7.3-0.6,11.5c-2.7-2.6-8-7.8-6.2-11.6
						c-4,4.5-14.6,10.9-20.3,18.6c-5.8,7.7-6.6,16.4,8.5,25.2c-9.1-6.7-13.5-1.8-15.6,6.9c-2.1,8.7-1.8,21.2-1.8,29.6l-12.3-11.5
						c8.6,18,13.3,23.7,12,34.5l62,46.3c0.1-2,0.7-4.6,1.7-7.5c4.1-1.8,12.7,5.4,6.1,7c7.5-2.5,5.9-7,4.5-11.7
						c-0.7-2.3-1.4-4.7-0.9-7c0.5-2.3,2.3-4.4,6.4-6.3c1.8,3.7,3.5,7.4,5.2,11.1c9-10.3,3.7-12.8-2.4-25.9c-0.2-2.7,0.8-5.2,2.6-7.3
						c1.8-2.2,4.4-4,7.5-5.3c1.5-0.7,3.2-1.2,5-1.5c1.7-0.4,3.5-0.6,5.3-0.7c3.6-0.1,7.4,0.5,10.9,2c-3.4-3.2-6.8-8-8.4-12.5
						c-1.6-4.6-1.4-8.8,2.5-11.1c5.5,1.9,7.1,6.2,7.8,8.3c1.3-0.9,2.5-1.8,3.5-2.8c1-1,1.9-2,2.6-3c1.5-2.1,2.5-4.3,3.1-6.5
						c1.3-4.5,1.1-9.2,1-13.5c-0.3-8.8-0.6-16.2,10.1-19.9c5.2,2,8.1,2.2,10.2,1.7c-2.1,4.2-4.1,8.2-6,11.7
						c-1.9,3.5-3.7,6.6-5.2,9.1c-3.1,5-5.2,7.7-5.4,6.8c6.8,3.6,12.6,2.4,18.3,2.8c5.7,0.4,11.5,2.3,18,12.9
						c-0.5-2.1-1.2-4.4-1.9-6.9c-0.8-2.5-1.6-5.1-2.4-7.8c-1.7-5.4-3.3-11-4.6-16.4c-0.6-2.7-1.1-5.4-1.4-7.9
						c-0.3-2.5-0.4-5-0.3-7.2c0.2-2.3,0.6-4.3,1.4-6.2c0.8-1.9,1.9-3.5,3.4-4.9c1.7-0.1,3.3-0.2,5.7,0.2l1,2.1
						c2.7-2.7,2.7-6.1,1.3-9.8c4.1-3.6,7-5.8,8.8-10.2c5.5,1.1,8.6-1.6,10.6-5.6c2-4,2.7-9.4,3.8-13.6l144-574.4L256.3,536.5
						c-0.5,0.9-1,1.8-1.5,2.4c14.4,8.8,7.4,14.4,23.5,15.4c-1.2,0.2-1.2-1.2-0.2-3.7L408.6,201l-41.7,391.4
						c-0.1,0.9-0.3,1.9-0.5,3.1c0.1,1.2,0,2.6,0.7,3.6c-0.4-0.3-0.8-0.6-1.3-0.9c-1,4.9-2.8,11.2-5.1,18.2c-3-4.3-5.7-8.5-6.2-12.1
						c-0.5-3.7,1.1-6.9,6.8-9.4c-3.5-2.6-7-5.3-10.4-7.4l-69.1-41.9l10,14.2c3.9,5.5,7.5,10.2,9.4,13.1c-24.7-5.3-44.9,1.9-58.2-4.4
						c-3.4,21.8-21.9,42.3-3.7,71.2c-0.1,7.1-11.3,0.1-16.6-1c-0.6-4.6,2.1-7.5-0.5-11.7c-0.1,14.2-17.6,29.7-1.4,45
						c-16.8,6-11.6-18.7-20.6-0.2l-3.8-6.2c-11.7,2.5-17.8,8.3-20.9,15.8l103.9,40.6c-0.4-3.8-1.5-7.6-3-11.4
						c-1.5-3.8-3.5-7.5-5.6-11.2c-4.3-7.4-9.3-14.6-13.1-21.9c-1.9-3.6-3.5-7.3-4.6-10.9c-1.1-3.7-1.6-7.4-1.4-11.3
						c0.2-3.9,1.2-7.9,3.2-12.1c2-4.2,4.9-8.7,9.1-13.5c-2.7,3.4-3.9,5.1-7.6,5.9c5.6-16.6,4.9-33.6,1.7-50.2
						c-3.2-16.6-8.9-32.8-13.3-48.9l-17.1-61.9l-37.2,46.9c-6.6,8.3-13.6,16.1-21.6,23c-2,1.7-4.1,3.4-6.3,5
						c-2.2,1.6-4.4,3.2-6.8,4.6c-4.8,2.9-9.8,5.6-15.5,7.9c-3.6,2.1-5.6,4.4-6.6,6.7c-1,2.3-0.9,4.8-0.2,7.4
						c1.3,5.2,4.9,11,6.7,17.8c-5.6-2.5-11.2-5-16.8-7.4c1.4,4.2,2.8,8.3,4.3,12.4c1.5,4.1,3,8.2,4.6,12.2c0.3,6.7-3,10.6-8.2,13.4
						c-2.6,1.4-5.6,2.6-8.8,3.7c-3.2,1.1-6.7,2.2-9.9,3.4c-3.3,1.2-6.6,2.6-9.5,4.2c-2.9,1.7-5.5,3.7-7.4,6.1c-1,1.2-1.8,2.6-2.4,4
						c-0.6,1.5-1,3.1-1.2,4.9c-0.4,3.5,0.2,7.6,2.1,12.4c4.2,0.5,8.4,1,12.6,1.5c-1.7,2.3-3,5.9-4.1,9.7c-1.1,3.8-2,7.7-3.3,10.9
						l48.9,9.6c0.2-5.2,1.8-8.9,8-8c-2.2-1-12.6-3.4-6.2-7l9.5-0.1l-15.8-23.8c7.2-18,37.6,3.6,40-22.9l-119.1-1.2l0,0l0,0l0,0l0,0
						c3.6,9.9,27.6,28.1,33.9,24.4c0.5-4,5.9-10.2,15.4-10.5l4.9,9c27.9,1.6,56.5,8.6,76.1-13.6l-10.4-9.4l-120.8-1.2l6.6,6.2
						l-13.6,4.7l-0.5-11l135.9,1.4l0.1,2c1.2-0.7,2.2-1.3,2.9-2L46,630.8c-7.9,6.1,2,10.6,8.9,15.5c-7.2,1.1-12.3,3.2-15.1,6.2
						l26.4,15.7c-11,1.6-21.5-7.2-27.8,2.8c12.2,7.3,24.6-6.3,32.5,5.6c-12.8,7.1-23.1,4.8-12.5,13.6c-7.2,1.1-11.8-0.9-14.9-4.3
						c2.4,2.2,3.7,4.8,4.7,7.5L201.4,1120L178.7,719c-0.2-3,0.2-6-0.5-9c-0.6-3-2.3-6.1-6.7-9.3c4.2,0.1,6.7-1.2,8.4-3.1
						c1.7-1.8,2.6-4.2,3.8-6.2c2.4-4,5.5-6.6,17.1-0.2c-2.3-2.3-5.6-7.2-8-12.4c-2.4-5.1-3.8-10.5-2.7-13.5
						c5.5,6.4,9.1,8.3,11.7,8.1c2.6-0.3,4.5-2.7,6.5-5.3c2-2.6,4.3-5.4,7.7-6.3c3.4-0.8,8,0.3,14.8,5.6c-4.9-5.5-7-10.2-7.4-14.6
						c-0.4-4.3,0.9-8.2,2.6-12.1c3.6-7.6,9-14.9,7.6-25.7c1.2,2.1,3.8,6.2,1.8,6.3c3.6-2.6,7.4-3,11.3-2.8c3.9,0.2,7.8,0.9,11.6,0.6
						c-8.7-7.9-12-15.3-13.7-22.6c-0.9-3.7-1.4-7.3-2-11c-0.6-3.7-1.4-7.4-2.8-11.2c12.1,3.5,16,9.5,19.4,15.9
						c3.4,6.4,6.1,13.3,15.3,19.4c-7.3-6.1-7.9-12.6-8.3-18.7l-121.4-33.4c5.1,3.1,9.7,6.1,17.1,2.8c-6.1,5.3-7.5,7.3-9.6,8.9
						c-2.1,1.6-5,2.9-14.3,6.5c14.6-1.8,16.2-0.2,16.4,2.3c0.2,2.5-0.8,5.8,8.5,7.8c-6.4,6.8-13.1,8.3-16.9,9.7
						c-3.8,1.4-4.7,2.4,0.4,8c-4.1,3.4-9.1,2.6-13,1.1C129.2,602.9,126.4,600.7,126.4,600.7z M263.5,600.3c-0.1-0.1-0.3-0.1-0.3-0.1
						c0.6-2.6,1.2-4.8,1.5-6.1C264.4,595.3,264,597.1,263.5,600.3z M253,623.7c1-1.3,2-2.7,2.9-4.4c0.9-1.7,1.7-3.5,2.6-5.4
						c5.7,1.6,10.7,5,9.3,7.3C264.8,618.3,259.2,622.4,253,623.7z M384.6,611.2c0.5,5.8-3.2,6.4-6.7,5.9c0.5-2.4,1-5.3,1.1-9.3
						c-0.6-0.3-1.1-0.9-1.8-1.2C380.1,608,382.8,609.5,384.6,611.2z"/>
					<path class="st0" d="M366.4,595.5c-0.1-0.8-0.7-1.4-0.5-2.3c-1.7,0.5-3.2,1.1-4.5,1.7c1.5,1.1,3,2.3,4.5,3.3
						C366,597.3,366.3,596.3,366.4,595.5z"/>
					<path class="st0" d="M942,596.8l0.1-0.8c-0.4,0.8-0.8,1.6-1.6,2.3C941,597.6,941.5,597.4,942,596.8z"/>
					<polygon class="st0" points="464.6,578.4 461.5,575.5 462.6,579.8 					"/>
					<path class="st0" d="M1023.9,648.9c0.9,1.2,2.1,2.4,3.6,3C1026.9,651,1025.5,650,1023.9,648.9z"/>
					<path class="st0" d="M1031.1,653c-0.3,0.3-0.6,0.5-1,0.8c-0.2,0.1-0.3,0.2-0.5,0.3l-0.6,0.3c0,0-0.1,0.1-0.1,0l0.3-0.1l0.5-0.2
						l0.5-0.2l0.4-0.2c0.6-0.2,1.2-0.4,1.8-0.6l60.7,20.6l2.1-0.1c-1-0.1-1.9-0.1-2.5-0.4l-50.1-23l-10.2,2.9
						c-0.8,0.2-1.6,0.5-2.2,0.8c-0.3,0.1-0.7,0.2-1,0.4c0.2-0.1,0.3-0.2,0.5-0.2c0.3-0.1,0.5-0.3,0.7-0.5
						C1030.8,653.3,1031,653.2,1031.1,653z"/>
					<path class="st0" d="M1125.8,654.7c-1.1-2.8-2.1-4.8-3-6.6c-0.1,0-0.1,0-0.1,0L1125.8,654.7z"/>
					<path class="st0" d="M667.4,766.2c-0.5,0.5-0.9,1.1-1.1,1.9C664.8,773.6,666.5,770.5,667.4,766.2z"/>
					<path class="st0" d="M784.8,575.5c-3.4-1.8-6.8-3.5-9-5.4C775.1,574,775.3,576.8,784.8,575.5z"/>
					<path class="st0" d="M559.9,562.7C559.9,562.7,559.9,562.7,559.9,562.7c0.6,0,1.1-0.1,1.7-0.1
						C561.1,562.6,560.5,562.7,559.9,562.7z"/>
					<path class="st0" d="M820.9,596.5c5.5-0.2,7.9-3.1,9-7.1l-54.1-19.3l0,0c0,0,0,0,0,0l54.1,19.3
						C826.4,590.8,822.1,592.2,820.9,596.5z"/>
					<path class="st0" d="M1242.8,642.6l1.4,2.2c0.7-0.9,1.4-1.5,2-1.8L1242.8,642.6z"/>
					<path class="st0" d="M1246.2,642.9l3.4,0.3C1248.7,642.4,1247.8,641.8,1246.2,642.9z"/>
					<path class="st0" d="M1256.8,643.9l-7.2-0.7C1251.1,644.6,1252.7,646.6,1256.8,643.9z"/>
					<path class="st0" d="M1214.4,642.9c-0.3,1.2-0.7,2.4-1,3.6C1213.7,645.7,1214,644.5,1214.4,642.9z"/>
					<path class="st0" d="M1209.6,641.5c0.1,0.5,0.3,1.2,0.4,2c0.1,0.8,0.2,1.7,0.3,2.6c0.1,0.9,0.2,1.8,0.2,2.8
						c0,0.8,0.1,1.7,0.1,2.6v0c0.5-0.2,1-0.7,1.9-2.2l0.7-2.8c-0.9,2.7-1.6,2.3-2.3,2.4v0c0-1-0.1-2-0.2-3.1c-0.1-1-0.2-2-0.3-2.8
						c-0.2-0.8-0.3-1.4-0.5-1.7C1210,641,1209.8,641,1209.6,641.5z"/>
					<path class="st0" d="M1132.2,567.3c6.3-1.2,12.5-2.2,18.7-3.2c-5.5-4.7-13.1-10.9-5.9-15.8c-7.3-2.1-10.5-2.4-11.2-1.5
						c-0.8,0.8,0.7,2.7,2.4,5.1C1139.6,556.7,1143.7,563.4,1132.2,567.3z"/>
					<path class="st0" d="M1076.3,587.3c3.6-4.1,2.4-6.1,0-7.5c-2.4-1.4-5.9-2.1-6.7-3.8c-1.3,4.3-2,7.1-1.2,8.7
						C1069.1,586.4,1071.4,587,1076.3,587.3z"/>
					<path class="st0" d="M801,634.8l-9.6-12C787.2,629.6,795.3,627.2,801,634.8z"/>
					<path class="st0" d="M760.6,662.8c-3.7,0.7-7.2,1.4-10.9,2c4,2.6,8,5.2,12,7.8l-0.4-4.9L760.6,662.8z"/>
					<path class="st0" d="M877.7,644.1l1.5,4.5c-0.5-2.8-1-5.6-1.5-8.4l-1.8-8.3C876.5,635.9,877.2,640,877.7,644.1z"/>
					<path class="st0" d="M543.2,553.8l14.8,11.9C559.3,559.8,545.3,543.8,543.2,553.8z"/>
					<path class="st0" d="M548,660c4.9,0.7,9.5,0.1,12.2-1.8c2.7-1.9,3.3-5,0.3-9.2c-2,2.4-5.3,4.2-8,5.8
						C549.7,656.5,547.6,658.1,548,660z"/>
					<polygon class="st0" points="518,518.6 521.9,526.2 520.9,514.3 					"/>
				</g>
			</g>
		</g>
	</g>
</g>
</svg>
