<?xml version="1.0" encoding="utf-8"?>
<!-- Generator: Adobe Illustrator 21.1.0, SVG Export Plug-In . SVG Version: 6.00 Build 0)  -->
<svg version="1.1" id="Layer_1" xmlns="http://www.w3.org/2000/svg" xmlns:xlink="http://www.w3.org/1999/xlink" x="0px" y="0px"
	 viewBox="0 0 749 747" style="enable-background:new 0 0 749 747;" xml:space="preserve">
<style type="text/css">
	.st0{opacity:0.52;}
	.st1{fill:#9B2A53;}
	.st2{fill:none;stroke:#E8EEEF;stroke-width:3;stroke-miterlimit:10;}
</style>
<g class="st0">
	<path d="M377.5,719.5c-92.4,0-179.3-36-244.7-101.3C67.5,552.8,31.5,465.9,31.5,373.5s36-179.3,101.3-244.7
		C198.2,63.5,285.1,27.5,377.5,27.5s179.3,36,244.7,101.3c65.4,65.4,101.3,152.2,101.3,244.7s-36,179.3-101.3,244.7
		S469.9,719.5,377.5,719.5z"/>
	<path class="st1" d="M377.5,32c46.1,0,90.8,9,132.9,26.8C551.1,76,587.6,100.7,619,132s56,67.9,73.2,108.6
		C710,282.7,719,327.4,719,373.5s-9,90.8-26.8,132.9C675,547.1,650.3,583.6,619,615s-67.9,56-108.6,73.2
		C468.3,706,423.6,715,377.5,715s-90.8-9-132.9-26.8C203.9,671,167.4,646.3,136,615s-56-67.9-73.2-108.6C45,464.3,36,419.6,36,373.5
		s9-90.8,26.8-132.9C80,199.9,104.7,163.4,136,132s67.9-56,108.6-73.2C286.7,41,331.4,32,377.5,32 M377.5,23
		C183.9,23,27,179.9,27,373.5S183.9,724,377.5,724S728,567.1,728,373.5S571.1,23,377.5,23L377.5,23z"/>
</g>
<path class="st2" d="M739.5,133.5"/>
</svg>
