<?xml version="1.0" encoding="utf-8"?>
<!-- Generator: Adobe Illustrator 21.1.0, SVG Export Plug-In . SVG Version: 6.00 Build 0)  -->
<svg version="1.1" id="Layer_1" xmlns="http://www.w3.org/2000/svg" xmlns:xlink="http://www.w3.org/1999/xlink" x="0px" y="0px"
	 viewBox="0 0 100 100" style="enable-background:new 0 0 100 100;" xml:space="preserve">
<style type="text/css">
	.st0{fill:#AFAFAF;}
</style>
<g>
	<path class="st0" d="M81.4,56.5c-0.2-0.3-0.2-0.7,0.1-1l9.9-14.5c0-0.1,0.1-0.2,0.1-0.3l2.4-8.4c0.2-0.8-0.5-1.5-1.3-1.2l-6,2.1
		c-0.2,0.1-0.3,0.1-0.5,0l-1.9-0.4c-0.2,0-0.4-0.1-0.5-0.3l-5.3-5.3c0-0.1-0.1-0.1-0.1-0.2l-10-15.4l0.2-0.1
		c0.3-0.2,0.4-0.6,0.3-0.9L68,7.5c-0.1-0.6-0.7-0.9-1.3-0.7l-1.2,0.4c-0.1,0-0.3,0.1-0.5,0l-1.6-0.3c-0.3,0-0.6,0-0.8,0.2l-0.9,0.7
		C61.5,8,61.3,8.1,61,8l-8.3-1.2c-0.1,0-0.2,0-0.3,0l-2.1,0.3c-0.6,0.1-1,0.6-0.8,1.2c0.2,0.8-0.6,1.5-1.4,1.3l-10.4-3
		C37.2,6.5,37,6,37.2,5.5l0.1-0.3c0.1-0.3,0.1-0.7-0.1-0.9l-1.7-1.9c-0.2-0.3-0.6-0.4-1-0.3l-9.7,2.2c-0.1,0-0.1,0.1-0.2,0.1
		l-5.4,2.6c-0.3,0.2-0.7,0.2-1-0.1c-0.5-0.4-1.2-0.2-1.4,0.4l-0.3,0.9c0,0.1-0.1,0.2-0.1,0.3L13,13.1c-0.1,0.2-0.2,0.4-0.2,0.6V16
		c0,0.2-0.1,0.4-0.2,0.5L5.3,28c-0.2,0.3-0.2,0.6-0.1,0.9l1.1,2.9c0.1,0.1,0.1,0.3,0.1,0.4l-0.3,7.6c0,0.3,0.2,0.7,0.4,0.9l4.8,3.2
		c0.2,0.1,0.3,0.3,0.4,0.6l0.5,2c0.1,0.3,0.3,0.5,0.6,0.7l6.1,2.3c0.2,0.1,0.4,0.1,0.6,0l8-1.8c0.1,0,0.1,0,0.2-0.1l4.8-2.3
		c0.2-0.1,0.5-0.1,0.7,0l1.5,0.5c0.3,0.1,0.5,0.3,0.5,0.5l0.1,0.3c0.1,0.4,0.5,0.6,0.9,0.6l3.2-0.3c0.3,0,0.6,0.1,0.8,0.3l1.4,1.3
		c0.2,0.2,0.3,0.5,0.3,0.9l-0.7,4.8c-0.1,0.4,0.1,0.7,0.4,0.9l3.4,2.6c0.1,0.1,0.2,0.2,0.3,0.4l3.5,8.6c0.1,0.2,0.1,0.4,0.1,0.6
		l-1.9,8.6c-0.1,0.2,0,0.5,0.1,0.7l9.5,17.1c0.1,0.1,0.1,0.3,0.1,0.5v1.1c0,0.2,0.1,0.5,0.2,0.7l1.5,1.7c0.3,0.3,0.7,0.4,1.1,0.3
		l4-1.3c0.1,0,0.2,0,0.3,0h2.5c0.3,0,0.6-0.1,0.8-0.3l7.8-9.1c0.2-0.2,0.2-0.4,0.2-0.6v-3.2c0-0.4,0.2-0.7,0.6-0.9l2-1
		c0.4-0.2,0.6-0.6,0.6-1.1l-0.9-4.6c-0.1-0.3,0-0.6,0.3-0.9l5.3-5.6c0.2-0.2,0.2-0.4,0.3-0.6l0.7-7c0-0.2,0-0.4-0.1-0.6L81.4,56.5z"
		/>
	<path class="st0" d="M93.6,63.1c-0.3-0.7-1.3-0.8-1.7-0.1l-1.7,2.6c-0.1,0.1-0.2,0.2-0.3,0.3L87,67.6c-0.2,0.1-0.4,0.3-0.5,0.6
		l-0.6,2c-0.1,0.3,0,0.5,0.1,0.8l0.9,1.5c0.2,0.3,0.2,0.6,0.1,0.9L86,76c-0.1,0.2-0.1,0.4,0,0.6l0.7,2.8c0.1,0.3,0.2,0.5,0.5,0.6
		l0.7,0.4c0.2,0.1,0.5,0.2,0.7,0.1l2-0.5c0.4-0.1,0.6-0.4,0.7-0.7l2.6-11.7c0-0.2,0.1-0.3,0.2-0.4l0.4-0.4c0.3-0.3,0.4-0.7,0.2-1.1
		L93.6,63.1z"/>
</g>
</svg>
