<?xml version="1.0" encoding="utf-8"?>
<!-- Generator: Adobe Illustrator 21.1.0, SVG Export Plug-In . SVG Version: 6.00 Build 0)  -->
<svg version="1.1" id="Layer_1" xmlns="http://www.w3.org/2000/svg" xmlns:xlink="http://www.w3.org/1999/xlink" x="0px" y="0px"
	 viewBox="0 0 196 97.3" style="enable-background:new 0 0 196 97.3;" xml:space="preserve">
<style type="text/css">
	.st0{fill:#AFAFAF;}
</style>
<g>
	<path class="st0" d="M178.2,35.7c0-0.3-0.2-0.4-0.4-0.5c-0.2,0-0.4-0.1-0.6-0.1c-2.7-0.4-5.4-0.8-8.2-1c-2.2-0.2-4.4-0.2-6.6-0.3
		c-4.2-0.2-8.4-0.1-12.6,0.4c-2.6,0.3-5.1,0.8-7.6,1.6c-1.2,0.4-2.5,0.9-3.7,1.3c-1.9,0.6-3.9,0.9-6,0.5c-1.2-0.2-2.4-0.6-3.6-1
		c-2.1-0.7-4.3-1.4-6.5-1.8c-4.3-0.8-8.6-1.2-12.7-1.1c-3.3,0-6.2,0.1-9.2,0.5c-2.4,0.3-4.8,0.6-7.2,0.9c-0.5,0.1-1,0.2-1.5,0.4
		c-0.3,0.1-0.4,0.2-0.5,0.5c0,1.4-0.1,2.8-0.1,4.3c0,0.2,0,0.4,0.1,0.6c0,0.2,0.1,0.3,0.3,0.4c0.2,0.1,0.4,0.2,0.5,0.3
		c0.8,0.6,1.2,1.4,1.5,2.3c0.2,0.6,0.4,1.3,0.5,1.9c0.1,0.4,0.3,0.8,0.3,1.2c0.4,1.9,0.8,3.7,1.2,5.6c0.4,1.8,0.9,3.5,1.8,5.1
		c0.9,1.8,2.3,3.2,4.2,4c1.2,0.5,2.4,0.8,3.6,1c2.2,0.3,4.4,0.4,6.7,0.2c2.3-0.2,4.5-0.5,6.7-1.2c1.6-0.5,3.1-1.2,4.4-2.3
		c2-1.7,3.6-3.7,4.8-6c1.2-2.3,2.1-4.7,2.8-7.2c0.2-0.7,0.4-1.4,0.7-2.1c0.4-1,1.1-1.7,2.2-1.8c0.3-0.1,0.7-0.1,1.1,0
		c0.8,0,1.6,0.2,2.2,0.9c0.2,0.3,0.5,0.6,0.6,1c0.3,0.7,0.6,1.4,0.8,2.1c1,3.1,2.2,6,3.9,8.7c1.3,2.3,3.1,4.2,5.5,5.4
		c1.7,0.9,3.4,1.5,5.3,1.8c2.8,0.5,5.6,0.7,8.4,0.5c1.7-0.1,3.4-0.3,5-0.8c1.7-0.5,3.2-1.3,4.3-2.7c0.7-0.9,1.2-1.9,1.7-3
		c0.9-2.2,1.5-4.6,2-6.9c0.3-1.2,0.5-2.3,0.8-3.5c0.1-0.6,0.3-1.2,0.5-1.8c0.2-0.6,0.3-1.1,0.6-1.6c0.4-0.5,0.7-1,1.3-1.2
		c0.3-0.1,0.4-0.3,0.4-0.5c0-0.2,0.1-0.4,0.1-0.6c0-0.9,0-1.7,0-2.6C178.3,36.9,178.2,36.3,178.2,35.7 M95.1,38.4
		c-0.9,0-1.7-0.2-1.7-0.4c0-0.2,0.7-0.4,1.7-0.4c0.9,0,1.7,0.2,1.7,0.4C96.7,38.2,96,38.4,95.1,38.4 M127.3,47.4
		c-0.6,2.5-1.5,4.8-2.8,7c-0.7,1.2-1.5,2.3-2.5,3.3c-1.3,1.3-2.9,2-4.7,2.5c-3.6,0.9-7.2,1.2-10.8,0.6c-0.7-0.1-1.4-0.3-2.1-0.5
		c-1.5-0.4-2.6-1.2-3.4-2.5c-0.9-1.4-1.5-2.9-1.9-4.5c-0.5-2.1-0.8-4.2-1-6.4c-0.1-1.2-0.1-2.5,0.1-3.7c0.1-0.6,0.1-1.2,0.3-1.9
		c0.5-2.2,1.8-3.5,4-4.1c2-0.5,4-0.8,6-1c1.5-0.1,3-0.2,4-0.2c3.4,0,6.3,0.3,9.2,0.9c1.2,0.3,2.3,0.5,3.4,1.1c0.5,0.3,1,0.6,1.5,1
		c0.8,0.6,1.1,1.5,1.3,2.4C127.9,43.5,127.7,45.4,127.3,47.4 M171.8,46.4c-0.1,3-0.6,5.9-1.7,8.7c-0.4,1.1-1,2.2-1.9,3
		c-1,1-2.2,1.5-3.5,1.8c-1.6,0.4-3.3,0.5-5,0.6c-2.5,0-5-0.3-7.5-0.8c-2.5-0.5-4.4-1.8-6-3.8c-2-2.5-3.3-5.3-4-8.4
		c-0.3-1.4-0.6-2.9-0.6-4.4c0-0.6,0.1-1.3,0.2-1.9c0.3-1.6,1.2-2.6,2.7-3.2c1.5-0.6,3-0.9,4.5-1.3c1.7-0.3,3.4-0.6,5.2-0.7
		c1.4-0.1,2.7-0.1,3.6-0.2c3.6,0.2,6.8,0.4,9.9,1.3c0.6,0.2,1.1,0.4,1.7,0.7c0.5,0.2,0.9,0.6,1.2,1.1c0.3,0.6,0.6,1.1,0.8,1.7
		c0.3,0.7,0.3,1.4,0.3,2.1C171.8,44.1,171.8,45.3,171.8,46.4 M174.7,38.4c-0.9,0-1.7-0.2-1.7-0.4c0-0.2,0.7-0.4,1.7-0.4
		c0.9,0,1.7,0.2,1.7,0.4C176.3,38.2,175.6,38.4,174.7,38.4"/>
</g>
<g>
	<path class="st0" d="M72.8,21.2c-6.4-6.4-15-10-24.1-10s-17.6,3.5-24.1,10c-6.4,6.4-10,15-10,24.1s3.5,17.6,10,24.1
		c6.4,6.4,15,10,24.1,10s17.6-3.5,24.1-10c6.4-6.4,10-15,10-24.1S79.2,27.6,72.8,21.2z M48.7,77.1c-17.6,0-31.8-14.3-31.8-31.8
		s14.3-31.8,31.8-31.8s31.8,14.3,31.8,31.8S66.3,77.1,48.7,77.1z"/>
	<path class="st0" d="M48.7,71.6c-14.5,0-26.3-11.8-26.3-26.3c0-0.6-0.5-1.1-1.1-1.1c-0.6,0-1.1,0.5-1.1,1.1c0,7.6,3,14.8,8.4,20.2
		c5.4,5.4,12.6,8.4,20.2,8.4c0.6,0,1.1-0.5,1.1-1.1S49.3,71.6,48.7,71.6z"/>
	<path class="st0" d="M48.7,18.9c6.3,0,12.3,2.2,17.1,6.3c0.2,0.2,0.5,0.3,0.7,0.3c0.3,0,0.6-0.1,0.8-0.4c0.4-0.5,0.3-1.2-0.1-1.5
		c-5.2-4.4-11.7-6.8-18.5-6.8c-0.6,0-1.1,0.5-1.1,1.1C47.6,18.4,48.1,18.9,48.7,18.9z"/>
	<path class="st0" d="M70.5,26.7c-0.4-0.5-1.1-0.5-1.5-0.1c-0.5,0.4-0.5,1.1-0.1,1.5c4.1,4.8,6.3,10.8,6.3,17.1
		c0,0.6,0.5,1.1,1.1,1.1s1.1-0.5,1.1-1.1C77.3,38.5,74.8,31.9,70.5,26.7z"/>
	<path class="st0" d="M48.7,22.2c-0.6,0-1.1,0.5-1.1,1.1c0,0.6,0.5,1.1,1.1,1.1c11.5,0,20.9,9.4,20.9,20.9c0,0.6,0.5,1.1,1.1,1.1
		s1.1-0.5,1.1-1.1c0-6.2-2.4-12-6.7-16.3S54.9,22.2,48.7,22.2z"/>
	<path class="st0" d="M38.7,66c0.2,0.1,0.3,0.1,0.5,0.1c0.4,0,0.8-0.2,1-0.6c0.3-0.5,0-1.2-0.5-1.5c-7.3-3.5-11.8-10.7-11.8-18.8
		c0-0.6-0.5-1.1-1.1-1.1s-1.1,0.5-1.1,1.1c0,4.4,1.3,8.7,3.6,12.4C31.6,61.3,34.8,64.1,38.7,66z"/>
	<path class="st0" d="M48.7,66.1c-1.7,0-3.5-0.2-5.2-0.6c-0.6-0.1-1.2,0.2-1.3,0.8c-0.1,0.6,0.2,1.2,0.8,1.3
		c1.9,0.5,3.8,0.7,5.7,0.7c0.6,0,1.1-0.5,1.1-1.1S49.3,66.1,48.7,66.1z"/>
	<path class="st0" d="M48.7,60.6c-4.4,0-8.6-1.9-11.5-5.2c-0.4-0.5-1.1-0.5-1.5-0.1c-0.5,0.4-0.5,1.1-0.1,1.5
		c3.3,3.7,8.1,5.9,13.1,5.9c0.6,0,1.1-0.5,1.1-1.1C49.8,61.1,49.3,60.6,48.7,60.6z"/>
	<path class="st0" d="M34,53.6c0.2,0,0.3,0,0.5-0.1c0.5-0.3,0.8-0.9,0.5-1.5c-1.1-2.1-1.6-4.4-1.6-6.8c0-0.6-0.5-1.1-1.1-1.1
		c-0.6,0-1.1,0.5-1.1,1.1c0,2.7,0.6,5.4,1.8,7.8C33.2,53.4,33.5,53.6,34,53.6z"/>
	<path class="st0" d="M48.7,27.7c-0.6,0-1.1,0.5-1.1,1.1c0,0.6,0.5,1.1,1.1,1.1c8.5,0,15.4,6.9,15.4,15.4c0,0.6,0.5,1.1,1.1,1.1
		s1.1-0.5,1.1-1.1C66.3,35.6,58.4,27.7,48.7,27.7z"/>
	<path class="st0" d="M48.7,42.3c-1.6,0-2.9,1.3-2.9,2.9s1.3,2.9,2.9,2.9s2.9-1.3,2.9-2.9S50.3,42.3,48.7,42.3z M48.7,46
		c-0.4,0-0.7-0.3-0.7-0.7s0.3-0.7,0.7-0.7s0.7,0.3,0.7,0.7S49.1,46,48.7,46z"/>
	<path class="st0" d="M48.7,33.1c-6.7,0-12.1,5.4-12.1,12.1S42,57.4,48.7,57.4s12.1-5.4,12.1-12.1S55.4,33.1,48.7,33.1z M48.7,55.2
		c-5.5,0-10-4.5-10-10s4.5-10,10-10s10,4.5,10,10S54.2,55.2,48.7,55.2z"/>
</g>
</svg>
