<?xml version="1.0" encoding="utf-8"?>
<!-- Generator: Adobe Illustrator 21.1.0, SVG Export Plug-In . SVG Version: 6.00 Build 0)  -->
<svg version="1.1" id="Layer_1" xmlns="http://www.w3.org/2000/svg" xmlns:xlink="http://www.w3.org/1999/xlink" x="0px" y="0px"
	 viewBox="0 0 500.4 465.5" style="enable-background:new 0 0 500.4 465.5;" xml:space="preserve">
<style type="text/css">
	.st0{fill:none;stroke:#E8EEEF;stroke-width:3;stroke-miterlimit:10;}
	.st1{fill:#202020;}
</style>
<path class="st0" d="M594.5-0.9"/>
<g>
	<g>
		<g>
			<g>
				<g>
					<path class="st1" d="M170.4,148.9c1.2,3.9,4.4,9.5,7.7,13.2c0.5,0.5,0.8,0.9,1.3,1.4c0.2,0.2,0.5,0.4,0.6,0.5
						c0.3,0.2,0.5,0.4,0.7,0.5c0.9,0.6,1.8,1.1,2.7,1.3c1.7,0.5,3.4,0,4.6-1.7c-3.4-9.7-6.4-19.4-9-29.4c-1.5,2.4-3.1,4.6-4.5,7
						C173.1,144.2,171.7,146.5,170.4,148.9z"/>
					<path class="st1" d="M239.1,180c1-3.9,2-8.7,3-13.8c1-5.1,1.9-10.8,2.6-16.9c0.6-6,0.8-12.4,0.4-18.9
						c-0.5-6.6-1.9-13.2-4.7-19.8c-1.7,7.6-3,12.6-4.2,16.3c-1.2,3.7-2.3,6.3-3.3,9c-1,2.7-2,5.6-2.7,10.1
						c-0.7,4.4-1.3,10.6-1.1,19.4c-1.5,1.3-3.1,1.6-4.7,1.2c-1.6-0.5-3.5-1.6-5.2-3.3c-3.4-3.3-6.6-8.6-7.8-14
						c0,4.1-3.5,3.6-6.6,4.7c-1.5,0.5-3.1,1.4-3.8,3.4c-0.8,2-0.9,5,0.3,9.7c4.7,4.2,8.8,7.1,12.3,9c1.7,0.9,3.4,1.5,4.8,1.8
						c1.5,0.4,2.9,0.4,4.2,0.1c0.6-0.1,1.3-0.4,1.8-0.6c0.6-0.3,1.2-0.6,1.7-1.1c1.1-0.8,2.2-2.1,3.2-3.6c2.1-2.9,3.9-7.2,5.9-12.5
						c2,2.9,2.8,6.5,3.2,10C238.6,173.8,238.6,177.2,239.1,180z"/>
					<path class="st1" d="M311.9,207.6c-0.2,0.2-0.4,0.5-0.6,0.6c-0.2,0.2-0.4,0.5-0.6,0.7l-0.3,0.5v0.1l0,0l0.1-0.1l0.1-0.2
						c0.2-0.3,0.4-0.5,0.5-0.7c-0.3,0.4-0.5,0.7-0.8,1.1l-0.2,0.2l0.2-0.2c0.1-0.1,0.3-0.3,0.4-0.5s0.3-0.3,0.4-0.5
						c0.1-0.1,0.2-0.3,0.3-0.4C311.5,208.1,311.8,207.8,311.9,207.6z"/>
					<path class="st1" d="M221.2,150.5c-0.5,0.7-0.7,1.3-0.8,1.6c-0.1,0.4-0.2,0.6-0.1,0.7C220.8,151.6,221.5,150.4,221.2,150.5z"/>
					<path class="st1" d="M241.5,139.9c-0.2-0.2-0.5-0.2-0.8-0.3C240.5,140.3,240.5,140.6,241.5,139.9z"/>
					<path class="st1" d="M311.9,207.6c2.1-2.3,4-3.6,4.6-3.9c0.1,0,0,0-0.2,0.1c-0.1,0-0.2,0.1-0.3,0.2l-0.1,0.1
						c-0.1,0.1-0.2,0.1-0.3,0.2c-0.2,0.2-0.5,0.4-0.6,0.5c-0.1,0.1-0.2,0.2-0.4,0.3c-0.2,0.2-0.4,0.3-0.5,0.5
						c-0.4,0.3-0.6,0.6-1,0.9c-0.1,0.2-0.4,0.4-0.5,0.5C312.4,207.1,312.2,207.4,311.9,207.6z"/>
					<path class="st1" d="M377.2,148c-3-2.5-6.2-4.5-9.3-5.6c-1.5-0.6-3.1-1.1-4.7-1.5c-1.5-0.4-3.1-0.5-4.6-0.6
						c1.3,0.6,2.5,1.2,3.6,1.9c1.2,0.7,2.5,1.5,3.6,2.3c2.4,1.5,4.7,3.5,7,5.6C374.2,149.4,375.5,148.6,377.2,148z"/>
					<path class="st1" d="M249.2,256.2c-0.3,0.4-0.5,0.7-0.8,1.1c2.6,2.3,5.8,4.9,9.5,7.8c-1.5-1.5-3-2.8-4.5-4.4
						C251.9,259.3,250.5,257.8,249.2,256.2z"/>
					<path class="st1" d="M228.7,287.5c0.5-0.5,0.8-0.9,1-1.2v-0.1l0,0l0,0l-0.2,0.2c-0.7,0.7-1.4,1.5-2.1,2.2
						c-1.5,1.5-2.9,2.9-4.2,4.4c-2.7,2.8-5.4,5.4-7.5,7.3c3.9-3.6,6.7-6.2,8.7-8.2c2-2,3.2-3.4,3.7-4.1
						C228.3,288,228.4,287.9,228.7,287.5z"/>
					<path class="st1" d="M297.2,220.9c-0.5-0.5-1.1-0.8-1.6-1.2c-0.5-0.4-1.1-0.7-1.7-1c0.5,0.3,1,0.6,1.5,1
						C296,219.9,296.5,220.4,297.2,220.9z"/>
					<path class="st1" d="M284.1,239.1c0.9,3.6,1.8,6.9,2.4,8.8C285.8,244.8,285,241.8,284.1,239.1z"/>
					<path class="st1" d="M167.7,100.4c1.4,1.2,2.6,1.6,3.8,2.6C170.2,100.6,168.9,99.3,167.7,100.4z"/>
					<path class="st1" d="M272.6,217.8l-0.2,0.7c-0.1,0.3,0,0.5-0.1,0.9c3.8,1.3,7.6,2.6,11.4,3.6c-2-0.9-3.8-1.7-5.7-2.6
						C276.1,219.5,274.3,218.7,272.6,217.8z"/>
					<path class="st1" d="M247.3,154.7c0.3-0.1,0.3-0.1,0.5-0.1C244.6,154.5,245.3,154.6,247.3,154.7z"/>
					<path class="st1" d="M300.2,268.1c-1.4-5-2.1-9-2.2-12.6s0.5-6.6,1.2-9.7c0.6-3.1,1.4-6.2,1.4-10c-0.1-3.8-0.9-8.3-4.3-14.2
						c0.5,2.2,0.2,5.3-0.1,9c-0.3,3.7-0.6,8-0.5,12.5c0,4.5,0.5,9.1,1.3,13.5C297.7,260.8,298.8,264.9,300.2,268.1z"/>
					<path class="st1" d="M381.6,159.9c1.8,2.6,3.6,5.4,5.1,8.2c0.7,1.5,1.5,2.9,2.2,4.4c0.6,1.5,1.2,2.9,1.7,4.5
						c-0.6-2.1-1.2-3.9-1.9-5.6c-0.7-1.7-1.5-3.3-2.2-4.7C384.9,163.7,383.3,161.6,381.6,159.9z"/>
					<path class="st1" d="M296.3,221.6v-0.2l-1.5-2.2C295.5,220.1,295.7,220.8,296.3,221.6z"/>
					<path class="st1" d="M219.4,257.2c0-0.2,0-0.5,0-0.9c0-0.2,0-0.4,0-0.6c0-0.3,0-0.5,0-0.8c0,0.1,0,0.3,0,0.6
						C219.4,255.9,219.4,256.4,219.4,257.2z"/>
					<path class="st1" d="M294.3,183.8c-1.4,0.4-2.7,0.6-4.1,0.9C292.6,184.7,293.7,184.2,294.3,183.8z"/>
					<path class="st1" d="M220,248.8c0.5-0.3,1-0.5,1.5-0.6c0.5-0.2,1-0.4,1.4-0.5c0.6-0.4,0.6-0.5-1.1-0.7
						c-1.3,0.3-2.2,0.5-3.1,0.6c1.7-0.1,3.1-0.1,3.5,0.1C222.5,247.7,221.9,248.1,220,248.8z"/>
					<path class="st1" d="M225.8,227.2c-1.2-1.5-2.2-2.6-3.4-3.9c0.1,0.3,0.1,0.5,0.2,0.7c0.1,0.3,0.2,0.5,0.3,0.7
						C223.9,225.5,224.9,226.3,225.8,227.2z"/>
					<path class="st1" d="M142.3,148.7c9.1-0.3,17.3,2.1,25,5.3c-4.1-2.2-6.2-5.7-7.2-9.4c-1.1-3.6-1.1-7.3-1.5-9.7
						c-0.4-2.4-1-3.5-3.4-1.7c-1.2,0.8-2.8,2.4-4.9,4.9C148.2,140.6,145.5,144,142.3,148.7z"/>
					<path class="st1" d="M366.1,157.3c3.2-1.3,5.8-1.7,8.4-1.3c2.6,0.5,4.8,1.6,7.1,3.9c-1.4-1.9-2.8-3.6-4.3-5.2
						c-0.7-0.8-1.5-1.6-2.3-2.4c-0.7-0.7-1.5-1.5-2.3-2.2C369.1,151.7,366.3,154,366.1,157.3z"/>
					<path class="st1" d="M20.3,279.2c-0.8-13.1-0.4-26,1.1-38.5c-1.4,5.3-2.2,11.4-2.4,18C18.7,265.2,19.2,272.2,20.3,279.2z"/>
					<path class="st1" d="M104.2,172.9c0-2.6,0-5.2,0.1-7.8C102.7,167,102.3,169.7,104.2,172.9z"/>
					<path class="st1" d="M47.5,130.5c5.6-0.9,10.7-2.1,15-3.6c4.4-1.5,8.3-3.4,11.8-5.4c-0.7-2.5-0.9-4.9-2.6-7.6
						c-2.1,1.2-4.2,2.5-6.2,3.8c-2,1.3-4.1,2.6-6.1,4C55.4,124.6,51.3,127.5,47.5,130.5z"/>
					<path class="st1" d="M167.5,154.1c-0.1,0-0.3-0.1-0.3-0.1S167.4,154.1,167.5,154.1z"/>
					<path class="st1" d="M465.1,216.3c0.1-1.3,0.2-2.8,0.2-4.2s0-2.7,0-4.1c0-1.4,0-2.6-0.1-3.8c-0.1-1.3-0.2-2.6-0.3-3.9
						c-0.2-2.6-0.5-5-0.8-7.3c-0.2-1.1-0.4-2.3-0.5-3.5c-0.2-1.2-0.5-2.3-0.7-3.4c-0.5-2.2-1-4.2-1.5-6c-0.3-0.9-0.5-1.9-0.9-2.8
						c-0.4-0.9-0.6-1.8-1-2.6c-1.4-3.4-2.7-6.2-4.2-8.6c-3-4.9-6.1-7.9-9-9.5c-1.5-0.8-2.9-1.3-4.3-1.5c-1.5-0.3-2.8-0.2-4.1,0
						c-5.4,0.9-10.5,4.5-15.9,6.8c-5.4,2.4-11,3.5-17.2,1c-5.9-11.5-12.4-20.3-17.3-26.7c-2.5-3.1-4.6-5.9-6.6-8.3
						c-0.9-1.3-1.7-2.3-2.6-3.4c-0.7-1-1.5-2-2.1-3c-1.3-1.9-2.2-3.6-2.8-5.1c-0.7-1.5-1.1-3-1.4-4.4c-0.5-2.7-0.1-5.2,0.6-7.6
						c1.6-4.7,5.2-9,7.4-14.2c1.1-2.6,1.7-5.5,1.5-8.7c-0.1-0.8-0.2-1.6-0.4-2.6c-0.2-0.8-0.4-1.7-0.7-2.6c-0.6-1.8-1.5-3.7-2.8-5.8
						c-7.3-3-14.1-4.8-20.6-5.8c-6.4-1-12.4-1.1-17.9-0.7c-5.6,0.4-10.5,1.4-15.2,2.5c-2.4,0.5-4.6,1.3-6.9,1.9s-4.5,1.4-6.6,2.2
						c-8.6,3-16,6.6-22.9,9.3c-6.7,2.8-12.9,4.7-19,5.1c-1.2-2.6-3.1-4.4-4.1-6.3s-1.2-4.2,1.5-8c-8.7,7.7-18.3,13.2-28.4,18.4
						c-10,5.2-20.3,10.2-29.9,16.2c-9.4,6-18,13.1-23.9,21.7s-8.9,18.5-7.3,29.5c-3.6-0.4-6.6-1.2-8.9-2.4c8.1,3.5,15.4,8,21.8,12.8
						c6.4,4.7,11.8,9.7,16.2,13.9c-0.8,1-1.4,2.3-1.7,3.6c-0.4,1.4-0.5,2.8-0.5,4.3c-0.1,2.9,0.3,5.8,0.2,8.1c0,2.3-0.5,4-2.3,4.7
						c-0.9,0.4-2.1,0.5-3.7,0.3c-1.6-0.2-3.8-0.6-6.5-1.5c0.5-0.7,0.8-1.5,1-2.2c0.2-0.6,0.2-1.4,0.1-2c-0.2-1.4-0.8-2.7-1.7-4.1
						c-1.7-2.8-4.6-5.8-6.4-9.2c0.1,2.7,0.3,5.3,0.5,7.9l0.5,3.9c0.2,1.4,0.3,2.7,0.5,4c-4.2-0.5-7.4-1.2-9.7-2c-2.4-0.8-4-1.8-5-3
						c-1-1.2-1.4-2.6-1.4-4.2c0-0.8,0.1-1.5,0.3-2.5c0.1-0.5,0.2-0.8,0.3-1.3c0.1-0.4,0.2-0.8,0.3-1.2c0.9-3.2,2.4-6.6,2.4-9.9
						c0.1-3.4-1.2-6.8-5.9-10.3c-0.5,1.9-1.1,3.8-1.5,5.8s-0.8,4-1.1,6.1s-0.5,4.1-0.7,6.3c-0.3,2.3-0.5,4.6-0.5,6.7
						c-0.4,8.9,0.5,17.5,1.7,25.3c1.2,7.8,2.6,15,3.1,21.6c0.6,6.6,0.5,12.8-1.4,18.9c-3.8,0.9-6.9,0.7-9.5-0.3
						c-2.6-1.1-4.5-3-5.9-5.6c-2.9-5-3.7-11.9-4.1-17.6c-0.4-5.7-0.3-10.5-2.5-12.1c-1.1-0.8-2.6-0.9-5.1,0.1
						c-1.2,0.5-2.6,1.4-4.2,2.6c-1.6,1.2-3.5,2.8-5.5,4.9c6.1-14,13.8-25.4,22.7-35.5c-7.1,0.8-12.2,1.6-15.9,1.8
						c-3.7,0.3-5.9,0-7.1-0.7c-2.5-1.4-0.9-4.6,0.7-7.7c1.5-3.2,3.3-6.5,0.7-8.7c-1.3-1.1-3.6-1.9-7.6-2.1
						c-3.9-0.2-9.6,0.1-17.3,1.7c-4.4,7.4-7.3,14.4-9.5,21c-2.1,6.6-3.3,12.9-3.9,18.9c-0.6,6.1-0.6,11.8-0.2,17.4
						c0.4,5.6,1.2,11.2,2.2,16.8c1.1,5.7,2.4,11.4,4,17.7c0.8,3.1,1.7,6.4,2.6,9.7c0.5,1.6,1,3.5,1.5,5.3c0.3,0.9,0.5,1.8,0.8,2.7
						c0.3,0.9,0.6,1.9,0.9,2.8c0.6,1.9,1.3,3.8,1.9,5.9c0.7,2.1,1.5,4.2,2.3,6.3c0.8,2.2,1.7,4.5,2.6,6.7c0.9,2.3,2,4.7,3,7.2
						c4.4,9.8,10.2,21.1,18.8,33.2c7.6,2.3,12.1,1.5,15.1-0.3s4.6-4.7,6.3-7.7c1.6-2.9,3.5-5.6,6.5-7.5c3-1.9,7.2-2.7,13.6-2.6
						c1.6,0.9,3.4,1.8,4.9,2.6c1.6,0.8,3.1,1.6,4.7,2.4c1.5,0.7,3.1,1.5,4.6,2.2c0.7,0.4,1.5,0.7,2.2,1c0.7,0.3,1.5,0.6,2.2,0.9
						c5.7,2.6,10.8,4.6,15.4,6.5c2.3,0.9,4.5,1.8,6.6,2.7c2,0.8,4,1.7,5.8,2.6c1.9,0.9,3.6,1.7,5.3,2.6c1.6,0.9,3.4,1.8,4.9,2.7
						c3.1,1.8,6,3.8,8.7,5.7c2.7,2,5.4,4.1,7.9,6.2c2.6,2.1,5.1,4.3,7.5,6.4c2.5,2.1,4.9,4.3,7.4,6.3c4.9,4,10,7.9,15.5,10.7
						c5.5,2.8,11.4,4.7,17.9,4.8c6.5,0.1,13.5-1.5,20.9-5.9c1.8-1.1,3.6-2.4,5.6-3.8c1.6-1.4,3.2-2.9,4.7-4.6s3-3.6,4.5-5.6
						c1.5-2,2.8-4.2,4-6.6c0.5-3.5,0.8-7.1,0.6-10.7c-0.2-3.6-0.5-7.2-1-10.8c-1-7.1-2.2-14.1-2.6-20.3c-0.1-3.1-0.2-6,0.3-8.7
						c0.3-1.4,0.5-2.6,0.9-3.9c0.5-1.3,1-2.5,1.6-3.6c2.7-4.6,7.7-8.1,16.1-10.9c3.7,4.7,7.3,9.7,10.7,14.8
						c3.5,5.1,6.6,10.4,9.8,15.8c2.1-2.3,3.9-4.5,5.2-6.6c0.6-1,1.3-2.1,1.7-3.1c0.5-1,0.9-1.9,1.3-2.9c0.7-1.9,1-3.6,1.2-5.4
						c0.2-1.7,0.1-3.4-0.1-4.9c-0.5-3.2-1.5-6-2.9-8.7c-0.7-1.5-1.4-2.8-2.1-4.1c-0.7-1.4-1.5-2.7-2.1-4c-1.4-2.6-2.6-5.1-3.6-7.6
						c-0.9-2.5-1.3-4.9-0.9-7.5c0.4-2.6,1.5-5.3,3.6-8.2c1.1-1.5,2.5-3.2,4.2-4.9c0.9-0.9,1.8-1.8,2.7-2.8c1-1,2.1-2.1,3.3-3.2
						c5.2,6.1,4.6,15.6,3.2,22.3c-0.6,3.5-1.5,6.3-1.7,8c-0.3,1.7,0.1,2.4,1.8,1.5c2.4-0.8,4.5-1.7,6.3-2.7c1.7-1,3.3-2,4.5-2.9
						c1.2-1,2.2-2,2.8-3c0.7-1,1.2-2,1.5-3c0.5-2,0.3-3.9-0.5-5.8c-0.8-1.9-2.1-3.8-3.6-5.6s-3.4-3.7-5.1-5.6
						c-1.8-1.9-3.6-3.7-5-5.8c-1.5-2.1-2.6-4.2-3.3-6.5c-0.6-2.3-0.7-4.9,0-7.8c5.2,0.4,10.5,0.6,15.7,0.8c2.6,0.1,5.3,0.2,7.9,0.2
						c2.6,0,5.3,0,7.9,0c0.2-2,0.4-3.9,0.5-5.9c0.2-2,0.3-3.9,0.3-6.1c0-2.1,0-4.3,0-6.4l-0.1-3.2c-0.1-1.1-0.2-2.3-0.3-3.4
						c-0.4-4.6-0.8-8.9-1.7-13.9c-0.5-2.4-0.9-4.8-1.5-7.2c-0.1-0.5-0.3-1.2-0.5-1.8l-0.5-1.9c-0.4-1.3-0.6-2.6-1-3.7
						c-0.4-1.3-0.7-2.5-1.1-3.7l-0.5-1.8l-0.3-0.9l-0.4-1c-0.9-2.6-1.9-5.2-2.9-7.7c-1.9-5-4.6-10.2-7.3-15.1
						c-1.4-2.5-2.9-4.9-4.5-7.4c-1.5-2.5-3.2-4.8-4.9-7.1c-1.7-2.3-3.6-4.6-5.5-6.7s-3.7-4.3-5.7-6.4c-8.1-8.3-17-15-25.9-20.2
						c-8.8-5.2-17.5-8.8-25.8-11.5c-8.3-2.6-16.1-4.4-23.6-5.6c-1.9-0.3-3.7-0.5-5.6-0.8c-1.8-0.3-3.6-0.5-5.5-0.6s-3.6-0.4-5.4-0.5
						l-2.6-0.2l-2.7-0.2c2.4-4.3,6.5-8.4,8.7-12.8c1.1-2.2,1.6-4.6,1.2-7.1c-0.5-2.6-2.1-5.3-5.8-8.3c-22.4,0.5-43.2,3.2-63.1,7.7
						c-19.9,4.6-39.1,10.7-58.2,19.8c-9.6,4.6-19,9.8-28.3,16.1c-9.3,6.3-18.5,13.6-27.2,22c-8.7,8.5-16.9,18.2-24.1,29.1
						c-7.3,10.8-13.5,22.9-18.3,35.4c6.2,14.8,14.1,27.8,23.3,39.1c-0.1,3.9-2.8,7.9-6.3,9.9c-3.5,2-7.7,2-10.7-2.6
						c-1.9,10-1.1,15.4,0.5,17.6c1.6,2.2,4.3,1.3,7.5-0.3c3.2-1.5,6.9-3.8,10.7-4.6c3.8-0.8,7.6-0.2,10.8,3.3
						c0.7,2.4,1.1,4.6,1.3,6.6c0.2,2.1,0.1,4-0.2,5.7c-0.5,3.6-1.9,6.5-3.9,8.6c-2,2.1-4.6,3.3-7.5,3.3c-2.9-0.1-6.1-1.5-9-4.5
						c5.3,7.9,11.6,16.4,19,24.9c0.9,1,1.9,2.1,2.8,3.2c1,1.1,2,2.1,3,3.2c1,1,2.1,2.1,3.1,3.1c1.1,1,2.2,2.1,3.3,3.1
						c1.1,1,2.2,2,3.4,3c1.1,1,2.3,1.9,3.5,2.9c2.4,1.9,4.7,3.8,7.2,5.6c2.5,1.8,4.9,3.5,7.5,5.2c2.6,1.6,5.1,3.4,7.7,4.7
						c2.6,1.5,5.2,2.8,7.8,4.2c1.3,0.7,2.6,1.3,3.9,1.9c1.3,0.5,2.6,1.2,3.9,1.7c5.3,2.4,10.4,4.1,15.6,5.9c2.6,0.8,5.1,1.5,7.6,2.2
						l3.7,1l3.6,0.8c2.5,0.5,4.8,1.1,7.3,1.5c2.4,0.4,4.6,0.8,7,1.2c1.2,0.2,2.4,0.4,3.5,0.5l3.4,0.5c2.3,0.3,4.5,0.6,6.6,0.8
						c4.3,0.4,8.7,0.9,12.8,1.3c2.1,0.2,4.1,0.4,6.1,0.5c2,0.2,4,0.3,6,0.5c1,0.1,2,0.2,3,0.3c1,0.1,1.9,0.2,2.9,0.2
						c1.9,0.2,3.9,0.4,5.8,0.5c3.8,0.4,7.7,0.7,11.4,1.3c1.9,0.2,3.7,0.5,5.6,0.7c1.9,0.3,3.8,0.5,5.6,0.9c1.9,0.3,3.7,0.6,5.6,1
						c0.9,0.2,1.9,0.4,2.8,0.5c0.8,0.2,1.7,0.4,2.6,0.6l-1.8,2.6l-2.1,2.6c-1.5,1.7-2.9,3.4-4.4,5.1c2.8,0.1,5.5-0.2,7.9-0.6
						c2.3-0.5,4.3-1.2,6.1-2.1s3.6-2,5-3.3c1.5-1.3,2.8-2.7,3.9-4.3c1.2-1.5,2.2-3.2,3.1-4.9s1.6-3.6,2.4-5.5
						c1.4-3.7,2.4-7.5,3.3-11.3c0.8-3.7,1.6-7.3,2.6-10.6s2-6.2,3.6-8.5c0.8-1.2,1.6-2.2,2.7-3.1c1-0.9,2.3-1.6,3.6-2.2
						c0.7-0.3,1.5-0.5,2.3-0.7c0.8-0.2,1.6-0.4,2.6-0.5c1.8-0.3,4-0.3,6.5-0.2c-0.6,2.4-1.3,4.8-1.9,7.3c16.6-8,31-21,42.1-36.7
						c1.4-2,2.8-3.9,4.1-5.9c1.3-2,2.6-4.1,3.7-6.2c1.2-2.1,2.4-4.3,3.5-6.4c1.2-2.1,2.2-4.4,3.2-6.6l1.5-3.4
						c0.3-0.5,0.5-1.1,0.7-1.7l0.7-1.8c1-2.5,2-5,2.8-7.5c1.8-5,3.3-10.2,4.6-15.5c2.6-10.6,4.4-21.9,4.8-34.4
						c0.5-12.5-0.5-26.4-4.3-41.3c-0.4-1.8-1-3.7-1.5-5.6c-0.5-1.8-1.1-3.7-1.7-5.6c-1.3-3.7-2.7-7.5-4.3-11.2
						c-1.6-3.6-3.4-7.4-5.2-10.9c-1.9-3.6-3.9-7.1-6-10.5c-4.1-6.7-8.6-13-12.9-18.9c-0.5-0.7-1.1-1.5-1.6-2.2
						c-0.5-0.7-1.1-1.4-1.6-2.1c-1.1-1.4-2.2-2.8-3.3-4.2c-2.1-2.7-4.4-5.5-6.5-8c-4.5,3-9.1,4.4-13.9,4.6c-2.4,0.2-4.8,0-7.3-0.3
						c-1.2-0.2-2.5-0.4-3.7-0.5c-1.2-0.2-2.5-0.5-3.7-0.8c-5-1.2-10.1-2.8-15.3-4.5c-2.6-0.8-5.2-1.6-7.7-2.4
						c-2.6-0.7-5.3-1.5-7.9-2.1c-2.6-0.6-5.3-1.2-7.9-1.5c-2.6-0.4-5.2-0.6-7.7-0.6c-2.5,0-4.9,0.1-7.2,0.5c-2.3,0.4-4.4,1-6.4,1.8
						c-3.9,1.6-7,4.5-9,8.4c-2,3.9-2.8,9.2-2.4,15.9c-2.8-1.3-5.6-2.4-8.2-3.4s-5-2-7.3-2.9c-2.4-0.9-4.5-1.7-6.5-2.6
						c-2.1-0.8-4-1.5-5.8-2.2c-3.7-1.5-7.1-2.6-10.3-3.7c-1.6-0.5-3.3-1.1-4.8-1.5c-0.8-0.3-1.6-0.5-2.5-0.6l-0.3-0.1h-0.2
						c0,0,0,0.1,0,0.2l-0.1,0.7c-0.1,0.5-0.2,1.1-0.2,1.5c-0.2,1.1-0.3,2.2-0.4,3.4c0,0.3-0.1,0.6-0.1,0.9v0.5c0,0.1-0.1,0-0.1,0
						L208,86l-0.2-0.2c-0.5-0.5-1-0.9-1.5-1.5c-2.1-1.9-4.4-3.9-6.7-6.1c-0.6-0.5-1.2-1.1-1.8-1.6c-0.3-0.3-0.6-0.5-0.9-0.8
						l-0.3-0.2c-0.1-0.1-0.2-0.2-0.2-0.2h-0.3c-0.8-0.1-1.7-0.2-2.6-0.3c-1.8-0.2-3.7-0.3-5.7-0.3c-8.1,0-18.5,1.4-32.4,6.2
						c-1.7,0.9-3,2.2-3.8,3.9c-0.9,1.7-1.5,3.6-1.7,5.9c-0.5,4.6-0.1,9.9,0.7,15.7c0.4,2.8,0.8,5.6,1.2,8.6c0.5,2.9,0.8,5.7,1,8.5
						c0.2,2.7,0.3,5.4,0.1,7.8c-0.1,1.2-0.3,2.4-0.5,3.6c-0.3,1.2-0.5,2.2-1,3.3l-19.5-20.5c1.3,13.4,3.6,26.6,7.1,39.3
						c-5.3-2.1-10.7-4.2-16.1-6.1c-5.4-1.9-10.9-3.6-16.6-5.3c-0.5,3.3-1,6.5-1.3,9.7l-0.5,4.8l-0.4,4.8c1.1-1.3,2.6-2.3,4.6-2.8
						c1.9-0.6,4-0.9,6.2-0.7c4.4,0.2,8.9,1.8,11.9,4.8c0,0.9-0.1,1.8-0.2,2.6c-0.1,0.9-0.2,1.7-0.4,2.6c-0.3,1.7-0.8,3.3-1.3,4.8
						c-1.1,3.1-2.6,5.9-4.4,8.7c-3.6,5.3-8.6,9.8-13.9,13.7c-5.4,3.8-11.2,6.8-16.6,8.7c-5.4,1.8-10.4,2.5-13.9,1.2
						c0.9,6,2.3,11.9,3.7,17.7c1.5,5.7,3.5,11.3,5.6,16.5c4.3,10.5,9.7,19.9,16.1,27.7c-3.2-0.7-6-1.8-8.6-3.2
						c-2.5-1.4-4.7-2.9-6.7-4.7c-4.1-3.6-7.6-8.1-11.6-12.7c2,2.3,3.7,4.2,5.1,5.8c1.4,1.6,2.5,3,3.3,4.1c0.8,1.1,1.3,2,1.5,2.8
						c0.3,0.7,0.3,1.3,0.1,1.7c-0.8,1.8-4.9,1.5-9.1,1.3c-4.2-0.3-8.6-0.6-9.7,0.9c-1.2,1.5,0.5,5,9.4,10.8c3.4-0.9,8.3,0,13.2,1.3
						c4.9,1.3,10,2.7,13.4,3.3c-4.1,1.6-6.7,4.1-8.3,6.6c-1.5,2.6-1.9,5.3-1.4,7.4c0.5,2.2,1.9,3.7,3.9,3.9c2,0.3,4.5-0.7,7.3-3.6
						l-6.9,0.4c-2.3,0.1-4.6,0.3-6.9,0.3l-13.7,0.5c-0.9-2-1.8-5.5-2.8-12.3c-0.3-1.9-0.5-3.9-0.6-5.8c-0.2-2.6-0.4-5.1-0.5-7.7
						v-0.5v-0.6v-1.3l-0.1-2.5c0-1.6-0.1-3.3-0.1-5v-1.3l0.1-1.7l0.3-3.6c0.2-2.4,0.4-4.7,0.5-7.1c0.4-4.7,0.8-9.5,1.2-14.2l0.2-1.8
						l0.1-0.9c0-0.2,0-0.3,0.1-0.5l0.2-0.6l1.5-5.4c0.9-3.6,1.9-7.1,2.8-10.7c1.9-7.1,3.8-14.2,5.7-21.3l1.5-5.3l0.1-0.4v-0.2
						l0.1-0.2l0.5-0.8l1-1.7l2-3.4c2.6-4.6,5.2-9.1,7.8-13.6c5.2-9,10.5-18.1,15.8-27.1l3.9-6.7l0.5-0.8l0.3-0.5
						c0.1-0.2,0.2-0.3,0.4-0.4l1.8-1.5l3.6-3.1c4.7-4.1,9.6-8.3,14.3-12.4c9.6-8.2,19-16.5,28.6-24.8l7.1-6.2l1.8-1.5l0.2-0.2
						c0.1-0.1,0.2-0.1,0.3-0.1l0.5-0.1l1.1-0.3l4.4-0.9c5.8-1.3,11.8-2.6,17.6-3.8c11.7-2.6,23.4-5,35.1-7.6l8.7-1.9l2.2-0.5
						c0.4-0.1,0.6-0.1,0.9-0.2l0.8-0.1l3.4-0.3c4.5-0.5,9-0.8,13.5-1.3c8.9-0.8,17.9-1.6,26.9-2.5l6.7-0.6l1.6-0.2h0.2h0.2h0.3
						l0.5,0.1l2.4,0.4c3.1,0.5,6.3,0.9,9.4,1.4c6.2,0.9,12.5,1.8,18.7,2.7l4.6,0.6l1.2,0.2l0.7,0.3l1.5,0.5l6,2c4,1.4,8,2.6,12,4
						l3,1l0.4,0.1c0.1,0,0.3,0.1,0.3,0.1l0.5,0.3l1,0.5l3.8,1.8c2.6,1.2,5.1,2.4,7.7,3.6l1.9,0.9c0.4,0.2,0.5,0.3,0.7,0.4l0.6,0.4
						l2.5,1.4c1.6,0.9,3.4,1.8,5,2.7l1.3,0.6l0.8,0.5l2.4,1c1.1,0.6,2.2,1.3,3.4,1.8l1.4,0.7l1.1,0.5c0.7,0.4,1.5,0.7,2.3,1.1
						l0.5,0.3l0.4,0.1l0.8,0.3c-0.7,0.6-1.5,1.5-2.2,2.4c-0.4,0.5-0.8,0.9-1.3,1.4c-0.5,0.5-0.9,1-1.4,1.5c-1.8,2.2-3.6,4.8-5.5,7.7
						c-3.6,5.9-6.9,13-9.7,20c-2.8,6.9-5,13.7-6.3,18.8c-0.6,2.6-1,4.7-1.1,6.3c0,0.2,0,0.4,0,0.5s0,0.4-0.1,0.5c0,0.3,0,0.5,0,0.8
						c0,0.5,0.1,0.8,0.3,0.9c3.3-6.6,6.6-13.3,9.9-19.9c3.3-6.6,6.6-13,9.8-19.5c-2.2,5.8-3.9,9.7-5.5,12.6c-0.7,1.5-1.5,2.7-2.2,4
						c-0.6,1.2-1.3,2.4-2,3.5c-1.5,2.3-2.8,4.6-4.3,8.3c-0.7,1.8-1.5,3.9-2.3,6.4c-0.8,2.5-1.8,5.1-2.9,8.3c1.8-2,3.7-5.9,6.2-10.7
						c2.4-4.7,5.1-10.2,7.7-15.9c2.6-5.6,5.3-11.4,7.5-16.5c1.1-2.6,2.1-4.9,3-7.1c0.5-1.1,0.9-2,1.2-3c0.3-0.9,0.5-1.8,0.8-2.6
						c-0.1,0.5-0.1,1.1-0.2,1.5l-0.4,1.5l-0.6,2.7c-0.3,0.8-0.6,1.6-0.9,2.4l-0.5,1.2l-0.1,0.3v0.1l-4.6,9.4l-0.1,0.1l-0.3,0.5
						c2.3-4.8,1.3-2.7,5.9-12.3c1.8-3.8,3.7-7.8,5.7-11.9c0.3-0.5,0.5-1.1,0.8-1.6c0.5-1.2,1.2-2.5,1.6-3.6c1.7-3.6,3.3-6.8,4.1-8.7
						c-0.5,0.9-0.9,2-1.5,3.1c-0.1,0.3-0.3,0.6-0.4,0.9l-0.1,0.2c-1.8,3.7-3.6,7.5-5.4,11.2v0.1l-0.1,0.2c-0.3,0.4,0,0,0.3-1.1
						c0.2-0.6,0.5-1.3,0.6-1.9c0.3-0.8,0.5-1.6,0.7-2.5c0.3-0.9,0.5-1.8,0.8-2.8c0.3-1,0.5-1.9,0.6-2.9c0.8-3.8,0.8-7.4-0.5-8.3
						c-0.4-0.3-0.8-0.4-1.3-0.2c-0.5,0.1-1.2,0.5-1.9,1c-1.4,1.1-3.3,3.1-5.5,6.4l3.1-8.8c-4.9-4.3-12.2-8.8-20.6-12.6
						c-4.2-1.8-8.5-3.6-12.9-4.9c-0.5-0.2-1.1-0.4-1.6-0.5c-0.5-0.2-1.1-0.4-1.7-0.5c-1.1-0.3-2.3-0.6-3.4-0.9
						c-2.3-0.5-4.5-1.1-6.7-1.5c-9-1.9-18.1-3.1-27.7-3.8c-2.4-0.2-4.8-0.4-7.3-0.6c-2.5-0.2-5-0.3-7.6-0.5
						c-5.1-0.2-10.5-0.5-16.2-0.6c0,6-1,10.2-2.7,13.3c-1.7,3.2-4.1,5.3-6.8,7.3c-2.7,2.2-5.7,4.1-8.6,6.9
						c-2.9,2.8-5.6,6.3-7.7,11.7c-3.7-0.6-7.6-1.3-11.6-2c-2-0.4-4-0.6-6.1-1c-2.1-0.4-4.2-0.6-6.3-0.9c-4.3-0.6-8.7-1.1-13.1-1.5
						c-2.3-0.1-4.6-0.3-6.8-0.4c-2.3-0.1-4.6-0.1-6.9-0.1c-1.2,0-2.4,0-3.6,0c-1.2,0.1-2.4,0.2-3.6,0.2c-2.4,0.2-4.7,0.3-7.1,0.6
						c-2.4,0.4-4.7,0.6-7.1,1.1c-2.4,0.5-4.7,1-7.1,1.6c-9.4,2.6-18.6,6.6-26.8,12.7c-1,1.6-1.8,3.3-2.5,4.7
						c-0.6,1.5-1.2,2.9-1.5,4.2c-0.7,2.6-1,4.8-0.9,6.7c0.2,3.9,1.8,6.6,3.7,9.1c2,2.6,4.4,4.8,6.4,7.7s3.6,6.6,4.4,11.6
						c-4.6-4.7-9.5-6.6-14.6-7.1c-2.6-0.3-5-0.1-7.5,0.2c-2.5,0.3-4.8,0.7-7,1.2c-4.4,0.9-8.3,1.5-10.9,0.1
						c-1.4-0.6-2.5-1.9-3.2-3.8s-1-4.6-0.8-8.2c-1,1.2-2,2.4-3,3.6c-1,1.2-1.8,2.4-2.7,3.6c-0.9,1.2-1.7,2.3-2.6,3.4
						c-0.8,1.1-1.6,2.3-2.4,3.4c-3.2,4.4-5.8,8.7-8.2,12.8c-1.2,2.1-2.3,4.2-3.3,6.3c-0.3,0.5-0.5,1-0.8,1.5
						c-0.3,0.5-0.5,1.1-0.7,1.5c-0.5,1.1-0.9,2.1-1.4,3.2c-0.5,1.1-0.9,2.1-1.4,3.1c-0.5,1.1-0.8,2.2-1.2,3.2
						c-0.4,1.1-0.7,2.2-1.1,3.3l-0.5,1.6l-0.3,0.8l-0.1,0.2v0.1l0,0l0.1,0.1l0.1,0.1l0.8,0.9c4.4,5,8.9,10.1,13.5,15.3
						c0.5,0.6,1.1,1.3,1.7,1.9l0.8,1l0.5,0.5l0.2,0.3c0,0.1,0,0.1,0,0.1c-0.1,0.5-0.1,1.2-0.2,1.7c-0.1,1.2-0.2,2.4-0.3,3.6
						c-0.1,1.2-0.2,2.5-0.2,3.7c0,1.3,0,2.6,0,3.8c0,2.6,0,5.3,0.2,8.1c0.4,5.6,1,11.7,2.3,18.2c0.6,3.3,1.5,6.6,2.4,10.1
						c1,3.5,2.1,7.1,3.6,10.7c9.4-3.5,13.6-8.3,21.6-2.7c2.1,5,0.2,9.2-3.7,11.8c-1.9,1.4-4.5,2.3-7.2,2.7c-2.7,0.5-5.8,0.4-8.7-0.5
						l-2.9-2.8c5.6,7.9,9.7,14.5,12.7,19.7c1.5,2.6,2.6,4.9,3.4,6.8c0.8,1.9,1.3,3.5,1.4,4.7c0.2,2.5-1.1,3.6-3.9,2.2
						c-1.4-0.6-3.2-2.2-5.3-4.8l-0.8-1c-0.3-0.4-0.5-0.8-0.8-1.2l-0.8-1.3l-0.5-0.6c-0.2-0.3-0.3-0.5-0.5-0.8l-1.8-3.2
						c-0.6-1.4-1.2-2.6-1.8-4c-2.5-5.8-4.9-13.8-6.5-24.7c-0.4-2.9-0.6-5.9-1-8.8c-0.1-3.4-0.2-6.8-0.3-10.3l-0.1-2.6l0.4-3.1
						c0.3-2.1,0.5-4.2,0.7-6.3c0.5-4.2,1-8.5,1.5-12.7c0.3-2.1,0.5-4.3,0.8-6.4l0.2-1.5l0.1-0.8c0-0.4-0.1-0.8-0.1-1.2l-0.5-4.9
						c-0.5-6.6-1.2-13.2-1.7-19.8c-0.5-6.6-1.1-13.3-1.6-19.9l-0.2-2.5c0-0.2,0-0.5,0-0.6l0.4-0.5l0.7-0.8l3-3.5c2-2.3,4-4.6,6-6.9
						c4-4.6,8-9.2,12.1-13.8c2-2.3,4.1-4.6,6.1-6.8l1.5-1.7l0.4-0.5l0.5-0.4l0.9-0.6l3.6-2.6c9.6-6.9,19.1-13.8,28.8-20.5l1.8-1.3
						c0.6-0.4,1.2-0.9,1.8-1.1l3.6-1.5c2.4-1,4.7-2.1,7-3.1c4.7-2,9.4-4.1,14.1-6c2.4-1,4.7-1.9,7-2.9c2.3-0.9,4.8-2.1,6.7-2.4
						c4-0.9,8-1.8,12-2.6s8-1.6,11.9-2.4c2-0.4,3.9-0.7,5.9-1.1c0.5-0.1,0.9-0.1,1.3-0.1h1.2l2.4-0.1c6.3-0.2,12.5-0.2,18.5,0.1
						l2.3,0.1c0.4,0,0.7,0,1.1,0.1l0.9,0.2c1.2,0.2,2.3,0.5,3.5,0.6c2.3,0.5,4.6,1,6.8,1.5c2.3,0.5,4.5,1.2,6.6,1.8l1.6,0.5l0.4,0.1
						c0.1,0,0.2,0.1,0.3,0.2l0.6,0.3c0.8,0.4,1.6,0.8,2.5,1.3c3.2,1.7,6.3,3.6,9.3,5.6l1.1,0.8l0.5,0.4l0.3,0.2l0.2,0.2
						c0.5,0.5,1.1,1.1,1.6,1.7c1.1,1.2,2.1,2.4,3.1,3.6l-3.6-4l8.7,5.6c0.2,0.1,0.4,0.2,0.5,0.4l0.4,0.4l0.8,0.6l1.5,1.4l3.1,2.6
						l1.5,1.3c0.4,0.5,0.7,0.8,1.2,1.3l2.3,2.5c0.7,0.8,1.5,1.6,2.2,2.4l1.6,2.3c4.4,5.9,6.6,11,8.2,15.3c2.2-2.2,3.2-4.6,3.8-7.1
						c0.3-1.3,0.5-2.6,0.7-4.2c0.2-1.5,0.3-3.1,0.4-4.8c0.3-3.5,0.4-7.5,1.1-11.8c0.4-2.2,0.9-4.5,1.6-6.8c0.4-1.2,0.8-2.3,1.4-3.5
						c0.3-0.5,0.5-1.2,0.8-1.7c0.3-0.5,0.5-1.2,0.9-1.7c0.5,3.2,0.6,5.6,0.7,7.7c0,1,0.1,1.9,0.1,2.6c0,0.7,0,1.5,0,2
						c-0.1,2.2-0.5,2.8-1.3,2.6c-0.7-0.4-1.9-1.8-3.6-3.7c-1.5-1.9-4-4.5-7-7l-1.2-1l-0.5-0.5l-0.6-0.5c-0.9-0.6-1.8-1.3-2.6-1.9
						c-1-0.6-2-1.3-3-1.8c-0.5-0.3-1-0.6-1.5-0.9l-1.6-0.9c-4.5-2.3-9.4-4.1-14.7-5.2c-5.3-1.2-10.8-1.5-16.5-0.9
						c-2.8,0.3-5.6,0.9-8.5,1.8s-5.6,2.1-8.5,3.6c-1.3-2.3-2.7-4.3-4.2-6.2c-1.5-1.9-3-3.6-4.6-5.3c-3.2-3.3-6.6-6.1-10.3-8.2
						c-3.6-2.2-7.6-3.8-11.5-5c-1-0.3-2-0.5-3-0.8c-1-0.3-2-0.5-3.1-0.6c-2.1-0.4-4.2-0.5-6.3-0.7c-2.1-0.2-4.3-0.2-6.4-0.2
						c-2.1,0.1-4.3,0.3-6.5,0.5c-4.3,0.5-8.7,1.3-12.9,2.5c-2.2,0.6-4.3,1.3-6.5,1.9c-2.2,0.7-4.3,1.5-6.4,2.4
						c-4.2,1.7-8.5,3.6-12.5,5.6c-4.1,2.1-8.1,4.3-12.1,6.6c-3.9,2.4-7.7,4.7-11.7,7.1c-3.7,2.5-7.5,4.9-11.2,7.3
						c-3.6,2.4-7.3,4.8-11,7c-14.6,8.9-29,16-46.9,17.9c4.7,2.9,9.5,6,14.1,9c0.1,1.3,0.2,2.4,0.1,3.3c0,1-0.1,1.8-0.3,2.6
						c-0.4,1.5-1,2.6-1.8,3.3c-1.7,1.5-4.4,1.6-7.4,1.4c-1.5-0.1-3.2-0.4-4.8-0.6c-1.6-0.3-3.3-0.5-5-0.5c-3.3-0.3-6.5-0.1-8.8,1.3
						c5.5,3.3,10.7,2.8,14.8,3.1c4,0.2,6.8,1.2,7.7,6.9c-1.7,2.9-3.6,5.7-5.3,8.6c-1.7,2.9-3.5,5.7-5.1,8.7
						c-1.6,2.9-3.3,5.8-4.9,8.7c-0.8,1.5-1.6,2.9-2.4,4.4l-1.2,2.2l-0.2,0.3c0,0,0,0,0,0.1l0.3,0.3l0.6,0.5l2.4,2.1l4.8,4.2l4.8,4.2
						l2.4,2.1l1.2,1l0.6,0.5l0.3,0.3c0.1,0.1,0.4,0.3,0,0.1c-5.4-1.8-10.7-3.7-16-5.6l-4-1.4l-1.5-0.6c-0.2,0-0.4-0.2-0.5-0.2
						l-0.1,0.1l-0.2,0.4l-0.7,1.5l-1.5,2.9c-1.9,3.9-3.7,7.9-5.5,12c-3.6,8.2-6.7,16.9-9.5,26.5c-2.7,9.5-4.9,19.8-6.2,31.1
						c-1.3,11.3-1.5,23.7-0.1,36.8c0.7,6.6,1.9,13.4,3.6,20.2c0.9,3.5,1.8,6.8,2.9,10.3s2.3,6.8,3.6,10.3c0.6,1.7,1.4,3.4,2.1,5.1
						c0.7,1.6,1.5,3.4,2.3,5c1.5,3.4,3.3,6.6,5.1,9.8l1.4,2.4l1.5,2.4c1,1.6,2,3.2,3,4.7c1,1.6,2.1,3.1,3.2,4.6
						c1.1,1.5,2.2,3,3.3,4.6c9,11.8,19.3,22,30.1,30.6c10.7,8.6,22.1,15.6,33.7,21.3c11.7,5.7,23.7,10.1,36.2,13.3
						c3.1,0.7,6.3,1.5,9.5,2.1c1.6,0.3,3.2,0.6,4.8,0.9l2.4,0.4l2.3,0.4c3,0.5,6.1,0.9,9,1.2c3,0.3,6,0.6,8.9,0.7
						c11.8,0.7,23.1,0.5,33.9-0.5c10.7-1,20.9-2.6,30.3-4.8c9.5-2.2,18.4-4.7,26.8-7.7c4.2-1.5,8.3-3,12.1-4.6
						c2-0.8,3.9-1.6,5.8-2.5c1.9-0.9,3.8-1.8,5.7-2.7c2.8-1.4,5.1-3,7-4.7c1.9-1.7,3.5-3.6,4.6-5.6c2.3-4,3.3-8.4,3.4-12.8
						c0.2-9-3-18.6-5.6-27.3c-2.6-8.7-4.5-16.8-2-22.8c0.6-1.5,1.5-3,2.7-4.3c1.3-1.3,2.8-2.6,4.7-3.6c3.9-2.3,9.6-4.1,17.4-5.9
						c2.3,5.1,4.5,10.3,6.5,15.5c1,2.6,2,5.3,3,8c0.9,2.6,1.8,5.4,2.7,8.1c4.6-11.6,9.3-22.4,13.9-33.1c4.6-10.7,9.2-21,13.6-31.5
						c2.3-5.3,4.6-11,7-17.2c2.4-6.2,4.7-12.8,7-20.3c2.2-7.4,4.2-15.5,5.7-24.4c1.5-8.9,2.5-18.6,2.4-29.1
						c-0.1-5.2-0.3-10.5-0.9-15.9c-0.3-2.7-0.6-5.4-1.1-8.1c-0.2-1.4-0.5-2.7-0.7-4c-0.3-1.4-0.5-2.6-0.8-3.9
						c-1.1-5.3-2.5-10.3-4.1-15.3c-0.8-2.4-1.6-4.8-2.5-7.2c-0.9-2.4-1.8-4.6-2.7-6.8c-3.8-8.9-8.3-16.9-13-24.1
						c-4.7-7.2-9.8-13.5-15-19.1c-5.3-5.6-10.7-10.6-16.2-14.8c-1.4-1.1-2.8-2.2-4.2-3.1c-1.5-1-2.8-2-4.3-2.9
						c-2.9-1.8-5.8-3.7-8.8-5.3c-12-6.6-24.8-10.9-37.4-12.8c4.1-1.9,7.3-4.7,10.7-6.6c3.3-1.7,6.7-2.6,11.3,0.2
						c-0.5-1.9-1.4-3.7-2.4-5.5c-1-1.7-2.2-3.4-3.6-4.9c-2.8-3.2-6.4-5.8-10.4-8.1c-8-4.5-17.9-7-27.1-7.3c-2.3-0.1-4.6-0.1-6.8,0.1
						c-2.2,0.2-4.4,0.5-6.4,0.8c-4.1,0.8-7.8,2-11,3.5c-6.4,3-10.4,7.1-11.1,11.6c-6.9-2-7.4-6-7-10.9c0.4-4.9,1.6-10.7-2.9-15.6
						c-1.3-0.9-2.6-1.6-4.1-2.2c-1.5-0.5-2.9-0.8-4.5-1c-1.5-0.2-3.1-0.2-4.6,0s-3.2,0.5-4.7,0.9c-1.6,0.4-3.2,0.9-4.7,1.5
						s-3.2,1.3-4.7,2.1c-1.5,0.7-3.1,1.5-4.6,2.4s-3,1.7-4.5,2.6c-2.9,1.7-5.6,3.4-8.3,4.8s-5.1,2.6-7.4,3.2
						c-2.4,0.6-4.6,0.8-6.6,0.2s-4.1-2-6.1-4.4c-1.3-1.5-0.2-3.6,1.7-5.6c1.9-2,4.7-3.7,6.6-4.9c-3.2,3-8.8,5.3-15.2,7.5
						s-13.6,4.4-19.8,7.1c-6.1,2.6-11.2,5.9-13.2,9.4c-2,3.6-1,7.4,4.6,11.8c-9.7,0.9-18.6,4.6-26.3,9.5c-7.8,5-14.6,11.4-20.8,17.9
						c-1.5,1.6-3,3.4-4.5,5c-1.5,1.6-2.9,3.3-4.4,4.9c-1.5,1.6-2.8,3.3-4.3,4.8c-1.4,1.5-2.8,3.1-4.2,4.6c-2.9,3-5.7,5.8-8.9,8.3
						c-3.1,2.6-6.6,4.8-10.3,6.9c1.4,4.1,1.7,7.8,1.5,11.3c-0.3,3.5-1.4,6.6-2.7,9.7c-1.4,3.1-3.3,6-5.2,9c-1,1.5-2,2.9-3,4.4
						c-1,1.5-1.9,2.9-2.8,4.4c-1.9,2.9-3.5,5.8-4.6,8.7c-1.2,2.8-1.7,5.6-1.5,8.4c0.2,2.7,1.2,5.3,3.3,7.7c2.1,2.4,5.3,4.6,9.9,6.6
						c-4.8-1.7-9.3-2.4-13.2-1.9s-7.5,1.9-10.5,4.3c-3,2.4-5.6,5.6-7.6,9.5c-1,1.9-1.8,4-2.6,6.2c-0.7,2.2-1.2,4.5-1.6,6.8
						c-1.5,9.5-0.7,20,2.3,29.3c1.5,4.6,3.4,8.9,5.6,12.7c1.2,1.9,2.4,3.6,3.6,5.2c1.3,1.5,2.6,2.9,4,4.2c-3.3-1.5-5.6-0.9-7.6,0.6
						c-1.9,1.5-3.4,4.3-4.8,6.9c-1.5,2.7-3.1,5.5-5.6,7.2c-2.4,1.7-5.6,2.5-10.3,0.7c0.7,3.6,1.6,7,2.6,10.4
						c1.1,3.4,2.4,6.6,3.7,9.6c1.5,3,3,5.8,4.7,8.3c1.7,2.6,3.6,4.7,5.5,6.6s3.9,3.4,6,4.6c2.1,1.1,4.2,1.8,6.3,2.1
						c4.3,0.5,8.6-0.6,12.9-3.8c-1.5,4-2.6,7.9-3,11.8c-0.4,3.7-0.3,7.4,0.2,10.9c0.6,3.5,1.5,6.7,2.9,9.8c1.4,3.1,3.1,6,5.1,8.7
						c3.8,5.1,8.7,9.4,14,13c5.4,3.6,11,6.6,16.8,9.3c11.4,5.4,22.2,9.2,30.2,16c8,6.8,13.3,16.8,15.7,35c27.5,5.9,54.4,5,76.1,0.1
						c2.7-0.6,5.4-1.3,8-1.9l2-0.5l1.9-0.5l3.7-1.2l3.6-1.2c1.2-0.4,2.5-0.8,3.6-1.3c2.3-0.9,4.6-1.7,6.7-2.6
						c1.1-0.5,2.3-0.9,3.3-1.4l3.1-1.5c2.1-1,4.1-1.9,6.1-2.9c1.9-1,3.8-2,5.7-3.1c1.8-1,3.7-2,5.5-3.1
						c14.1-8.5,25.4-17.5,35.4-26.3c2.5-2.3,4.8-4.5,7.2-6.6l3.4-3.4l1.6-1.6l1.5-1.6c2-2.1,4-4.3,6-6.4c2-2.1,3.9-4.3,5.8-6.4
						c5.7,8.5,6.1,14.9,3.6,20.2c-2.6,5.3-7.5,9.3-13.3,13.5c-2.8,2.1-5.8,4.1-8.4,6.3c-2.6,2.2-4.9,4.5-6.6,7.1
						c-3.4,5.3-4.2,11.9,0.8,21.5c2.8-2.6,5.6-5,8.1-7.7c2.5-2.6,4.7-5.2,6.8-7.8c2-2.6,4-5.2,5.7-7.8s3.5-5.3,4.9-7.8
						c2.6-5.1,5.1-10,7.4-14.8c1.1-2.5,2.2-4.8,3.2-7.2c1-2.4,2.1-4.6,3.1-7c4-9.2,8-17.7,13.2-25.4c2.6-3.8,5.6-7.4,8.8-10.9
						c1.6-1.7,3.5-3.4,5.5-5c1.9-1.6,4-3.3,6.2-4.8c5.8-2.2,8.1,1.8,9.2,7.6c1.1,5.6,0.8,13.1,1.9,16.9c1.3-2.8,2.6-5.6,3.9-8.2
						c0.6-1.3,1.4-2.6,2.1-3.8l1.1-1.9l1-1.9c2.8-5,5.9-9.7,8.9-14.2c6.2-9.1,12.5-17.8,18.3-26.7c1.5-2.3,2.8-4.6,4.2-6.8
						c1.4-2.3,2.7-4.6,3.8-6.9c1.2-2.4,2.3-4.6,3.5-7.2l0.8-1.8c0.3-0.6,0.5-1.4,0.8-2c0.5-1.4,1.1-2.8,1.5-4.2
						c1-2.8,1.8-5.6,2.6-8.6c0.6-2.9,1.2-5.8,1.6-8.7c0.8-5.9,0.8-11.9,0.1-17.9c3.6,1.3,5.9,7.1,7.1,12.7c1-4.5,4.4-9,5-13
						s-1.3-7.4-10.5-9.4c0.4,1.5,0.7,3.1,1.1,4.7c0.4,1.5,0.7,3.2,1,4.8c-7.7,1.3-14.1-1.5-19.8-5.7c-2.8-2.2-5.5-4.7-8-7.5
						c-2.6-2.7-5-5.7-7.4-8.7c-4.8-5.8-9.4-11.6-13.8-15.9c-4.4-4.4-8.5-7.5-11.9-8.2c6.4,2.3,11.5,3.7,15.6,4.3
						c4.1,0.5,7.3,0.3,9.9-0.5c2.6-0.9,4.6-2.4,6.3-4.1c1.7-1.7,3.1-3.7,4.6-5.7c1.4-2,2.9-3.9,4.9-5.6c1.9-1.6,4.4-3,7.7-3.7
						c3.3-0.7,7.5-0.9,12.9,0c5.5,0.9,12.2,2.8,20.6,6.5c-0.8-1.5-2-3.3-3.5-4.8c-1.5-1.5-3.4-3.1-5.5-4.4c-4.2-2.6-9.7-4-15.9-3.5
						c0.8-2,1.8-3.6,3.1-4.9c1.3-1.3,2.9-2.1,4.9-2.5c2-0.4,4.4-0.2,7.2,0.5c2.8,0.8,6.1,2.2,9.7,4.6c-0.7-2.1-1.5-3.9-2.5-5.6
						c-0.5-0.8-0.9-1.6-1.3-2.4c-0.5-0.7-0.9-1.5-1.5-2.2c-0.9-1.4-1.9-2.6-2.9-3.6s-2-2.1-3-2.9c-1-0.9-2-1.6-3-2.4
						c-1-0.7-2-1.3-3-1.9c-2-1.2-3.9-2.1-5.7-3c-1.9-0.9-3.6-1.7-5.4-2.7c-1.7-0.9-3.3-2.1-4.8-3.3c-3.1-2.6-5.7-6.1-8.6-11.3
						c4.6-0.8,8.5-0.4,12.6,0.5s8.5,2.1,14.4,2.5c-2.2-0.9-4.4-1.8-6.6-2.6c-2.2-0.9-4.5-1.6-6.6-2.5c-4.3-1.6-8.7-3.1-12.7-4.6
						c-8.1-3-15.4-5.9-20.5-9.8c-1.6-1.1-3-2.5-4.2-3.8c-1.2-1.4-2-3-2.6-4.7c3.3-0.6,6.4-2,9.2-2.7c2.7-0.7,5.2-0.8,7,1.3
						c-6.1-5.6-15.2-9.1-25.4-11.1c-2.6-0.5-5.2-0.9-7.8-1.3c-2.6-0.4-5.5-0.5-8.2-0.8c-5.6-0.4-11.1-0.5-16.7-0.5
						c-11.1-0.1-21.8,0.4-30.9-0.3c-2.3-0.1-4.5-0.4-6.6-0.6c-2.1-0.3-4.1-0.6-5.9-1.3c-1.8-0.5-3.6-1.2-5.3-2s-3.3-1.8-4.7-3
						c11.5-8.3,17.4-13,19.8-16.3c1.2-1.6,1.5-2.9,1.4-4c-0.2-1.1-0.8-2-1.7-2.8c-1.8-1.7-4.3-3.5-5-6.6c-0.6-3.2,0.5-8.3,6.4-16.6
						c-3.2,0.5-6.3,0.8-9.4,1.3c-1.5,0.2-3.1,0.5-4.7,0.8l-4.7,0.9l-4.6,0.9l-5.2,1l-4.7,1.2c-1.5,0.4-3.1,0.7-4.8,1.3
						c0.2,0.7,0.4,1.5,0.5,2.2l0.3,2.2c0.2,1.5,0.4,2.9,0.5,4.4c0.3,2.9,0.5,5.7,0.4,8.6c-2.9-0.1-6.3,0.4-9.6,1
						c-0.8,0.2-1.7,0.4-2.6,0.6c-0.9,0.3-1.7,0.5-2.6,0.8c-1.7,0.5-3.6,1.2-5.3,1.9c-1.7,0.6-3.6,1.5-5.5,2.4
						c-1.8,0.8-3.6,1.7-5.5,2.6c-0.9,0.5-1.8,0.9-2.6,1.4c-0.9,0.5-1.9,1-2.8,1.5c-1.8,1-3.6,2-5.5,3c-3.6,2-7.2,4.1-10.7,6.1
						c-1.8,1-3.6,1.9-5.3,2.8l-1.3,0.6l-0.6,0.3l-0.7,0.4c-1,0.5-2,1-3,1.5c-2,0.9-3.9,1.8-5.8,2.6c-1,0.4-1.9,0.7-2.9,1l-1.5,0.5
						l-0.7,0.2l-0.9,0.4c-4.8,2.1-9.7,3.8-15.1,4.9c2.6-2.7,5.2-5.5,8-8.3c1.5-1.4,2.8-2.8,4.4-4.3l2.3-2.2l0.5-0.5
						c0.2-0.2,0.4-0.4,0.5-0.5l0.9-0.8c4.9-4.4,10.3-8.8,16-13.3l-10.3,4.4l-5.1,2.2l-1.3,0.5c-0.5,0.2-0.8,0.3-1.4,0.6l-3.2,1.8
						l-12.6,7.3l-3.1,1.8l-1.5,0.9c-0.5,0.4-1,0.5-1.6,1.2l-7.2,6.5l-14.2,12.8l-1.7,1.5l-0.9,0.8c-0.2,0.2-0.3,0.3-0.5,0.5
						l-0.4,0.6l-2.9,4.8l-5.8,9.7l-5.7,9.6l-2.8,4.7l-1.5,2.4l-0.7,1.2c-0.3,0.4-0.5,0.8-0.5,1.2l-5.5,19.5l5.1-10.5l2.5-5.1
						l1.3-2.5c0.1-0.2,0.2-0.5,0.4-0.6l0.5-0.5l1-1.2c5.3-6.2,10.4-12.1,15.3-17.8l3.6-4.2l1.8-2l0.9-1c0.2-0.2,0.3-0.4,0.5-0.5
						l0.5-0.3l8-4.6c5.2-3,10.2-5.8,14.9-8.5c-5.6,7.6-8.7,13.4-10.5,18c-0.8,2.3-1.4,4.3-1.5,6.1c-0.1,0.9-0.2,1.7-0.1,2.6
						c0.1,0.9,0.2,1.8,0.4,2.6c0.6,3.2,1.9,5.5,3.3,7.3c1.4,1.8,2.8,3.3,4.1,4.6c2.6,2.7,4.2,5.3,3.5,8.8c-0.4,1.8-1.4,3.8-3.2,6.6
						c-1.3,2.8-3.3,6.4-6.6,11.7c-0.1-1-0.3-1.4-0.7-1c-0.2,0.2-0.5,0.5-0.8,1c-0.2,0.3-0.4,0.5-0.5,0.8c-0.1,0.3-0.3,0.5-0.5,0.9
						c-0.6,1.4-1.3,3.2-2.2,5.4c-0.5,1.1-0.9,2.4-1.5,3.6c-0.3,0.6-0.5,1.4-0.8,2c-0.2,0.4-0.3,0.7-0.5,1.1
						c-0.1,0.3-0.2,0.6-0.4,0.9c-0.9,2.6-1.9,5.3-3.2,8.5c-0.6,1.5-1.3,3.2-1.9,4.8c-0.6,1.5-1.3,3-2,4.6c-0.7,1.6-1.5,3.3-2.3,5.1
						c-0.5,0.9-0.8,1.8-1.3,2.7s-0.9,1.9-1.4,2.7c-1.8,3.5-3.8,7.2-6.1,11.1c0,0,0-0.1-0.1,0c1.5,0.1,2.8,0.2,4.2,0.2
						c1.4-0.2,2.6-0.3,3.8-0.4c1.2-0.1,2.3-0.2,3.3-0.1c1,0.1,1.8,0.1,2.5,0.3c0.7,0.3,1.2,0.6,1.5,1.4c0.4,0.6,0.5,1.5,0.5,2.6
						s-0.2,2.6-0.5,4.4c-0.4,1.7-0.9,3.9-1.6,6.5c-3.9,7.8-10.6,18.5-17.2,28.4c-6.6,9.9-13.2,19-15.5,24.3c1.5-1.6,2.8-2.9,4-3.9
						c0.6-0.5,1.2-0.9,1.7-1.4c0.5-0.5,1.1-0.8,1.5-1.1c2-1.2,3.6-1.5,4.9-1.2c2.6,0.5,4.2,3.1,5.6,5.6c1.5,2.5,3.1,4.8,5.3,4.8
						c2.2,0,5-2.4,8.7-9.3c-3.6,5.7-12,26.7-13.3,31.8c2.1-3.7,4.1-7.5,6-11.1c2-3.6,3.8-7.4,5.7-11c-0.4,3.6-0.6,6.6-1,9.2
						c-0.4,2.7-0.7,5.1-1.2,7.6c-1,4.9-2.7,10-5.6,17.8c1.8,5.2,3.8,4.4,5.4,0.9c1.5-3.5,2.8-9.6,4.2-15.1
						c1.3-5.6,2.6-10.6,3.6-11.5c0.5-0.5,0.9,0,1.5,1.9c0.3,0.9,0.5,2.3,0.7,3.9c0.3,1.8,0.6,3.8,1,6.3c-0.7,0.3-1.3,1.5-1.9,2.9
						c-0.7,1.3-1.5,2.6-3.1,3c1.1,3.7,2.6,6.8,4.3,9.4c0.8,1.3,1.8,2.5,2.7,3.5c1,1,2,2,3.1,2.8c4.4,3.4,9.3,5.3,14.7,6.8l2,0.5
						l2.1,0.5l1,0.3l1.1,0.2c0.7,0.2,1.4,0.3,2.1,0.5c2.9,0.5,5.7,1.3,8.7,1.9c6,1.4,12.3,3.2,19.1,6.4c2.8,8.7,2.9,13.5,1.4,16.2
						c-0.7,1.4-1.9,2.3-3.2,2.9c-1.3,0.5-2.8,0.8-4.4,1c-1.5,0.2-3,0.3-4.3,0.6c-1.3,0.4-2.4,0.7-3.2,1.7c-1.5,1.9-1.9,5.7,0.8,13.5
						c5.4,0,10.9-0.6,16.4-2.2c5.5-1.5,10.8-3.6,16-6.2c5.2-2.6,10.2-5.7,14.9-9.1c1.2-0.8,2.4-1.7,3.6-2.6l1.7-1.3l1.7-1.4
						c0.3-0.3,0.5-0.5,0.9-0.7l1-0.7c0.6-0.5,1.4-1,2-1.5l3.8-3c1.3-1,2.5-2.1,3.6-3.1c1.2-1,2.4-2,3.6-3.1l1.7-1.5
						c0.5-0.5,1.1-1,1.6-1.5l3.1-3c2.1-1.9,4-3.9,5.9-5.8c1.9-1.9,3.8-3.7,5.7-5.6c7.7-7.3,15-13.7,23.7-18.6l-3.9,1
						c-1.4,0.3-2.6,0.5-4,0.8c-3.3-5.1-5.2-8.8-6.1-11.7c-0.9-2.7-0.7-4.6,0.2-5.6c1.9-2.2,7-1.8,13.3-1.5c3.1,0.1,6.5,0.2,9.7,0
						c3.3-0.3,6.5-0.7,9.2-1.8s4.9-2.6,6.3-4.8c1.4-2.3,1.7-5.2,0.8-8.7c0.1,2.9,4.6,8.2,8.5,12.2c4,4,7.5,6.7,5.7,4.6
						c1.5-1.2,2.9-2.6,4.2-3.9c1.3-1.4,2.5-2.9,3.6-4.5c2.3-3.1,4.1-6.6,5.6-10.2c0.7-1.8,1.5-3.7,2-5.7c0.6-1.9,1.2-3.9,1.5-6
						c0.5-2.1,0.8-4.2,1.1-6.4c0.2-1.2,0.3-2.4,0.5-3.6c0.1-1.2,0.3-2.5,0.4-3.6c0.4-5,0.5-10.3,0.2-16c-0.3-5.7-0.9-12-2.2-18.7
						c-1.3-6.6-3.2-13.8-6.3-21.3c-3.1-7.4-7.4-14.9-12.9-21.5c2.5,0.3,4.9,0.7,7.5,1.2c2.5,0.5,5,1.2,7.5,2c0-4.1-0.7-8.4-2.1-12.8
						c-0.7-2.2-1.5-4.4-2.6-6.6c-0.3-0.5-0.5-1.1-0.7-1.6c-0.3-0.5-0.5-1.1-0.8-1.5c-0.5-1.1-1.2-2.1-1.8-3.2c-0.6-1-1.3-2.2-2-3.1
						c-0.7-1-1.5-2-2.2-3c-0.7-1-1.5-2-2.3-2.9c-0.8-0.9-1.5-1.8-2.4-2.6c-0.8-0.9-1.6-1.7-2.6-2.6c-0.8-0.8-1.7-1.6-2.6-2.4
						c-1.7-1.5-3.6-3.1-5.4-4.5c-7.2-5.6-14.6-9.6-21.2-12.8c-6.6-3.2-12.8-5.7-18-8.5c-4.7,5.3-9.7,6.9-12.9,9.8
						c-1.6,1.5-2.8,3.1-3.3,5.6c-0.5,2.5-0.4,5.8,0.5,10.5c-2.8-4.9-5.7-8.8-8.9-12.3c-3.2-3.3-6.6-6-10.2-7.9
						c-7.1-4-14.5-5.3-21.6-4.7c-7.1,0.5-13.8,3-19.9,6.5c-6,3.6-11.5,8-16.4,12.8c-4.9,4.8-9.3,9.7-13.4,14.5
						c-4.2,4.6-8.2,8.9-12.8,12.2c-2.2,1.7-4.6,3.1-7.2,4.4c-1.3,0.6-2.6,1.1-4,1.5c-1.4,0.5-2.8,0.9-4.4,1.2
						c-1.5,0.3-3.2,0.5-4.8,0.7c-1.7,0.2-3.6,0.3-5.4,0.3c-1.9,0.1-3.9,0-6-0.1c-1.1-0.1-2.2-0.2-3.3-0.3c-1.1-0.1-2.3-0.2-3.5-0.4
						c0.5-0.5,0.9-1.2,1.3-1.9s0.6-1.5,0.8-2.5c0.5-1.7,0.5-3.7,0.5-5.5c-0.1-3.5-1.2-6.1-3-4.6c-4.2,6.3-8,12.7-11.5,19.2
						c-3.4,6.6-6.4,13.2-8.9,20c9.5,4.8,12.8,5.7,16,5.8c1.5,0,3.2-0.1,5.5,0c2.3,0.2,5.2,0.5,9.6,1.7c1.6,2.8,3.1,5.8,4.1,8.7
						c0.5,1.5,1,2.9,1.4,4.3c0.5,1.5,0.7,2.8,1,4.1c0.3,1.4,0.4,2.6,0.5,3.8c0.1,1.3,0.1,2.5,0,3.6c-0.2,2.2-0.6,4.2-1.6,5.7
						c-0.6-2.4-1.5-4.5-2.6-6.3c-1.1-1.8-2.4-3.4-3.8-4.7c-3-2.7-6.8-4.6-11-5.6c-4.2-1.1-8.7-1.3-13.2-1.2c-4.5,0.1-8.7,0.7-12.3,1
						c3.2,1,5.9,2.9,8.7,4.9s5.6,4,8.6,5.3c-5.2-0.1-8.7,0.3-10.7,1s-2.5,1.7-2,2.9c0.9,2.3,5.8,5.2,11,8.4c5.2,3.2,10.7,6.6,13,9.8
						c1.1,1.6,1.5,3.2,0.6,4.7c-0.9,1.5-3,3.1-6.9,4.9c-3.4-1.5-6.8-3-10.2-4.5c1.3,5.4,5.1,10.8,8.1,15.8c3.1,5,5.4,9.2,3.4,13.6
						c-6.1,0.5-9.8,0.2-12.3-0.7s-3.6-2.5-4.6-4.2c-1-1.7-1.7-3.6-3.5-5.4c-1.7-1.7-4.5-3.3-9.4-4.3c-0.2,2,0.4,4.2,1.5,6.3
						c1.1,2.2,2.6,4.3,4.5,6.4c3.7,4.2,8.6,8,12.8,11.3c1.1,0.8,2.1,1.6,3,2.4c1,0.8,1.9,1.5,2.6,2.3c1.5,1.5,2.8,2.9,3.4,4.4
						c1.2,2.9,0.1,6-5,10.7c-4-2.1-6.6-5.7-8.7-9.4c-0.5-0.9-1.1-1.9-1.6-2.8c-0.5-0.9-1.1-1.9-1.7-2.8c-1.3-1.8-2.6-3.6-4.3-5.3
						c-7.1,4.1-11.7,8-14.8,11.4c-3,3.4-4.6,6.3-5.3,8.9c-0.4,1.4-0.5,2.6-0.5,3.8s0.1,2.6,0.2,3.9c0.1,1.4,0.3,2.8,0.5,4.5
						c0.2,1.6,0.3,3.4,0.4,5.6c0-0.6,0.1-1.2,0.1-1.7v1.2v1.3l0.1,2.6c0.1,1.7,0.1,3.5,0.3,5.2c0.3,3.5,0.7,7,1.3,10.5
						c1.2,7,3.1,13.9,5.6,21c-0.1-2.2,0-4.5,0-6.6c0.1-2.2,0.2-4.3,0.4-6.5c4.3-0.5,8.3-1.1,11.8-1.5c3.6-0.4,6.6-0.6,9.5-0.9
						c2.8-0.2,5.4-0.3,7.7-0.2c2.3,0,4.4,0.2,6.2,0.5s3.6,0.6,5.1,1.1c1.5,0.5,2.9,1.1,4.3,1.7c1.4,0.6,2.6,1.4,3.9,2.2
						c1.3,0.7,2.6,1.5,3.7,2.5c2.6,1.6,5.1,3.5,8,4.8c0.7,0.4,1.5,0.7,2.2,1c0.8,0.3,1.5,0.5,2.4,0.7c0.8,0.2,1.6,0.5,2.5,0.5
						c0.8,0.2,1.7,0.2,2.6,0.3c1.8,0.1,3.6,0,5.5-0.5c0.9-0.2,1.9-0.5,2.8-0.8c0.5-0.2,0.9-0.4,1.5-0.5c0.5-0.2,0.9-0.5,1.5-0.7
						c3.8-2,7.5-5.5,10.4-10.7c-1.5,2.5-2.8,4.6-4.3,6.6c-0.7,1-1.4,1.9-2.1,2.7c-0.7,0.8-1.4,1.6-1.9,2.4c-2.5,3-4.6,5.5-6,7.3
						c-2.9,3.8-3.4,6.3-2.6,8.7c0.8,2.4,2.8,4.6,4.4,7.7s2.7,7.6,1.1,14.3c1.4,1.2,2.8,2.2,4.4,3.4c1.5,1.1,3.2,2.2,4.8,3.3
						c3.3,2.1,6.6,4.1,9.6,5.9c2.9,1.9,5.4,3.7,6.8,5.6c1.5,1.8,1.9,3.8,0.7,5.9c2.7-3.1,5.3-5.3,7.7-6.8c2.4-1.5,4.8-2.5,7.1-3
						c2.4-0.5,4.8-0.6,7.2-0.6c2.4,0,5,0.1,7.5,0s5.1-0.3,7.5-0.9c1.2-0.3,2.4-0.7,3.6-1.3c1.2-0.5,2.2-1.2,3.3-2
						c4.3-3.3,7.5-9.1,8.1-18.9c2.7,3.6,6.5,1.5,10.6,1.1c2.1-0.2,4.1,0,6.4,1.5c2.3,1.5,4.6,4.3,7.1,9.4c1.7-2.3,2.6-4.1,3.2-5.6
						c0.5-1.5,0.5-2.6,0.1-3.6c-0.4-0.9-1.1-1.6-2.1-2.2c-1-0.5-2.2-1-3.6-1.4c-2.7-0.7-5.8-1.3-8.7-2.3c-2.8-1-5.3-2.6-6.5-5.1
						c0.8-5.2,2.6-9.1,4.6-12.2c1-1.5,2.3-2.9,3.6-4.1c0.7-0.5,1.4-1.2,2.2-1.6c0.7-0.5,1.5-1.1,2.4-1.5c1.6-1,3.4-1.8,5.3-2.6
						c1.9-0.8,3.8-1.6,5.8-2.4c2-0.8,4.2-1.5,6.3-2.4c2.1-0.8,4.3-1.6,6.5-2.6c2.2-0.9,4.4-1.9,6.5-3c2.1-1.1,4.2-2.3,6.2-3.6
						c3.8-2.7,7.6-5.8,10.2-9.7c5.6-7.7,7.7-18.2,2.9-31.3c-0.1-4.6-0.5-8.7-1.5-12.7c-0.9-3.9-2.1-7.6-3.7-11
						c-1.5-3.5-3.3-6.6-5.2-9.7c-1.9-3-4-5.9-6.1-8.7c-2-2.7-4.3-5.5-6.4-8c-2.1-2.6-4.2-5.2-6.2-7.8c-1-1.3-2-2.6-2.9-3.9
						c-0.9-1.3-1.8-2.6-2.7-4c-1.8-2.6-3.4-5.5-4.8-8.3c3.7-1.2,7.7-1.3,11.2-0.5c3.6,0.7,7,2.3,9.9,4.2c2.9,1.9,5.3,3.9,6.9,5.6
						c1.6,1.6,2.6,2.8,2.6,2.8c1.9-1.4,3.6-2.8,5.1-4.3c0.7-0.7,1.4-1.5,2-2.4c0.6-0.8,1.2-1.6,1.6-2.6c1.9-3.5,2.9-7.5,2.8-11.8
						c-0.1-4.3-1.2-9-3.5-13.8c-2.3-4.7-5.7-9.7-10.5-13.8c4.5,0.5,7.8-0.6,10.7-3.8c2.8-3.2,5-8.4,6.5-15.4c-1-1.4-2.1-2.5-3.2-3.4
						c-1.1-0.9-2.2-1.6-3.3-2.3c-2.2-1.2-4.4-1.6-6.6-1.8c-2.1-0.2-4.2,0.1-6.1,0.5c-2,0.4-3.8,0.9-5.6,1.3
						c-1.8,0.5-3.5,0.9-5.1,1.1c-0.8,0.1-1.5,0.1-2.4,0.1c-0.7,0-1.5-0.1-2.2-0.4c-0.7-0.2-1.5-0.5-2.1-1c-0.7-0.5-1.4-0.9-2.1-1.6
						c-1.4-1.5-2.7-3.3-4.3-5.9c1.9-1.8,4.1-3.8,6.6-5.9c1.3-1,2.6-2.1,4-3.1c1.4-1,2.9-2,4.5-2.9c3.1-1.8,6.5-3.6,10.2-4.6
						c1.8-0.5,3.7-1,5.7-1.3s4.1-0.3,6.1-0.1c-3.8-2-7.7-3.3-11.4-4.3c-1.8-0.5-3.6-0.8-5.5-1.2s-3.6-0.5-5.3-0.6
						c-6.9-0.5-13.3,0.2-18.9,1.5c-5.7,1.3-10.8,3.1-15.5,4.9c-2.3,0.9-4.6,1.8-6.6,2.7c-1.1,0.5-2.1,0.9-3,1.4
						c-1,0.5-1.9,0.8-2.8,1.2c-0.9-7.9,2-13.5,6.4-18.1c4.6-4.6,11.3-7.8,16.2-11.8c-1.5,0.1-3.1,0.1-4.7,0.2
						c-1.5,0.1-3.2,0.3-4.7,0.4c-0.8,0.1-1.5,0.2-2.4,0.3c-0.7,0.1-1.6,0.2-2.4,0.4c-1.5,0.3-2.8,0.5-4.3,0.9
						c-1.5,0.3-2.9,0.6-4.3,1c-1.5,0.4-2.8,0.8-4.3,1.3c-1.5,0.5-2.8,1-4.2,1.5c-1.4,0.5-2.6,1.2-4,1.8c-2.6,1.3-5,2.7-7.2,4.6
						c-2.2,1.7-4.2,3.6-5.8,5.8c-3.4,4.4-5.6,9.5-6.3,15.7c1.7,1.4,3.5,2.7,5.1,4.1l2.5,2.1c0.8,0.7,1.5,1.5,2.4,2.2
						c-2.6,0.5-3.5-4.6-3.1-10.6c0.3-6,2-12.7,4.3-14.9c3.6-4.8,7-6.6,9.8-6.4c2.7,0.1,4.9,2.4,6.5,5.3c3.1,5.9,3.6,15.3,3.4,19.8
						c-0.8,0.4-1.7,0.7-2.6,1.1l-2.6,1.2c-1.6,0.8-3.3,1.5-4.9,2.5c0.7,6.6,1.7,11.5,3,14.9c0.6,1.7,1.3,3.1,2,4.2
						c0.7,1.1,1.5,1.9,2.4,2.5c3.4,2.1,7.8,0.3,13.8-2.4c1.5-0.6,3-1.4,4.7-2c1.6-0.6,3.4-1.4,5.3-1.9c3.6-1.2,7.7-2,11.9-2.2
						c4.2-0.1,8.6,0.6,12.5,2.4c1,0.4,1.9,1,2.8,1.5s1.8,1.2,2.6,1.8c1.6,1.5,3.1,2.9,4.1,4.7c-6.4,1.8-12.6,4.6-18.1,7.7
						c-2.8,1.6-5.6,3.4-8.1,5.3c-1.3,0.9-2.6,1.9-3.8,2.9c-1.3,1-2.5,2-3.6,3.1c4.9-2.6,10.7-4.3,17.1-4.2c6.3,0,13.1,1.8,19.5,5
						c-1.9,2.2-4.6,4.2-7.9,5.7c-3.2,1.5-6.8,2.7-10.3,3.5c-7.1,1.4-13.9,1.2-17.3,0.2c-1,0.8-1.8,1.4-2.5,1.9
						c-0.7,0.5-1.2,0.9-1.6,1.3c-0.8,0.7-1.1,1.1-1,1.5c0.2,0.7,1.8,1.3,3.5,1.9c1.5,0.6,3.1,1.5,2.8,2.6c-0.3,1.1-2.2,2.4-7.6,3.6
						c-3.3,0.5-5.1-0.2-6.6-0.9c1.7,1.4,3.5,2.9,5.1,4.6c1.6,1.7,3.1,3.7,4.6,5.6c-3.7-1.7-10.4-2.6-15.2-3.6
						c-4.9-1.1-8.1-2.2-4.9-4.1c-3,1.3-4.9,2.6-6,4c-1.1,1.4-1.5,2.8-1.2,4.3c0.3,1.5,0.9,3.1,1.8,4.8c0.5,0.8,1,1.6,1.5,2.6
						c0.5,0.8,1.1,1.7,1.6,2.5c1.1,1.6,2.1,3.3,2.8,4.7c0.6,1.5,1,2.7,0.8,3.7c-0.3,1-1,1.7-2.6,1.9c-1.6,0.2-4.1,0-7.7-0.9
						l-1.6-2.1c0.2,1.5,0.5,2.8,0.8,4.1c0.4,1.3,0.6,2.4,1.1,3.5c0.8,2.1,1.9,3.9,3.2,5.5c2.6,3.1,6,5.2,10.2,7.5s9,4.6,13.8,8.5
						c2.5,1.9,4.9,4.3,7.3,7.4c1.2,1.5,2.4,3.2,3.5,5.1c1.1,1.9,2.1,3.9,3,6.3c-5.6-2-10.9-4.1-16.3-6.3c-5.4-2.3-10.7-4.6-16-7
						c-5.3-2.5-10.5-5-15.6-7.7c-5.2-2.6-10.2-5.5-15.2-8.4c6.9,6.2,13.8,12.5,20.6,18.9c-1.1,0.6-2.9,1.5-5.4,1.2
						c-2.5-0.3-5.5-1.8-9.4-5.8c2.2,4.6,3.7,7.6,5.2,9.4c1.5,1.8,2.7,2.6,4.1,3.3c1.4,0.6,2.7,1.2,4.5,2.6c1.6,1.4,3.6,3.6,5.9,7.7
						c-3.5-1-6.2-1.2-8.6-1.1c-2.4,0.2-4.2,0.9-5.8,1.9c-1.6,0.9-3.1,2.3-4.4,3.6c-1.4,1.3-2.6,2.7-4,3.9c-2.6,2.5-5.6,4-9.3,2.6
						c-1.8-0.7-3.9-2.1-6.2-4.6c-2.3-2.5-4.7-6-7.7-10.7c1.9,5,3.6,8.2,5.5,10.4c1.8,2.1,3.6,3.3,5.1,4.3c1.5,1,2.8,1.9,3.5,3.7
						c0.4,0.9,0.5,2.1,0.5,3.6s-0.3,3.5-0.9,5.8c-12.8-20.1-13.5-17.6-15.1-11.4c-0.4,1.5-0.8,3.2-1.5,4.8c-0.5,1.5-1.4,3-2.3,3.9
						c-0.5,0.5-1,0.8-1.5,0.9c-0.5,0.1-1.1,0.1-1.7-0.2c-0.5-0.3-1.2-0.8-1.7-1.5c-0.5-0.7-1.1-1.8-1.5-3.2c0.5-6.1,0.9-10,1.2-12.6
						c0.3-2.6,0.5-4,0.5-5.4c0.1-1.4-0.1-2.6-0.5-4.7c-0.3-1.1-0.6-2.4-1-4.2c-0.2-0.9-0.4-1.9-0.5-3c0-0.3-0.1-0.5-0.1-0.8
						c0-0.1,0-0.2,0-0.2v0.1v0.3c0,0.3,0.1,0.5,0.1,0.8c0,0.2,0,0.4,0,0.5c0,0.7,0.1,1.5,0.1,2.4c0,1.9,0.1,3.5,0,4.8
						c-0.1,1.3-0.2,2.3-0.3,3.1c-0.2,0.7-0.3,1.3-0.5,1.5c-0.4,0.6-0.5,0.3-0.6-0.5c0-0.4,0-1,0-1.6c0.1-0.6,0.2-1.4,0.4-2.2
						c0.2-0.8,0.4-1.7,0.6-2.6c0.1-0.5,0.3-0.8,0.5-1.3c0.2-0.5,0.4-0.9,0.5-1.4l0.3-0.6l0.2-0.3l0.3-0.5c0.2-0.5,0.4-0.8,0.6-1.2
						c0.1-0.2,0.2-0.4,0.3-0.5c0.1-0.2,0.2-0.4,0.4-0.5c0.2-0.4,0.5-0.7,0.6-1.1c0.5-0.6,0.9-1.4,1.4-1.8c-5.1,6.5-8.4,10.2-11,11.9
						c-2.6,1.6-4.5,1.4-5.7,0.2c-1.4-1.2-2.2-3-3.3-4.7c-0.3-0.5-0.5-0.8-0.9-1.3c-0.3-0.5-0.6-0.8-1.2-1.2
						c-0.9-0.9-2.1-1.8-3.7-2.7c1.4-0.3,2.6-0.7,3.7-1.5c1.2-0.7,2.3-1.6,3.3-2.6c2.2-2,4.3-4.3,6.6-6.7c2.4-2.5,5-4.9,8-7.1
						c3-2.2,6.3-3.9,9.8-4.8l5.2,2c-7.8-3-13-5.7-16.6-8.6c-3.5-2.7-5.2-5.4-5.8-8c-0.2-0.6-0.3-1.3-0.4-1.9
						c-0.1-0.6-0.1-1.3-0.1-1.9s0.1-1.3,0.1-1.9c0.1-0.6,0.2-1.3,0.3-1.9c0.1-0.6,0.2-1.3,0.3-1.9c0.1-0.6,0.2-1.3,0.3-1.9
						c0.1-0.6,0.1-1.3,0.2-2c0.1-0.6,0.1-1.4,0-2.1c8.2,5.7,13.7,10.1,17.9,13.8c2.1,1.9,3.9,3.6,5.6,5.3c1.6,1.7,3.2,3.4,4.7,5.1
						c0.7-1.5,1.6-2.9,2.6-4.4c-4-3.6-6.8-6.6-8.7-9.7c-1.8-2.9-2.6-5.7-2.5-8.7c5.8,6,11.8,11.8,17.9,17.5c0.8-1.5,0.5-4.1,0-7.2
						c-0.1-0.8-0.3-1.6-0.4-2.5s-0.2-1.7-0.3-2.6c-0.2-1.7-0.3-3.5-0.3-5.2c0.1-1.7,0.3-3.3,0.7-4.7c0.5-1.4,1.2-2.6,2.2-3.5
						c1.9-1.7,5.1-1.9,9.4,0.5c-2.6-5.2-6.2-11.3-10.4-17.4c-4.2-6.2-8.9-12.6-13.2-18.9c-4.3-6.4-8.2-12.7-10.1-18.9
						c-1-3.2-1.5-6.3-1.2-9.5c0.3-3.1,1.2-6.3,3.1-9.4c3.1,5.6,7,13.1,9.9,20.2c2.8,7.1,4.7,13.6,3.8,16.9c0.3-1.1,0.4-4.1,1.1-6.3
						c0.4-1.1,0.9-2.1,1.6-2.6c0.7-0.5,1.7-0.4,3,0.6c0.2,3.7,0.5,7.4,1,11.1s1,7.3,1.6,10.9c2.5,1.4,3.4,1.1,3.6-0.4
						c0.2-1.4-0.5-3.8-1.2-6.4c-1.5-5.2-3.3-11.2-0.1-11.4c6.4,16.9,8.2,10.7,12.1,24.4c-0.3,1-1.7-0.4-3.2-1.2s-2.7-0.7-2.2,2.8
						c1.5,0.3,3.2,0.9,4.9,2.1c1.7,1.1,3.6,2.7,5.2,4.7c3.4,3.9,6.3,9.5,8.3,16c-1.3-4.9-2.6-10.8-3.4-15.9
						c-0.4-2.6-0.5-4.8-0.4-6.7c0.1-1.8,0.5-3.3,1.3-4c0.3-0.1,0.5-0.2,0.8-0.2c0.3,0,0.5,0,0.7,0c0.5,0,0.9,0.2,1.3,0.4
						c0.7,0.4,1.4,1.2,1.8,2.2c0.9,2,1.5,5,1.8,8.4c0.4,3.4,0.7,7,1.2,10.4c0.5,3.4,1.1,6.6,1.7,8.8c0.1-3.1,0.5-4.7,0.9-5.6
						c0.5-0.9,1-1.4,1.5-2.2c0.5-0.8,1-2.1,1.6-4.8c0.5-2.7,1.2-6.9,1.8-13.6c0.5,0.1,0.9,0.9,1.1,2.3c0.2,1.4,0.1,3.2,0,5.2
						c-0.3,4.1-0.9,8.9-1.4,12.6c0.7-2.9,1.5-4.5,2.3-5.6c0.1-0.3,0.3-0.5,0.5-0.8c0.1-0.2,0.1-0.3,0.2-0.4l0.5-1.4
						c0.3-0.7,0.5-1.4,0.8-2c0.3-0.6,0.5-1.4,0.8-2c0.6-1.4,1.2-2.6,1.7-3.7c0.6-1.1,1.2-2.3,1.7-3.3c0.3-0.5,0.5-1,0.8-1.5
						c0.3-0.5,0.6-0.9,0.8-1.3c0.5-0.7,0.9-1.5,1.4-2c0.2-0.3,0.5-0.5,0.6-0.8c0.2-0.2,0.3-0.5,0.5-0.6c0.5-0.7,0.8-1.1,0.8-1.1
						s-0.1,0.2-0.3,0.4c-0.1,0.1-0.1,0.1-0.2,0.2l-0.1,0.1c0.1-0.2,0.3-0.3,0.4-0.5c0.5-0.6,1-1.4,1.5-2.1c0.3-0.5,0.5-1.1,0.8-1.7
						c0.4-0.5,0.5-0.4,0.9-0.8l0,0l0,0c2.4-2.4,4.5-3.6,6-4.1c1.5-0.5,2.3-0.3,2.5,0.2c0.5,1-1.6,3.3-4.8,5.5
						c-3.2,2.3-7.4,4.6-10.7,7.3c-3.6,3.3-5.9,6.6-5.9,11.8l-7.6-4.9c0.2,0.8,0.4,1.6,0.5,2.5s0.1,1.6,0.1,2.4
						c0,0.8-0.1,1.5-0.1,2.4c-0.1,0.7-0.3,1.5-0.4,2.3c-0.2,0.7-0.3,1.5-0.5,2.2l-0.6,2.2c-0.5,1.5-1,2.8-1.5,4.3
						c-1.9,5.8-3.5,12-1.3,22.5c-0.7,0.5-2.2,0.4-3.9-0.5s-3.8-2.4-5.9-4.3c-4.2-3.7-8.3-9.2-10.7-14c-1.2,4.6-1,9.5-2.6,11.9
						c-0.8,1.2-2.1,2-4,1.6c-0.9-0.1-2-0.6-3.3-1.3c-0.6-0.4-1.3-0.8-2-1.4c-0.4-0.3-0.7-0.5-1.1-0.8c-0.4-0.4-0.7-0.6-1.1-1.1
						c0.1-2.1,0-3.8-0.2-5.3c-0.2-1.5-0.5-2.6-0.6-3.6c-0.5-1.9-1.1-3-1.4-3.6c-0.5-1.1-0.4,0,3.2-0.2c-0.5-0.3-1.1-0.6-1.6-0.9
						c-0.5-0.4-1-0.7-1.5-1.2c-0.9-0.7-1.7-1.7-2.5-2.6c-0.4-0.4-0.7-0.8-1-1.3c-0.2-0.2-0.3-0.4-0.5-0.5c-0.2-0.2-0.5-0.3-0.6-0.5
						c-0.8-0.5-1.6-1-2.4-1.3c-1.5-0.5-2.6,0.1-3.6,2.3c-1.1,2.2-2.2,6-3.7,12c0-5.6-0.7-10.2-1.7-13.8c-0.5-1.8-1.1-3.4-1.6-4.7
						c-0.5-1.4-1.2-2.5-1.8-3.4c-2.5-3.6-4.8-4-6.4-1.4c1.6,5.9,3.6,11.7,6.2,17.4c-2.2,1.3-4.4,1-6.4-0.2c-2-1.2-3.8-3.2-5.4-5.3
						c1.1-8.8,2.1-17.9,2.7-27c-1.1-5.1-1.7-8.1-2.5-9.7c-0.7-1.6-1.5-1.9-2.3-1.6c-0.8,0.4-1.7,1.4-2.7,2.5c-1,1.1-2,2.3-3,3.1
						c-1.9,1.7-3.5,1.8-3.6-1.3c-0.1-3.1,1.2-9.4,4.6-18.6c-1,1.6-1.7,3.1-2.3,4.8c-0.6,1.7-1.1,3.6-1.6,5.7c-0.5,2.1-1,4.4-1.7,6.6
						c-0.7,2.3-1.5,4.7-2.8,6.8c0.3-2.8,1.2-6.8,2.4-10.9c1.2-4.1,2.6-8.2,3.9-11.8c2.6-7.2,4.9-11.9,5-12.6c1-2.7,1.1-3.4,0.8-3.6
						c-0.3-0.2-0.9,0.1-1.5,0.1c-0.6,0-1.1-0.2-1.1-1.3c0-0.5,0.2-1.3,0.5-2.3c0.4-1,0.8-2.1,1.5-3.5c-0.5,0.5-0.9,0.9-1.5,1.4
						c-0.5,0.5-1.1,0.7-1.5,0.7c-0.4-0.1-0.6-0.5-0.4-1.8c0.1-0.6,0.4-1.5,0.6-2.5c0.4-1,0.9-2.3,1.6-3.8c1.6-2.7,3.1-4.7,4.3-5.8
						c0.5-0.5,1.1-1,1.5-1.2c0.4-0.2,0.7-0.3,1-0.2c0.5,0.2,0.5,0.8,0.4,1.6c-0.2,0.8-0.5,1.9-1.1,3c-0.5,0.7-0.8,1.3-1.1,1.5
						c-0.3,0.3-0.5,0.5-0.5,0.3c-0.5,1.2-1.1,2.5-1.2,3.1c-0.1,0.6,0.3,0.5,1.3-0.5c-0.2-0.3-0.3-0.5-0.4-0.9
						c1.3-1.4,2.9-3.7,4.4-5.1c0.6-0.6,1.3-1.1,1.5-1.1c0.3,0,0.3,0.5-0.1,1.4c1.3-1.9,1.9-3.1,1.7-3.5c-0.2-0.3-1.2,0.2-2.4,1.2
						c0.4-0.3,0.6-0.5,1-0.8c0.4-0.3,0.6-0.5,0.9-0.7c0.5-0.5,1.2-0.9,1.7-1.3c1.2-0.8,2.4-1.7,3.6-2.6c0.6-0.5,1.4-0.8,2-1.2
						c0.7-0.4,1.5-0.7,2.1-1c1.5-0.5,2.9-0.8,3.9-0.5c0.3-0.7,0.9-1.9,1.5-2.9c0.6-1,1.5-1.9,2.2-2.1c0.6,0,1.2,0,1.7,0
						c0.5,0,1.1,0,1.5-0.1c1-0.2,1.9-0.3,2.8-0.6c1.8-0.6,3.6-1.6,5.6-2.8c1.9-1.2,4-2.6,6.5-3.8c1.3-0.6,2.6-1.2,4.1-1.6
						c1.5-0.5,3.2-0.8,5.1-1.1c-0.1,1.3-1.6,2.7-3.5,4.1c-1.8,1.4-3.9,2.6-5.4,3.6c-1.5,0.9-2.4,1.6-1.9,1.8c0.5,0.2,2.3-0.2,6.6-1
						c-0.2,2.1-4.6,4.3-9.2,6.3c-4.6,2.1-9.6,3.9-12.5,5.3c3.8-1.5,6.2-1.9,7.3-1.6c1,0.3,0.6,1.2-0.5,2.3c-1.2,1.1-3.3,2.4-5.4,3.6
						c-2.1,1.1-4.1,2.1-5,2.6c-0.1,0.1-0.3,0.2-0.3,0.2l-1.1,0.2c-2.4,0.5-4.6,1-6.7,1.6c2.3-0.6,3.6-0.8,4.3-0.8
						c0.6,0,0.8,0.1,1,0.3c6-1.7,11.8-3.6,17.3-5.5c-1.9,1.5-1.2,2.2-9.1,4c3.3-0.5,7-1.3,10.8-2.2c3.8-0.8,7.9-1.8,12.1-2.8
						c4.2-1,8.7-2,13.3-2.8c4.6-0.7,9.7-1.4,15.2-1.2c-0.9,0.5-1.3,1.1-1.4,1.5c-0.1,0.5,0.2,1,0.6,1.5c0.5,0.5,1.1,1,1.7,1.5
						s1.3,1.1,1.8,1.5c2,2.2,1.3,4.6-12.9,5.6c1.7-2.5,0.5-3.6-1.9-3.7c-2.5-0.2-6.3,0.5-10.7,1c-8.6,1.3-19,2.3-22.3,1
						c3.7,0.1,4.2,1.2,0.8,2.5c-3.1,0.4-5.9,0.2-7.7,0.1c-6,1.2-7.3,1.4-5.4,1.6c1.9,0.3,6.7,0.5,12.5,0.9c5.6,0.5,12.2,1,17.1,2
						c5,1,8.5,2.6,8,4.6c-8-1.6-15.8-2.1-21.1-2.5c-5.3-0.3-8.2-0.4-6.5,0.3c0.2-0.4,1.9-0.3,4.7,0c2.7,0.3,6.5,0.9,10.6,1.7
						s8.5,1.9,12.6,3.3c4.1,1.4,7.8,2.8,10.7,4.5c-3.6,0.8-4.8,1.6-4.9,2.6c-0.1,1,1.2,2.1,2.6,3.3c3.1,2.4,7.6,5.2,6,6.6
						c2.5-0.5,4.8-1.3,7.3-2.1c3.7,1.6,6.3,3.1,8,4.5s2.7,2.7,3.3,4.1s0.7,2.7,0.9,4.3c0,0.4,0.1,0.8,0.1,1.2c0,0.5,0.1,0.8,0.1,1.3
						c0.1,0.9,0.2,1.8,0.4,2.8c-5.7-2.6-7.1-4.7-7.7-6.3c-0.6-1.5-0.7-2.6-3.6-2.7c5.7,4.3,6.5,6.8,4.6,8c-2,1.4-6.6,1.6-11.5,1.5
						c-2.5,0-5-0.2-7.3-0.2c-2.3,0-4.3,0.1-5.9,0.5c-1.6,0.4-2.7,1.1-3.2,2.3c-0.2,0.6-0.3,1.3-0.1,2.2c0.2,0.9,0.5,1.9,1.1,3.1
						c-5.8-1.3-11.9-5.7-17.8-9.9c-5.7-4.3-11.1-8.2-15.1-9.2c1.5,2.5,2.1,4.2,2.2,5.5s-0.4,1.9-1.2,2.2c-1.6,0.6-4.6-0.3-7.6-1.5
						s-6-2.4-7.9-2.3c-0.9,0-1.5,0.5-1.8,1.4c-0.1,0.5-0.1,1.1,0,1.9c0.1,0.8,0.3,1.7,0.6,2.8c4.2,3.6,7.2,5.9,9.4,7.7
						c2.3,1.8,3.7,3.2,5,4.8c1.3,1.6,2.3,3.4,3.5,6.1c1.2,2.7,2.7,6.4,4.7,11.7c1.4-8,2-15.9,1.8-23.6c0.7,1.2,1.4,2.5,2.1,3.6
						l2,3.6c1.3,2.5,2.6,5,3.8,7.6s2.4,5.1,3.5,7.7c1.1,2.6,2.2,5.3,3.2,8c1.2-1.1,1.8-2.8,2.1-4.8s0.1-4.3,0-6.4
						c-0.1-1-0.1-2.1-0.1-3s0-1.8,0.1-2.6c0.2-1.5,0.7-2.4,2.1-2.5c4.8,8,6.1,11.3,8.3,13.5c2.2,2.3,5.1,3.6,13.1,8.2
						c-7.7-3.4-11.5-3.6-13.1-2c-1.6,1.7-1.4,5.2-0.9,9.1c0.5,3.9,0.7,8.1-0.4,10.9c-0.5,1.4-1.5,2.4-3.1,2.7
						c-1.5,0.4-3.6,0-6.5-1.2l-34.1-41.6c-6.1-2.8-8.7-2.3-10.1,0.2c-0.4,0.6-0.5,1.4-0.7,2.3c-0.2,0.8-0.4,1.7-0.5,2.8
						c-0.1,1-0.2,2.2-0.2,3.4c0,0.5-0.1,1.3,0,1.8c0,0.5,0.1,1.2,0.1,1.7c0.2,4.7,0.3,9.7-0.8,13c-0.5,1.7-1.3,2.8-2.3,3.4
						c-0.5,0.2-1,0.3-1.6,0.1c-0.5-0.3-1.2-0.6-1.8-1.3c0.8,1.4,1.6,2.7,2.6,4c0.9,1.4,2,2.6,3.1,3.8c1.6,5.1,1.9,8.1,1.5,9.7
						c-0.2,0.8-0.5,1.3-0.9,1.5c-0.2,0.1-0.5,0.3-0.7,0.3c-0.3,0-0.5,0-0.7-0.1c-0.5-0.1-1.1-0.2-1.5-0.4s-0.9-0.4-1.4-0.4
						c-0.1,0-0.2,0-0.3,0.1c-0.1,0-0.2,0-0.3,0.1c-0.2,0.1-0.3,0.2-0.5,0.5c-0.3,0.4-0.5,1.2-0.6,2.2c-0.4-2.8-0.6-5.7-2-17.3
						c0,0.5,0.1,1.1,0.1,1.7c0,0.5,0.1,1.1,0.1,1.5c0.1,1.1,0.1,2.2,0.1,3.2c0,0.1,0,0.3,0,0.8c0,0.5,0,1.1,0,1.8
						c0,0.4,0,0.8-0.1,1.3c0,0.3,0,0.5-0.1,0.7c0,0.1,0,0.3,0,0.4s0,0.2,0,0.3c0,0.7-0.1,1.5-0.3,2.5l-0.1,0.6l-0.1,0.4
						c0,0.3-0.1,0.5-0.2,0.8c-0.1,0.3-0.1,0.5-0.2,0.8c0,0.1-0.1,0.2-0.1,0.4c-0.1,0.2-0.1,0.5-0.2,0.5v0.1l-0.5,1.5l0,0l0,0l0,0
						l0,0v-0.1v-0.1c0-0.1,0.1-0.3,0.1-0.3c0.6-1.7,1.6-4.1,3.1-6.5c2-3.3,4.1-6,5.8-8c0.5-0.5,0.9-1,1.3-1.4
						c-0.2,0.2-0.5,0.5-0.6,0.6c-0.3,0.3-0.5,0.5-0.7,0.7c-0.5,0.5-1,1-1.5,1.5c-2.2,2-4.7,4.1-7.5,6c-5.4,3.9-11.5,7.2-16.2,8.6
						c-1.2,0.4-2.3,0.5-3.3,0.7c-0.5,0.1-1,0.1-1.5,0.1s-0.8-0.1-1.2-0.2c-1.5-0.4-2.3-1.4-2.3-2.9c4.7-1.5,8.8-3.3,12.6-5.2
						c3.7-1.9,7.1-3.7,10.4-5.4c3.3-1.7,6.5-3.3,9.5-4.8c1.5-0.8,3.1-1.6,4.6-2.5c0.2-0.1,0.3-0.2,0.5-0.3l-0.1,0.1
						c-0.1,0.1-0.2,0.1-0.3,0.2c-0.2,0.1-0.4,0.2-0.5,0.4c0.2-0.1,0.4-0.3,0.6-0.4c0.3-0.2,0.5-0.3,0.7-0.5c0.3-0.1,0.5-0.3,0.6-0.4
						c0.3-0.1,0.5-0.3,0.6-0.4c0.2-0.1,0.4-0.2,0.5-0.3c0.1,0,0.2-0.1,0.3-0.1l0.1-0.1c-0.2,0.1-0.3,0.2-0.5,0.2
						c-3.7,1.7-5.9,2.6-6.1,2.7c2.5-1.2,2.5-1.3,0.9-0.9c-1.5,0.4-4.3,1-6.9,1.2c-1.4,0.2-2.6,0.2-3.7,0.1c-1.1-0.1-2-0.3-2.4-0.5
						c-0.5-0.3-0.5-0.6,0.2-1.1c0.6-0.5,1.9-0.9,3.9-1.4c-3.9,0.2-10.7,0.6-16.2,0.5c-2.7-0.1-5.3-0.4-7-0.9
						c-1.7-0.5-2.6-1.4-2.3-2.4c1.8-0.3,4-0.3,5.8-0.3c1.7,0,3.1,0.1,3.1,0.1c-2.2,0-4.1-0.3-5.9-0.8c-1.8-0.5-3.7-1.3-5.9-2
						c-2.2-0.7-4.6-1.4-7.9-1.7c-3.2-0.3-7.2-0.3-12.2,0.9c14.2-3.6,21.4-6.2,25.1-9.1c0.9-0.7,1.7-1.5,2.3-2.3
						c0.6-0.7,1-1.6,1.4-2.5c0.6-1.7,1-3.6,1.3-5.4c0.2-0.9,0.4-1.8,0.6-2.7c0.1-0.5,0.3-0.9,0.4-1.3c0.2-0.4,0.4-0.8,0.5-1.2
						s0.4-0.7,0.6-1.1s0.5-0.6,0.8-0.9c0.6-0.5,1.3-1,2.2-1.2c3.4-0.9,9,1.2,17.2,10.1c-0.4-1.6-0.4-3.4-0.1-5.2
						c0.3-1.8,1-3.6,1.9-5.3c1.9-3.4,5.1-6,8.1-7.1c0.4,5.4,1.3,8.9,0,7.2c1.3,1.9,2,2.6,2.6,2.3c0.5-0.3,1-1.5,1.4-3.5
						c0.4-1.9,0.6-4.5,1-7.3c0.4-2.9,0.6-6.1,1.1-9.2c0.9-6.3,2.1-12.7,4.3-16c1.1-1.7,2.4-2.6,3.8-2.6c0.7,0,1.5,0.4,2.3,1
						c0.4,0.4,0.8,0.7,1.2,1.2c0.4,0.5,0.8,1.1,1.2,1.7c0.4,3.7,0.4,6.7,0.1,9.2c-0.2,2.5-0.5,4.3-1,5.7c-0.8,2.8-1.9,4.1-2.9,4.8
						c-1,0.6-2,0.8-2.6,1.5c-0.5,0.6-0.7,1.9-0.3,4.7c-0.7,7.4-1.2,12.8-1.5,16.7c-0.3,3.8-0.5,6.3-0.4,7.6c0.1,1.3,0.3,1.5,0.6,1.2
						c0.2-0.2,0.5-0.5,0.7-0.9c0.3-0.5,0.6-1,1-1.5c0.4-0.5,0.7-1.2,1.2-1.7c0.4-0.5,0.8-1.1,1.3-1.6c0.5-0.5,0.8-0.9,1.2-1.2
						c0.2-0.2,0.4-0.3,0.5-0.4c0.2-0.1,0.3-0.1,0.5-0.2c0.3,0,0.5,0.1,0.5,0.5c0.1,0.4,0,0.9-0.3,1.6c-0.3,0.7-0.6,1.8-1.3,3.1
						c-0.3,0.6-0.6,1.4-1.1,2.1c-0.5,0.8-0.9,1.6-1.5,2.6c-0.6,0.9-1.3,1.9-1.9,2.9c-0.2,0.3-0.3,0.5-0.5,0.7l0.1-0.2
						c0.1-0.1,0.2-0.3,0.3-0.4c0.1-0.2,0.3-0.5,0.5-0.6c0.2-0.2,0.3-0.5,0.5-0.7c0.2-0.2,0.3-0.5,0.5-0.6c0.2-0.2,0.3-0.4,0.5-0.6
						l0.3-0.3l0.1-0.2l0.1-0.1l0,0l0,0c0.4-0.4-2.8,3.4-1.5,1.7l0,0l0,0l0,0c0.5-0.6,1-1.2,1.6-1.8c0.6-0.7,1.3-1.4,2-2.1
						c2.9-3,6.8-6.6,11.2-9.7c1.1-0.8,2.1-1.5,3.3-2.3c0.5-0.4,1.1-0.7,1.6-1c0.5-0.3,1.1-0.6,1.6-1c0.5-0.3,1.1-0.6,1.6-0.9
						c0.5-0.3,1-0.5,1.5-0.8c1.1-0.5,2-0.9,3-1.4c0,0-0.8,0.3-0.1,0c1.3-0.5,2.6-1,3.8-1.3c0.3-0.1,0.5-0.2,0.8-0.2
						c0.3-0.1,0.5-0.1,0.8-0.2c0.2,0,0.5-0.1,0.6-0.1l0.4-0.1h0.2l0,0l-0.5,0.1h-0.1c-0.6,0.1-1.1,0.1-2,0.2H276h-0.3h-0.4
						c-0.5,0-1.1,0-1.5,0c-0.3,0-0.5,0-0.9,0h-0.2h0.2h0.4c0.5,0,1.1,0.1,1.5,0.2c0.5,0.1,1,0.3,1.5,0.4c0.5,0.2,0.9,0.4,1.4,0.5
						c3.5,1.7,5.7,4.9,7,8.7c1.3,3.7,1.7,7.9,1.7,12c-4.6-3.8-7.4-6.3-9.3-8c-2-1.8-3.2-2.9-4.5-3.8c-2.6-1.9-5.5-3-16.3-7.7
						c0.4,1.2,2.5,2.9,5.7,4.9c3.2,2,7.5,4.4,11.8,6.8c8.5,5,17.1,10.8,16.1,18.5c-3.3-0.8-6.6-1.4-10-2c-3.5-0.6-7-1.5-10.8-2.7
						c-3.7-1.3-7.7-3-11.9-5.4c-4.2-2.4-8.7-5.6-13.5-9.6c1.3-2.2,2.5-4.4,3.4-6.6c-3.6-1.9-6.4-3.4-8.4-4.3c-2-0.9-3.4-1.5-4.3-1.5
						c-1.6-0.2-1.5,1-0.7,2.9c0.7,1.9,2.1,4.5,2.6,6.5c0.6,2,0.5,3.5-1,3.1c-3.2-3.6-6.3-7-9.6-10.6c-0.6,2.2,0.3,5.6,1.5,9.6
						c0.4,1.1,0.7,2.1,1.1,3.2c0.4,1.1,0.7,2.3,1.1,3.3c0.4,1.2,0.7,2.3,1.2,3.5c0.4,1.2,0.7,2.3,1,3.5c0.4,1.2,0.6,2.4,0.9,3.5
						c0.3,1.2,0.5,2.3,0.6,3.4c0.2,1.1,0.3,2.2,0.3,3.3c0,1,0,2-0.1,2.9c-0.2,1.9-0.7,3.6-1.6,4.8c-0.9,1.3-2.2,2.2-3.8,2.5
						c1.7,3.2,3.6,6.3,5.6,9.4c0.7,4.6,0.9,7.7,0.8,9.8c-0.2,2.1-0.6,3.2-1.2,3.5c-0.6,0.3-1.4-0.1-2.2-0.9s-1.7-2.1-2.6-3.5
						c-0.8-1.4-1.6-2.8-2.5-4c-0.7-1.2-1.5-2.1-2-2.5c-0.5-0.4-1.1-0.1-1.5,1.1c-0.5,1.2-0.7,3.3-1.3,6.6c-1.1-5.9-2-11.8-2.8-17.8
						c-0.4-3-0.7-5.9-1-8.9l-0.4-4.5l-0.3-4.3c0,0.5,0.1,1.1,0.1,1.6c0,0.6,0.1,1.4,0,2.2c0,0.8,0,1.5-0.1,2.5c0,0.2,0,0.5,0,0.6
						v0.2v0.1l0,0l-0.2,4.1V254c0-0.1,0-0.2,0-0.3v-0.3c0,0,0-0.1,0,0v0.4c0,0.3-0.1,0.5-0.1,0.7c-0.1,0.5-0.2,1-0.3,1.5
						c-0.1,0.5-0.2,1-0.4,1.5c-0.3,1-0.5,2-0.9,3s-0.7,2-1.3,2.9c-1.9,3.9-4.6,7.3-7.5,9.7c-2.9,2.4-6,3.6-8.3,3.7
						c5.5-4,9.7-8.1,12.9-12.3c0.5-0.5,0.8-1.1,1.2-1.5l0.5-0.8l0.5-0.6c0.3-0.5,0.5-0.9,0.8-1.4c0.5-0.9,1-1.8,1.4-2.7
						c0.8-1.7,1.2-3.3,1.4-3.9c0.2-0.6,0.1-0.5,0,0.1c0-0.5,0.1-0.8,0-0.4s-0.4,1.7-1.1,3.3c-0.6,1.6-1.6,3.5-2.6,4.8
						c-0.4,0.6-0.9,1.4-1.3,1.8c-0.4,0.5-0.7,0.9-0.9,1.1c1.3-1.5,2.9-3.9,3.7-5.7c-0.7,1.4-1.6,2.9-2.7,4.5
						c-0.3,0.4-0.5,0.7-0.9,1.1c-0.3,0.4-0.5,0.6-0.9,1c-0.7,0.8-1.5,1.5-2.2,2.2c-0.7,0.6-1.5,1.2-2.2,1.7c-2.8,2-5.6,2.6-7.5,2.4
						c-1.9-0.3-3.2-1.6-3.3-3.5c4.3-0.5,8.2-1.1,11.6-1.6c1.1-0.2,2.7-0.4,4.8-0.7c0.6-0.1,1.4-0.2,2.2-0.3c0.5-0.1,1-0.1,1.6-0.2
						c0.5,0,1-0.1,1.6-0.2c0.4,0,0.7-0.1,1.2-0.1s0.9-0.1,1.5-0.1c1,0,2.3,0,3.5,0.1c1.4,0,2.8,0.2,4.4,0.4c0.8,0.1,1.6,0.2,2.5,0.4
						c0.8,0.2,1.6,0.3,2.6,0.5c0.8,0.2,1.7,0.4,2.6,0.5l0.6,0.2l0.5,0.1c0.1,0,0.2,0,0.3,0c0.6,0.1,1.2,0,2.1-0.1c0.5,0,1,0,1.6,0.1
						c0.4,0,0.7,0.1,1.1,0.2s0.9,0.1,1.4,0.2c2.4-0.4,5.5-0.2,9.4,1.1c3.9,1.2,8.7,3.5,14.5,6.9c-1.8-2.8-2.6-5.2-2.6-7.1
						c0-1.9,0.5-3.4,1.7-4.4c2.2-2,6.2-2.2,10.3-1.3c4.1,0.8,8.2,2.6,11.7,4.1c3.5,1.5,6.1,2.4,8.3,1.5c-1.9-5.8-3.6-10.2-4.7-13.5
						c-1.2-3.3-1.9-5.6-2.3-7c-0.7-3.1,0-3.4,0.8-3.6c0.9-0.3,1.8-0.5,2-3.7c0.1-3.2-0.4-9.3-3-21.2c1.3-0.7,2.4-1.2,3.4-1.5
						c1-0.2,1.8-0.2,2.5,0c1.4,0.4,2.1,1.4,2.6,3c3.2,5.2,6,10.3,8.2,15.6c2.2,5.3,3.9,10.7,4.9,16.1c0.2,3.6-0.1,5.8-0.4,7.4
						c-0.4,1.5-0.8,2.5-1.3,3.3c-1,1.5-2,3-2.1,8.1c1.1,1.4,1.5,3.4,1.5,5.7c0.1,2.4-0.2,5-0.5,7.8c-0.4,2.8-0.7,5.9-1.2,9
						c-0.5,3.1-0.9,6.2-1.4,8.8c0.7-3.6,1.3-6.8,1.7-9.3c0.5-2.5,0.9-4.3,1.3-5.4c0.6-2.2,0.8-1.3,0.1,1.8
						c1.4-5.9,2.8-12.8,3.6-20.5c0.5-0.8,0.7-1.4,1-1.6c0.2-0.3,0.4-0.3,0.5-0.1c0.2,0.4,0,1.5-0.2,2.8c-0.5,2.9-1.6,7.2-2.6,11.1
						c-1,3.9-1.9,7.6-2.5,9.4c-0.3,0.9-0.5,1.4-0.5,1.4c-0.1,0,0-0.5,0-1.4c-0.3,1.8-0.6,3.9-1.2,6.4c0.2-0.9,0.1-1-0.1-0.8
						c-0.2,0.2-0.5,0.5-0.9,0.7c-0.5,0.2-1.1,0.4-2.2,0.4c-1.1,0-2.8,0-5.2-0.3c0.1,0.6,0.5,1.4,1.1,1.8c0.6,0.5,1.5,0.7,2.3,0.5
						c-1.1,1.2-2.6,1.9-5.7,2.4c-2.9,0.5-7.3,0.7-12.2,0.1c-2.4-0.3-4.9-0.9-7.1-1.7c-2.3-0.8-4.2-1.9-5.6-3.1
						c-2.6-2.4-2.6-5.3,1.5-5.8c3,1.3,6,2.5,9,3.6c-1.5-1.1-5.7-3.3-8.6-5.4c-1.4-1-2.5-2-2.6-2.6c-0.1-0.6,0.7-0.9,2.9-0.4
						c3.7,2,8.9,5,9.5,4.6c-1.5-1.1-5.4-4.2-8-7.4c-2.6-3.2-3.9-6.5-1-5.8c3,3.2,6,6.3,9.2,9c3.3,0.2,3.6-0.9,2.6-3.8
						c-1-2.9-3.4-7.7-5.6-13.5s-4.3-12.7-5-19.1c-0.7-6.5-0.2-12.6,2.3-16.2c3.5,8.4,7,14.9,10.1,20.4c1.5,2.7,3,5.2,4.3,7.5
						c1.1,1.8,2.3,3.9,3.6,6c4.3,7.3,6.6,11.4,7.8,14.3l0.5,5.1c1.1,1.1,1.7-0.3,3-2.8c1.2-2.6,3.1-6.3,5.5-9.6
						c2.4-3.4,5.1-6.1,6.9-7.4c1.8-1.3,2.8-1.3,2.5,0.2c-3.5,7.9-5.9,13.1-7.8,16.9c-1.9,3.7-3.5,6.3-5.1,8.4
						c-1.5,2.2-3.4,3.9-5.1,5.5c-1.7,1.5-3.3,2.6-3.2,3c-0.5-0.2-2-0.5-4-0.5s-4.8,0.1-6.6,0.3c-0.2,0.2-1.3,0.3-2.7,0.4
						s-3.4,0.1-4.9,0c-1.5,0-2.7-0.1-2.6-0.1s1.9,0,5.8,0.1l0.6,0.1c6,0.1,8.1,0,8.3-0.2c0.1-0.1-0.4-0.3-0.9-0.5
						c-0.5-0.2-1.3-0.5-1.5-0.8c-9.9-1.5-20-3-30.3-4.6c3.9-0.4,6.7-0.8,8.7-1.5c1.9-0.6,2.8-1.5,3-2.6c0.2-1.2-0.5-2.7-1.4-4.6
						s-2.3-4.2-3.5-6.6c-1.2-2.5-2.2-5.1-2.6-7.5c-0.5-2.4-0.4-4.4,0.6-5.5c2-2.2,7.6-0.5,18,10.3c-3.2-5.2-4.1-8.5-4.8-11.8
						c-0.6-3.4-1.2-6.7-2.9-12.8l12.8,22.2c1.8,0.7,3.3,1.5,4.6,2.2c0.3,0.2,0.6,0.3,0.7,0.5l0.1,0.2c-4.8-11.5-9.7-23-14.4-34.3
						l-0.3-0.7c-0.2-0.5-0.4-1-0.5-1.5c-0.2-0.5-0.4-1.1-0.5-1.6c-0.6-2.2-1.2-4.6-1.4-6.7c-0.3-2.2-0.1-4.4,0-5l-0.1,0.4
						c0,0.2,0,0.4,0,0.5c0-0.2,0-0.3,0-0.5c0-0.1,0-0.3,0.1-0.4c0-0.1,0-0.2,0-0.3c0.1-0.7,0.3-1.4,0.4-2c0.1-0.4,0.2-0.8,0.3-1.2
						c0.7-3.3,1.7-6.6,2.8-9.7c1.2-3.1,2.5-6.1,4.1-9c0.2-0.4,0.5-0.7,0.6-1.1s0.4-0.7,0.6-1c0.2-0.4,0.5-0.7,0.6-1.1s0.5-0.6,0.6-1
						c0.5-0.7,0.9-1.3,1.5-1.9c0.2-0.3,0.5-0.5,0.7-0.8c0.2-0.3,0.5-0.5,0.7-0.8c0.7-0.8,1.4-1.5,1.8-1.8c0.1-0.1,0.3-0.3,0.5-0.4
						l-0.3,0.2l-0.1,0.1l0,0l-0.2,0.1c-0.3,0.2-0.5,0.3-0.7,0.4c-0.4,0.2-0.8,0.4-1.2,0.5c-1.9,0.8-4.8,1.6-8.5,2
						c-3.6,0.4-7.8,0.5-11.7,0.1s-7.5-1.1-9.7-1.7c-2.3-0.6-3.4-1.1-2.7-0.8l-13.2-5.8l-0.9,1c-0.3-0.1-0.5-0.3-0.6-0.4
						c-0.5-0.3-0.9-0.5-1.4-0.7c-1.7-1-3-2.1-3.6-2.6c0.1,0,0,0.1,0.6,0.5c-0.5-0.4-0.9-0.8-0.9-0.9c-0.1-0.1,0.3,0.3,0.7,1.1
						c0.5,0.7,1,1.9,1.4,2.7c0.1,0.2,0.2,0.4,0.2,0.5c0.1,0.2,0.1,0.3,0.1,0.4c0.1,0.2,0.1,0.2,0,0c0,0,0.1,0.2,0.2,0.4
						c0.1,0.3,0.2,0.5,0.4,1c0.1,0.2,0.2,0.5,0.2,0.7c0,0.1,0.1,0.3,0.1,0.5c1,3.9,2.1,7.8,3.1,11.8l0,0l0,0l0,0v-0.1v-0.2l-0.1-0.4
						c-0.1-0.5-0.2-0.8-0.3-1.3c-0.1-0.3-0.1-0.5-0.2-0.8c-0.1-0.8,0.1-0.3,0,1.9c0,0.5,0,1.2-0.1,1.8c0,0.4-0.1,0.6-0.1,1
						c0,0.4-0.1,0.7-0.1,1.1c-0.3,1.5-0.5,2.9-0.8,4.4c0.2-0.5,0.3-1.2,0.4-1.7c-0.5,2.3-1,4.2-1.5,5.7c-0.2,0.7-0.5,1.5-0.8,2.2
						c-0.2,0.4-0.3,0.7-0.5,1.1c-0.1,0.4-0.3,0.6-0.4,1c-0.2,0.4-0.3,0.6-0.5,1c-0.1,0.2-0.2,0.4-0.3,0.5c-0.1,0.2-0.2,0.4-0.3,0.5
						c-0.3,0.6-0.7,1.4-1.3,2.2c-0.2,0.3-0.2,0.4-0.4,0.5c-0.1,0.2-0.2,0.4-0.4,0.5c-0.3,0.4-0.5,0.7-0.9,1.2
						c-0.2,0.3-0.5,0.5-0.7,0.9c-0.2,0.2-0.3,0.4-0.5,0.5c-0.1,0.1-0.2,0.2-0.3,0.3c-0.4,0.4-0.6,0.6-0.5,0.5c0,0,0.2-0.1,0.3-0.3
						c0.1-0.1,0.2-0.2,0.3-0.3c0-0.1,0.1-0.1,0.2-0.2c0.1-0.1,0.1-0.1,0.2-0.2l-0.1,0.1v0.1l-0.1,0.1c-0.1,0.1-0.2,0.2-0.2,0.2
						c-0.2,0.2-0.3,0.3-0.5,0.4c-0.1,0.1-0.1,0.1-0.2,0.2c-0.1,0.1-0.3,0.2-0.4,0.3c0.1-0.1,0.3-0.2,0.4-0.3
						c0.3-0.2,0.5-0.3,0.7-0.5s0.5-0.3,0.9-0.5c0.2-0.1,0.4-0.2,0.5-0.3s0.5-0.2,0.7-0.4c1-0.5,2.6-1,4.6-1.5
						c-0.5,0.1-1,0.3-1.5,0.5c-0.5,0.1-1.1,0.4-1.5,0.5c1.8-0.6,3.1-0.9,4.1-1.1c1-0.2,1.5-0.3,2.1-0.3c0.5,0,0.8-0.1,1.2-0.1
						c0.1,0,0.2,0,0.3,0h0.1l0,0h-0.3c-0.3,0-0.5,0-0.7,0c-2.1,0-4.2-0.1-6.6-0.4c-2.6-0.5-3.4-1.2-2.7-1.7c0.6-0.5,2.5-0.5,5.4,0.1
						c1.4,0.4,3.1,0.9,4.7,1.6c0.9,0.4,1.8,0.8,2.7,1.3c0.2,0.1,0.4,0.2,0.5,0.3c0.5,0.2,0.7,0.4,1,0.5c0.3,0.2,0.5,0.3,0.5,0.4
						c0.2,0.1,0.5,0.4,0.9,0.6c0.1,0.1,0.3,0.2,0.4,0.3l0.1,0.1h0.1c0,0,0.1,0.1-0.1,0c-0.4-0.3-0.6-0.5-1-0.7
						c-0.6-0.5-1.4-1-1.9-1.5c-0.6-0.5-1.2-0.9-1.6-1.5c-1-0.9-2-1.8-2.6-2.6c-0.6-0.8-1.1-1.5-1.4-2c-0.2-0.5-0.2-0.9,0-1
						c0.3-0.1,0.8,0,1.5,0.4c3,3.1,5.3,5.8,7.1,7.8c1.8,2.1,3.2,3.6,4.1,4.5c0.6,0.5,1,1,1.5,1.5c0.2,0.3,0.5,0.5,0.6,0.6
						c0.2,0.2,0.4,0.4,0.5,0.5l0.1,0.1c0,0,0,0,0-0.1c-0.1-0.1-0.2-0.4-0.4-0.7c-0.7-1.5-2-4.6-2.6-7.9c-0.6-3.2-0.7-6.4,0.1-7.2
						c0.7-0.8,2.3,0.7,3.3,6.8c0.1,1.3,0.3,3.1,0.5,5.6c0,0.4,0.1,0.7,0.1,1.2v0.2v0.1l0,0l0,0l0,0c0,0,0-0.1,0-0.2
						c0-0.2,0-0.5-0.1-0.7c0.1,2,0.5,3.6,0.7,4.7c0.3,1.1,0.5,1.5,0.5,1.7c0.1,0.2-0.1-0.2-0.5-1.1c0,0,0.2,0.3,0.5,0.8
						c0,0,0.1,0.1,0.1,0.2s0.1,0.1,0.1,0.2c0,0,0,0-0.1-0.1c0.1,0.2,0,0.2-0.2-0.5c-0.2-0.5-0.5-1.7-0.7-3.3
						c-0.3-1.5-0.4-3.6-0.3-5.4c0-0.5,0.1-0.9,0.1-1.4c0-0.4,0.1-0.9,0.1-1.3c0-0.2,0.1-0.4,0.1-0.5l0.1-0.3v-0.2v-0.1l0,0l0,0l0,0
						c-1.9,10.9-0.5,3-1,5.5l0,0c0-0.3,0.1-0.5,0.1-0.7c0.1-0.3,0.1-0.5,0.2-0.8c0.1-0.5,0.2-1,0.4-1.4c-0.1,0.4-0.2,0.7-0.3,1
						c0.5-2.3,1.4-5.2,2.5-8c0.5-1.2,0.9-2.2,1.4-3.3c0.5-1,0.9-1.9,1.4-2.8c0.5-0.9,0.9-1.7,1.5-2.6c0.3-0.5,0.5-0.8,0.8-1.3
						c0.3-0.5,0.5-0.9,0.9-1.4c0.1-0.2,0.4-0.5,0.7-1c0.1-0.1,0.2-0.3,0.3-0.4c0.1-0.1,0.2-0.3,0.3-0.4c0.2-0.3,0.5-0.5,0.6-0.8
						c0.3-0.3,0.5-0.5,0.7-0.9c0.3-0.3,0.5-0.6,0.8-0.9c0.3-0.3,0.5-0.5,0.8-0.8l0.2-0.2l0.2-0.2l0.4-0.3c0.2-0.2,0.5-0.4,0.6-0.5
						l0.3-0.2l0.2-0.1c1-0.7-1.4,1-1.1,0.8l0,0l0,0l0,0l0,0l0,0l0,0l0.1-0.1l0.1-0.1h0.1c0,0,0.1,0,0,0c-0.3,0.2-0.5,0.3-0.6,0.3
						c0,0-0.2,0.1-0.3,0.1c-0.1,0.1-0.3,0.1-0.4,0.2c-0.3,0.1-0.5,0.2-0.6,0.2c0.1,0-0.2,0.1-0.5,0.1c-0.3,0.1-0.5,0.2-0.7,0.3
						c-0.3,0.1-0.5,0.2-0.7,0.2c-0.5,0.1-0.6,0.2-0.4,0.1c0.1,0,0.4-0.1,0.8-0.2c0.2-0.1,0.5-0.1,0.8-0.3c0.1,0,0.2-0.1,0.3-0.1
						c0.1,0,0.1,0,0.2,0c0.1,0,0.2-0.1,0.4-0.1c-0.3,0.1-0.1,0,0.4-0.1c0.1-0.1,0.3-0.1,0.5-0.2c0.2-0.1,0.4-0.1,0.5-0.2
						c0.1,0,0.4-0.1,0.5-0.3c0.2-0.1,0,0,0,0l-0.1,0.1l0,0c-0.1,0-0.1,0.1-0.1,0.1l0,0l0,0l0,0c2.3-1.5,0.6-0.5,1.1-0.8l0,0l0,0l0,0
						l-0.1,0.1l-0.2,0.1c-0.1,0.1-0.2,0.2-0.3,0.3l-0.2,0.1l-0.2,0.2c-0.2,0.1-0.3,0.3-0.5,0.4c-0.2,0.2-0.6,0.6-1,0.9
						c-1.5,1.5-3.5,3.8-5.4,7.1c1.6-2.6,3.4-4.9,5-6.6c0.4-0.4,0.7-0.7,1.2-1.2c0.2-0.2,0.3-0.3,0.5-0.5c0.2-0.1,0.4-0.3,0.5-0.4
						c0.1-0.1,0.3-0.2,0.4-0.3l0.1-0.1h0.1l0,0c-2.3,1.5-0.6,0.5-1.1,0.8l0,0l0,0l0,0l0,0l0,0c0,0,0.1-0.1,0.3-0.2l0,0h-0.1
						l-0.2,0.1c-0.1,0.1-0.2,0.1-0.3,0.1c-0.1,0-0.2,0.1-0.2,0.1c-0.2,0.1-0.5,0.2-0.6,0.3s-0.5,0.2-0.6,0.2
						c-0.3,0.1,0.4-0.1,0.7-0.3c0.4-0.1,0.8-0.3,1.2-0.4c0.7-0.3,1.5-0.5,2.3-0.6c2.8-0.7,5.4-1.2,7.3-1.5c-2.1,0.7-4.2,1.4-6.2,1.8
						c-2.1,0.5-4.1,1-6,1.4c-2,0.4-3.8,0.5-5.7,0.7c-0.5,0.1-0.9,0.1-1.5,0.2c-0.5,0-0.9,0.1-1.4,0.1c-0.5,0-1,0.1-1.5,0.1
						c-0.5,0-0.9,0-1.5,0c-0.5,0-1.2,0-1.7,0c-1.2,0-2.3-0.1-3.4-0.2c-0.3,0-0.5-0.1-0.9-0.1l-0.9-0.1c-0.6,0-1.3-0.1-1.8-0.2
						c-0.6-0.1-1.2-0.2-1.8-0.3l-0.9-0.2l-1-0.1c-1.3-0.2-2.6-0.4-3.7-0.6c-0.5-0.1-1.2-0.3-1.7-0.4c-0.5-0.1-1.2-0.3-1.7-0.4
						c-1.2-0.3-2.2-0.5-3.3-0.7c-1-0.3-1.9-0.5-2.8-0.8c-1.8-0.5-3.3-0.9-4.5-1.4c-0.5-0.2-1.1-0.4-1.5-0.5s-0.7-0.3-1-0.3
						c-1-0.4-1.9-0.6-2.8-1c-0.5-0.2-0.9-0.4-1.4-0.5s-0.8-0.4-1.3-0.5c-0.8-0.4-1.6-0.6-2.5-1.1l-0.6-0.3c-0.2-0.1-0.4-0.2-0.5-0.3
						l-1-0.5c-0.6-0.3-1.3-0.6-1.9-0.9l-0.5-0.3l0.2,0.1l0.4,0.2c0.3,0.2,0.5,0.3,0.8,0.5c0.3,0.2,0.5,0.4,0.7,0.5l0.4,0.3l0.2,0.2
						c0.1,0,0.1,0.1,0.2,0.2l0.4,1.1l0.5,1c0.2,0.3,0.4,0.5,0.5,0.9c0.4,0.5,0.8,1.1,1.3,1.5c0.3,0.3,0.5,0.5,0.8,0.7
						c0.7,0.6,1.5,1.3,2.3,1.9c0.7,0.5,1.5,1.2,2.1,1.7c5.6,4.7,9.7,8.9,13,12.5c3.2,3.6,5.4,6.4,6.9,8.7c0.4,0.5,0.7,1.2,1.1,1.6
						c0.3,0.5,0.5,0.9,0.8,1.4c0.2,0.4,0.5,0.7,0.6,1.1c0.1,0.2,0.2,0.4,0.3,0.5c1.2,2.4,2.4,4.7,3.5,7l-0.1-0.2
						c-0.2-0.5-0.4-0.8-0.5-1s-0.1-0.3-0.2-0.5v-0.1v0.1c0,0.1,0,0.1,0,0.2c0.1,0.2,0.1,0.4,0.1,0.6c0.1,0.5,0.1,0.7,0.2,1.4
						c-0.1-0.9-0.2-1.6-0.3-1.9c0-0.1,0-0.2-0.1-0.3c0-0.1,0,0.1,0,0.1v-0.1c0,0,0,0,0,0.1s0.1,0.3,0.1,0.5c0,0.1,0,0.3,0.1,0.4
						c0,0.2,0.1,0.4,0.1,0.5c0,0.4,0.1,0.9,0.1,1.5c0.1,1.1,0,2.6-0.2,4c-0.3,1.5-0.5,2.8-0.9,4.1c-0.1,0.3-0.2,0.5-0.3,0.8
						s-0.3,0.5-0.3,0.7c-0.1,0.2-0.2,0.4-0.3,0.6l-0.2,0.3l-0.1,0.2c-0.1,0.1-0.2,0.3-0.3,0.4l-0.1,0.1l0,0l-0.1,0.1
						c0,0.1-0.1,0.1-0.2,0.2v0.1l0,0l0,0c-0.9,1.2,1.3-1.5,1-1.3l0,0l0,0l0,0l-0.1,0.1c-0.1,0.1-0.2,0.3-0.3,0.4l-0.1,0.1l0,0l0,0
						l0,0c0.1,0,0.1-0.1,0.1-0.1c0.1-0.1,0.2-0.1,0.3-0.2c0.1-0.1,0.2-0.2,0.3-0.2c0.3-0.2,0.5-0.3,0.6-0.4c0.5-0.3,0.6-0.4,0.7-0.4
						c0.1-0.1-0.4,0.2-0.7,0.4c-0.3,0.2-0.5,0.3-0.1,0.1c0.1-0.1,0.3-0.2,0.5-0.3c0.3-0.2,0.5-0.3,1-0.5c0.3-0.1,0.5-0.2,0.7-0.4
						c0.4-0.2,0.7-0.3,1.1-0.5c0.8-0.3,1.9-0.6,3.3-1c-0.5,0.1-1,0.3-1.5,0.4c-0.5,0.1-0.8,0.3-1.3,0.5c2.3-0.8,5.1-1.5,8.2-1.8
						c3-0.4,6.2-0.5,9.1-0.4c5.8,0.3,10.4,1.4,11.8,1.8c1.5,0.5,0.1,0.2-3.7-2c4,2.4,8.1,4.6,12.1,6.9l0.2,0.1c0,0,0.1,0,0,0
						l-0.1-0.1l-0.2-0.1c-0.3-0.2-0.5-0.3-0.7-0.5c-0.9-0.6-1.9-1.4-2.8-2.1c-1.8-1.5-3.6-3.4-5.1-5.3c-3.1-3.9-5.4-8.4-6.4-12.6
						c-1-4.1-0.8-7.9,0.5-10.1c1.4-2.2,3.9-2.7,6.3-0.4c1.2,1.2,2.3,3.1,2.9,5.8c0.2,0.6,0.3,1.4,0.4,2.2c0.1,0.4,0.1,0.8,0.1,1.2
						v0.6v0.4c0,0.1,0,0,0,0v-0.1c0-0.4,0-0.7,0-1c0-0.3,0-0.5,0-0.8c0,0.4,0,0.6,0,0.8c0,0.3,0,0.5,0,0.7c0,0.1,0,0.1,0,0.2l0,0
						c0,0,0,0.1,0,0s0-0.3,0-0.4c0-0.5,0-1-0.1-1.5c-0.1-1.5-0.2-2.7-0.2-3.6c0.3,0.9,0.4,1.8,0.4,2.6c0,0.2,0,0.4,0,0.5v0.2v-0.1
						v-0.2l0.1-0.6l0.1-0.4c0-0.2,0-0.1,0-0.1l1.4-4.6c0.1-0.5,0.3-0.8,0.5-1.4s0.4-1,0.5-1.5s0.4-1.1,0.6-1.6
						c0.9-2.3,2-4.6,3.3-6.7c1.3-2.1,2.6-4,3.9-5.5c1.3-1.5,2.5-2.5,3.2-3l0.3-0.2l0.2-0.2l0.2-0.1l-0.4,0.2c-0.1,0-0.1,0-0.1,0.1
						c-0.1,0.1-0.3,0.2-0.5,0.2l-0.2,0.1l-0.4,0.2c-0.3,0.1-0.5,0.1-0.8,0.2c-0.8,0.2-1.4,0.3-2.5,0.5c-0.3,0-0.5,0.1-0.7,0.1h-0.4
						l-0.5,0.1c-0.5,0.1-1.2,0.1-1.7,0.1c-0.3,0-0.6,0-0.9,0c-0.4,0-0.6,0-1,0l-2-0.1c-0.7,0-1.5-0.1-2.2-0.2s-1.6-0.2-2.4-0.3
						l-2.5-0.4c-0.8-0.2-1.6-0.3-2.5-0.5c-3.5-0.6-7-1.7-10.5-2.8l-1.3-0.5l0.1,0.1c0.1,0,0.1,0.1,0.2,0.1c0.1,0.2,0.2,0.3,0.3,0.5
						c0,0.1,0.1,0.2,0.1,0.4v0.5c0,0.4,0,0.8-0.1,1.2c-0.1,1.5-0.4,3.2-0.7,4.8c-0.7,3.3-2.2,6.6-4.2,9.1c-0.3,0.4-0.5,0.6-0.8,0.9
						l-0.3,0.3l-0.2,0.3l-0.5,0.4l-0.4,0.3c-0.1,0-0.3,0.1-0.4,0.1s-0.2,0-0.2,0l0,0l0,0l0.1,0.2l0.2,0.5c0.3,0.6,0.5,1.3,0.8,1.9
						c0.5,1.3,1,2.6,1.5,3.8c1.9,5.2,2.8,10.2,2.8,13.4c0,0.2,0,0.5,0,0.6c0,0.2,0,0.4,0,0.5c0,0.3,0,0.6-0.1,1s-0.1,0.5-0.1,0.7
						s-0.1,0.5-0.1,0.6c0,0.2,0,0.2,0,0.2v0.2c0,0.1-0.1,0.2-0.1,0.4v-0.1l0,0l0,0l0,0c0.4-0.8-0.5,1.1-0.4,0.9l0,0l0,0
						c0.1-0.3,0.5-0.9,1-1.6c0.6-0.8,1.5-1.7,2.5-2.6c2-1.8,4.6-3.2,6.1-3.6c0.8-0.3,1.2-0.4,1.1-0.4c0,0-0.2,0-0.4,0.1h-0.1l0,0
						l0,0l0,0c-1.3,0.2,11.3-1.6,5.9-0.8l0,0h0.1c0.2,0,0.4-0.1,0.5-0.1c0.4-0.1,0.6-0.1,1-0.1c2.9-0.3,6.4-0.5,10.1-0.3
						c0.5,0,1,0,1.5,0.1c0.5,0,1,0.1,1.5,0.1c0.5,0,1.1,0.1,1.6,0.1l0.8,0.1h-0.5c-0.9-0.1-1.9-0.2-2.9-0.4c-1-0.2-2-0.3-3-0.5
						c-4.1-0.8-8.3-2.3-12.1-4.5c4.6,0.5,9.1,1.2,13.7,1.9c4.6,0.7,9.1,1.5,13.6,2.2L304,235l-1.8-1c-1.2-0.6-2.4-1.5-3.6-2.2
						c-2.4-1.5-4.6-3.3-6.8-5c-4.6-3.5-9-6.9-13.4-10.6c-1-1.5-1.6-2.8-1.8-4.1s0-2.4,0.5-3.4c1-1.9,3.2-3.3,6.2-4.1
						c3-0.8,6.7-1.2,10.7-1.1c4,0,8.3,0.5,12.5,1c4.1,0.5,8.1,1.2,11.6,1.7s6.4,0.8,8.6,0.6c2.2-0.2,3.5-0.9,4-2.5
						c0.5-1.5,0.1-4-1.2-7.4c-4.6-3.8-9.4-7.7-14.3-11.4c2.5,0.4,4.8,0.2,7.1,0.4c2.3,0.2,4.6,0.7,6.2,2.4c0.8,0.8,1.4,1.9,1.7,3.1
						c0.4,1.2,0.5,2.5,0.9,3.6c0.6,2.4,2,4.7,4.7,7.2c-0.9-0.5-3.6-2.4-5.4-3.1c-1.8-0.7-3-0.2-0.9,3.5l7.4,6.8
						c-5.9,1.4-12.8,4-21.2,7.4c-0.5,4.2,1.5,6.9,4.6,9c3.2,2.1,7.7,3.7,11.8,5.5s8,3.6,10.6,5.5c1.3,1,2.2,2,2.6,3
						c0.5,1,0.4,2-0.5,2.8c-1.8,0.3-5.6,0.4-10.4-0.5c-4.8-0.9-10.5-3.1-15.5-5.7c-2.6-1.3-4.8-2.6-6.9-4c-2.1-1.3-3.8-2.5-5.5-3.4
						c-3.2-1.7-6.2-3.1-8.7-3.1c-0.8,0.4-1.9,1.1-3,1.7c-1.1,0.7-2.3,1.4-3.6,1.8c-2.6,0.9-6.2,1.1-11.8,0c-2-1.4-3.7-2.9-5.1-4.6
						c-1.4-1.7-2.3-3.7-2.4-5.3c-2.1-0.7-4.1-1.5-6.2-2.2c-2.3-0.8-4.8-1.7-7.4-2.6c-4.9-1.8-10.1-3.7-14.6-5.3
						c-2.4-0.9-4.9-1.7-7.4-2.6c-2.5-0.8-4.9-1.6-7.4-2.5c-4.9-1.5-9.8-3-14.7-4.3c-1-0.3-2.2-0.5-3.6-0.9c-1.2-0.3-2.4-0.5-3.6-0.8
						c-2.5-0.5-5-0.8-7.6-1.1c-2.6-0.3-5-0.3-7.6-0.3c-2.5,0.1-5,0.5-7.4,0.9c-4.8,1-9.5,2.8-13.7,4.9c-2.1,1.1-4.1,2.1-5.9,3.1
						c-1.8,0.9-3.6,1.7-5.2,1.8c2.6,0.8,5.3,0.7,8.2,0.4c2.8-0.4,5.8-1.3,8.8-2.5c6.1-2.3,12.6-5.5,19.3-8.5c-3.2-2.6-6.3-5.2-9.3-8
						c-1.5-1.4-3.1-2.8-4.6-4.3c-1.5-1.5-3-2.9-4.5-4.5c-2.3,4.5-4.3,8.8-6.1,12.9l-2.5,5.7c-0.7,1.8-1.5,3.5-2.1,4.8
						c-4.3-3.6-6.2-7.3-6.3-10.5c0-3.3,1.8-6.1,4.7-8.4c3-2.4,7-4.2,11.5-5.8c4.4-1.5,9.4-2.9,13.8-4.2c-5.2-3.6-9.2-7.4-11.9-11.5
						c-1.4-2-2.3-4.1-3-6.2c-0.4-1.1-0.5-2.2-0.7-3.2c-0.2-1.1-0.2-2.2-0.2-3.3c2.7-0.5,5.3-1.1,8-1.5c2.7-0.5,5.4-0.8,8-1.2l2-0.3
						l0.5-0.1h0.3h0.1l-0.1-0.1l-0.5-1c-0.7-1.4-1.4-2.6-2-3.9c-0.6-1.3-1.2-2.6-1.7-3.7l-0.8-1.7c-0.4-0.4,0.3-0.3,0.5-0.4l1.1-0.1
						c11.2-0.9,22.1-0.9,32.5-0.2c-3.8-4-8.5-6.8-13.3-9.1c-4.8-2.3-9.8-4.1-14.3-6.1c-4.5-2.1-8.3-4.5-10.6-8.1
						c-1.1-1.8-1.9-4-2.1-6.6c-0.1-1.3,0-2.6,0.2-4.2c0.1-0.7,0.3-1.5,0.5-2.4c0.2-0.8,0.4-1.6,0.7-2.6c8,0.2,13.4,3.2,17.8,7.1
						c4.4,3.9,7.7,8.8,11.3,13.2c3.5,4.4,7.1,8.3,11.6,10.5c4.5,2.2,9.7,2.7,16.3,0.8c-1.3-3.4-2.6-6.5-3.7-9.3
						c-1.3-2.9-2.6-5.5-3.6-7.8c-1.2-2.4-2.2-4.6-3.1-6.5s-1.5-3.6-2-5c-0.9-2.8-0.5-4.9,1.5-5.9c1-0.5,2.5-0.8,4.4-0.8
						c1.9,0,4.3,0.3,6.8,1c-3.9-5.4-7.5-9.1-11.2-11.7c-3.7-2.5-7.7-3.6-12.5-3.5c5.7,0.4,10.7-0.6,12.8-0.8c1.1-0.1,1.4,0,1.4,0.4
						c-0.1,0.4-0.5,0.9-1.1,1.6c-0.5,0.7-1.2,1.7-1.7,2.8c-0.3,0.5-0.5,1.2-0.7,1.8c-0.2,0.6-0.3,1.3-0.4,2.1
						c-0.3,3,0.5,6.7,3.6,11.5c-6.9-3.4-12.3-3.4-16.9-1.8c-4.6,1.6-8.5,4.8-12.2,7.7c-1.9,1.4-3.7,2.8-5.7,3.7
						c-1.9,1.1-4.1,1.7-6.5,1.9s-5-0.2-8.1-1.4c-3.1-1.2-6.6-3.1-10.7-6.2c2.5,4.6,4.8,13.9,6.6,23.4c0.8,4.7,1.5,9.5,1.7,13.8
						c0.3,4.3,0,8.1-1,11c-4.1-5.1-7.4-8.5-10.4-10.3c-2.9-1.8-5.5-2.2-7.8-1.5c-4.6,1.5-8.2,7.6-11.7,14.3
						c-0.8,1.6-1.7,3.4-2.6,5.1c-0.9,1.7-1.8,3.4-2.7,5c-2,3.5-4.2,6.5-6.8,8.7c-1.3,1.1-2.8,2-4.4,2.6c-1.6,0.6-3.4,1-5.4,1.1
						c-4,0.2-8.8-0.7-14.8-3.3c4.6,3.6,8.1,7.2,10.7,10.9c2.6,3.8,4.4,8,5.5,12.8c1.1,4.8,1.5,10.3,1.8,16.7
						c0.3,6.4,0.4,13.7,0.9,22c0.2,2.1,0.3,4.2,0.5,6.4c0.1,1.1,0.3,2.2,0.4,3.3c0.1,1.1,0.3,2.3,0.5,3.5c0.2,1.2,0.4,2.3,0.5,3.5
						c0.2,1.2,0.4,2.4,0.6,3.6l0.4,1.8l0.4,1.9c0.3,1.4,0.5,2.6,0.9,4c2.5,10.7,6.2,20.9,11.5,30.7c5.3,9.7,12.2,19.2,21,27.4
						c8.7,8.2,19.3,15.2,30.9,19.5c-3.1-0.1-8-0.4-12.5-1.7c-4.6-1.4-8.8-3.7-11-7.5c8.5,10,17.2,18.3,25.7,25.3
						c2.1,1.7,4.3,3.4,6.3,5c2.1,1.5,4.2,3.2,6.1,4.6c3.9,2.8,7.8,5.5,11.7,7.8c3.8,2.4,7.7,4.6,11.5,6.7c3.7,2,7.7,3.9,11.8,5.6
						l1.5,0.6c0.5,0.2,1,0.4,1.5,0.6c1,0.4,2,0.7,3,1.2c2.1,0.7,4.2,1.5,6.4,2.1c1.1,0.4,2.3,0.6,3.4,0.9c1.1,0.3,2.2,0.5,3.3,0.8
						c2.3,0.5,4.6,0.9,7,1.4c0.4-2.3,1-4.4,1.9-6.5c0.8-2.1,1.9-4.1,3.2-6.1c1.3-2,2.7-3.9,4.3-5.8c0.8-0.9,1.6-1.9,2.5-2.8
						c0.8-0.9,1.5-1.9,2.5-2.8c1.6-1.8,3.4-3.7,5.2-5.6c0.9-0.9,1.7-1.8,2.6-2.7c0.8-0.9,1.7-1.8,2.6-2.7s1.7-1.8,2.6-2.7
						s1.6-1.8,2.5-2.7c0.8-0.9,1.6-1.8,2.5-2.7c0.8-0.9,1.6-1.8,2.4-2.7c6.2-7.3,11.1-14.7,14.6-21.9c3.5-7.2,5.4-14.4,5.4-21.5
						c1.3,0.4,2.6,0.6,3.7,1c1.1,0.4,2.2,0.8,3.2,1.3c2,0.8,3.8,1.7,5.5,2.6c3.3,1.9,5.8,3.9,7.8,6.2c3.9,4.6,5.6,10.2,6.3,16.2
						c0,0.4,0.1,0.7,0.1,1.2c0,0.4,0,0.8,0,1.3c0,0.8,0,1.6,0,2.6c0,1.7-0.1,3.5-0.1,5.1c-0.1,3.5-0.2,6.9,0.2,10.3
						c0.7,6.7,2.7,13.4,10.3,18.2c-4.6-5.6-4.2-12.5-2.3-19.6c0.5-1.8,1.1-3.6,1.7-5.4c0.1-0.2,0.2-0.5,0.3-0.6l0.2-0.6
						c0.1-0.4,0.2-0.8,0.4-1.2c0.2-0.8,0.5-1.6,0.7-2.5c1-3.1,2-6.5,3-9.7c1.9-6.3,3.3-12.4,2.6-17.3c-0.6-5-3.4-8.8-9.2-11.2
						c7.2,0,12-0.7,15.6-1.4c3.6-0.6,6-1.3,8.4-1.5c2.5-0.3,4.8-0.1,8.7,0.5c3.8,0.6,8.8,1.8,16.8,3.3
						c-17.6-13.9-16.7-18.8-13.2-24.4c1.7-2.8,4-5.8,4.8-9.9c0.1-0.5,0.2-1,0.2-1.5c0-0.3,0-0.5,0-0.8v-0.5v-0.5
						c0-1.4-0.1-2.7-0.4-4.2c-0.3-1.5-0.7-3.1-1.5-4.7c-0.4-0.8-0.7-1.6-1.2-2.6c-0.5-0.9-1-1.8-1.5-2.7c2.2-1.7,4.2-3.3,5.9-4.7
						c1-0.7,1.9-1.5,2.7-2.1c0.9-0.7,1.8-1.4,2.6-2c3.5-2.5,6.5-4.6,9.3-6.1c0.7-0.4,1.4-0.7,2-1.1c0.6-0.4,1.3-0.7,1.9-1
						c1.3-0.6,2.4-1.2,3.6-1.6c2.2-0.9,4.1-1.6,5.8-2.5c1.6-0.8,3-1.9,4.2-3.5c0.5-0.8,1-1.7,1.5-2.8c0.2-0.5,0.4-1.1,0.5-1.8
						s0.3-1.5,0.4-2.3c0.2-1.6,0.4-3.6,0.4-5.8c0-2.3-0.2-5.1-0.5-8.1c-0.1-0.8-0.2-1.5-0.3-2.4c-0.1-0.9-0.3-1.8-0.5-2.7
						c-0.3-1.8-0.7-3.8-1.2-5.9c-0.1-0.5-0.3-1-0.4-1.5c-0.2-0.5-0.3-1.1-0.5-1.7c-0.3-1.2-0.6-2.4-0.9-3.6
						c-0.6-2.5-1.5-4.9-2.4-7.7c0.6-5.7,1.5-9.7,2.5-12.3c1.1-2.6,2.6-3.5,4.5-3.1c0.9,0.2,2,0.7,3,1.5c1.1,0.8,2.3,1.9,3.4,3.2
						c2.3,2.6,4.6,6,6.6,10.1c2.1,3.8,3.9,8.2,5.5,12.5c1.5,4,2.7,8.3,3.6,11.8c0.9,3.4,1.5,6.5,1.9,8.6c0.2,1.1,0.4,1.9,0.5,2.5
						C465.1,216,465.1,216.3,465.1,216.3z M280,98.7c0-0.3,0.1-0.5,0.1-0.5c0.8,0.1,1.6,0.1,2.5,0.2c0.8,0.1,1.5,0.2,2.3,0.3
						c1.5,0.2,2.9,0.3,4.3,0.5c2.6,0.4,5,0.7,6.8,1.1c-1.6-0.3-3.6-0.6-6.3-0.9c-1.3-0.2-2.7-0.3-4.3-0.4
						C283.8,98.8,282,98.7,280,98.7z M218.1,103.6c7.3-1.2,16.1-3.1,26-4.4c1.5,4.3,1.9,8.7,1.3,12.1c-0.6,3.4-2.2,5.8-4.8,5.9
						c1-3.1-1.8-5.6-6.3-7.7C229.7,107.5,223.6,105.9,218.1,103.6z M272,206.5c-0.3,0.3-0.5,0.5-0.7,0.7c-0.3,0.3-0.5,0.5-0.6,0.6
						c-0.5,0.5-0.8,0.9-1.1,1.2c-0.6,0.7-0.9,1.2-1.1,1.4c0.3-0.4,0.6-0.8,1-1.3c0.4-0.4,0.6-0.7,1-1.2c0.7-0.7,1.5-1.5,2.1-2
						c0.1,0,0.2-0.2,0.2-0.2C272.6,205.9,272.3,206.2,272,206.5z"/>
					<path class="st1" d="M272.5,206c-0.2,0.1-0.3,0.1-0.4,0.2C272.2,206.2,272.3,206.1,272.5,206L272.5,206L272.5,206L272.5,206
						C272.5,206,272.4,206,272.5,206L272.5,206L272.5,206L272.5,206z"/>
					<path class="st1" d="M311.5,207.9l-0.4,0.5c0.4-0.5,0.6-0.9,0.9-1.4c0.5-0.6,0.8-1.3,1.1-1.7
						C312.5,206.5,312,207.1,311.5,207.9z"/>
					<path class="st1" d="M127.4,113l4.5,4.7c-0.2-2.6-0.5-5.3-0.5-7.8C130,110.9,128.8,111.9,127.4,113z"/>
					<path class="st1" d="M142.9,206.6c-2.2-0.6-4.7-1-7.3-0.2C137.1,207,139.9,206.8,142.9,206.6z"/>
					<path class="st1" d="M123.8,320.3c-0.6,7.7-0.5,15.5,0.4,23.4c0-5.2-0.1-9.7-0.1-13.8c0-1.9-0.1-3.6-0.1-5.3
						C124,323.2,123.9,321.7,123.8,320.3z"/>
					<path class="st1" d="M207.4,407c2.6-4.2,3.4-7.5,4.3-10.5c-0.1-0.1-0.2-0.1-0.3-0.2C210.2,399.9,208.8,403.4,207.4,407z"/>
					<path class="st1" d="M456.3,240.6c-0.4,1.3-0.5,2.6-0.3,3.8c0.6,4.9,1,5.9,1.1,4.6C457.2,247.8,457,244.4,456.3,240.6z"/>
					<path class="st1" d="M167.5,213.4c-1.3-0.2-2.5-0.4-3.7-0.6c-0.6-0.1-1.3-0.3-1.9-0.5c-0.6-0.3-1.2-0.7-1.7-1.1
						c-2.4-1.5-4.6-3.6-6.4-6.4c-0.3,3.4-0.5,6.6-0.4,9.3c0.1,1.4,0.2,2.6,0.5,3.6c0.1,0.5,0.3,1,0.5,1.4c0.2,0.3,0.4,0.6,0.6,0.8
						C156.7,221.8,160.4,220.3,167.5,213.4z"/>
					<path class="st1" d="M20.5,283.5c0.2,0.1,0.2,0,0.5,0c-0.4-1.5-0.5-2.8-0.7-4.4L20.5,283.5z"/>
					<path class="st1" d="M160.6,156.4c-0.8,1.5-1.6,3-2.5,4.6c-0.4,0.7-0.7,1.5-1.2,2.3c-0.3,0.6-0.5,1.3-0.7,1.9
						c-0.9,2.6-1.7,5.1-2.4,7.6c-1.4,5-2.5,9.8-3.1,14.4c0,0.3-0.1,0.5-0.1,0.8v0.6c0,0.5,0,0.8,0,1.3c0,0.8,0.1,1.6,0.2,2.5
						c0.1,1.6,0.4,3.2,0.5,4.6c0.3,1.5,0.5,2.9,0.9,4.2c0.2,0.6,0.4,1.4,0.5,1.9l0.3,0.9l0.2,0.5c0.1,0.2,0.1,0.3,0.2,0.4
						c0-0.3,0.1-0.8,0.2-1.2c0.1-0.5,0.2-0.9,0.2-1.4c0.2-0.9,0.3-1.8,0.5-2.7c0.3-1.8,0.5-3.6,0.9-5.5c0.3-1.8,0.5-3.6,0.8-5.4
						c0.1-0.9,0.2-1.7,0.4-2.6l0.1-0.6c0-0.2,0.1-0.5,0.2-0.8l0.4-1.6c0.9-4.5,1.7-8.7,2.1-13c0.2-2.1,0.4-4.2,0.4-6.3v-0.8l0.2-0.9
						c0.1-0.6,0.2-1.3,0.4-1.9C160.4,158.9,160.5,157.6,160.6,156.4z"/>
					<path class="st1" d="M270.9,101.5l-4.6-1.1c0.1,1.7-0.2,3.1-0.5,4.1C267.5,103.5,269.2,102.5,270.9,101.5z"/>
					<path class="st1" d="M265.8,104.5c-1.6,1-3.3,2.1-4.9,3.2c1.1-0.1,2.2-0.2,3-0.5C264.8,106.7,265.5,106,265.8,104.5z"/>
					<path class="st1" d="M251.2,114.8c1.5-1.2,3.2-2.5,4.8-3.6c1.6-1.2,3.3-2.3,5-3.5c-1.8,0-3.8-0.1-5.6,0.7
						C253.5,109.3,252,111.1,251.2,114.8z"/>
					<path class="st1" d="M391.5,224.6c3.1,0.7,6.1,1.5,9.1,2.5C398.8,225.9,395.8,225,391.5,224.6z"/>
					<path class="st1" d="M387.7,262c1-1.8,3-3.7,5.5-5.7c1.3-1,2.6-2.1,3.8-3.2c1.3-1.1,2.6-2.3,3.8-3.6c1.3-1.3,2.5-2.6,3.6-3.9
						c0.5-0.7,1-1.4,1.5-2.1c0.5-0.8,0.8-1.6,1.2-2.5c1.4-3.4,1.9-7.5,0.8-11.8c-2.4-0.7-4.8-1.5-7.3-2.2c0.8,0.5,1.5,1.2,1.9,1.9
						c0.5,0.7,0.7,1.4,0.8,2.2c0.1,0.7,0.1,1.6-0.1,2.5c-0.2,0.8-0.5,1.6-0.9,2.6c-0.4,0.9-0.9,1.6-1.5,2.6
						c-0.3,0.5-0.6,0.8-0.9,1.3c-0.4,0.4-0.6,0.8-1,1.2c-0.4,0.4-0.7,0.8-1.1,1.2c-0.4,0.4-0.7,0.7-1.2,1.1
						c-0.8,0.7-1.6,1.4-2.5,2.1c-3.3,2.8-6.5,5.6-8.1,8.3C384.4,256.4,384.4,259.1,387.7,262z"/>
					<path class="st1" d="M239.7,287.5l3.8-0.6c0.6-0.1,1.3-0.3,1.9-0.4l1.9-0.5c2.6-0.5,5.1-1.4,7.7-2.2c-4.5-2.6-9.5-5.8-13-9.2
						c-3.6-3.4-5.7-6.6-4.7-9.3c-3.9-1.4-6.4-2.3-7.9-2.7c-1.5-0.5-2.2-0.5-2.2-0.1c0,0.8,2.6,3.3,5.7,6.4c3.1,3,6.9,6.6,8.8,10
						c1,1.6,1.5,3.4,1.3,4.8c-0.1,0.7-0.5,1.5-1,2.1C241.5,286.5,240.7,287.1,239.7,287.5z"/>
					<path class="st1" d="M223.9,296.1c-0.1,0.4-0.2,0.5-0.2,0.6s-0.1,0.3-0.1,0.4c-0.1,0.3-0.1,0.4-0.1,0.5s0,0.1,0-0.2
						s0.1-0.5,0.2-0.7c0-0.1,0.1-0.2,0.1-0.3s0-0.2,0-0.1c0.1-0.4,0.2-0.7,0.3-0.9c0.1-0.3,0.2-0.5,0.3-0.7c0.2-0.5,0.3-0.7,0.4-0.8
						c0-0.1,0,0.1-0.2,0.5c0,0.1-0.1,0.2-0.2,0.4c-0.1,0.2-0.1,0.3-0.2,0.5C224.1,295.4,223.9,295.7,223.9,296.1z"/>
					<path class="st1" d="M261.3,236.5c-3.8-6.7-7.7-13.6-11.6-20.2c-0.2,1.1,0,2.1,0.5,3.3c0.5,1.1,1.3,2.4,2.3,3.9
						C254.6,226.4,257.9,230.2,261.3,236.5z"/>
					<path class="st1" d="M207.9,353.5c1.3,3.2,2.6,6.5,4.1,9.6c0.7,1.5,1.5,3.2,2.3,4.7s1.5,3.1,2.4,4.6c1-3.4,1.9-6.8,2.8-10.3
						s1.7-6.8,2.6-10.2C217.2,352.8,212.6,353.2,207.9,353.5z"/>
					<path class="st1" d="M216.1,182.3c0.3-0.4,0.5-0.6,0.7-1c-0.7,0.5-1.4,0.8-1.9,0.8C215.3,182.2,215.7,182.3,216.1,182.3z"/>
					<path class="st1" d="M233.5,236.7l0.2,0.1l0,0l0,0l-0.5-0.5l-2.7-2.3c-3.7-3-7.5-6-11.2-8.9c0.8,1.1,3,3,5.9,5.3
						c2.8,2.3,6.3,4.7,9.4,6.9c0.2,0.2,0.5,0.4,1,0.7l0,0l-0.1-0.1c-0.1-0.1-0.2-0.2-0.4-0.3c-0.2-0.1-0.4-0.3-0.6-0.5
						C234.1,237.3,233.8,237,233.5,236.7z"/>
					<path class="st1" d="M222.7,243.8c-1.6-2.8-4.5-8-7.6-13.6c-1.3-2-0.7-0.9,0.6,6c0.5,0.9,1.9,3.9,3.6,6.1
						C221,244.5,222.8,245.8,222.7,243.8z"/>
					<path class="st1" d="M280.1,297.6c2.6,1,5,1.7,7.4,2.5c-2.2-0.8-4.6-1.9-6.8-3.3C280.4,297.1,280.3,297.3,280.1,297.6z"/>
				</g>
			</g>
		</g>
	</g>
</g>
</svg>
